%TF.GenerationSoftware,KiCad,Pcbnew,(5.1.9-0-10_14)*%
%TF.CreationDate,2021-03-08T16:43:49+01:00*%
%TF.ProjectId,n8 bit special,6e382062-6974-4207-9370-656369616c2e,rev?*%
%TF.SameCoordinates,Original*%
%TF.FileFunction,Legend,Top*%
%TF.FilePolarity,Positive*%
%FSLAX46Y46*%
G04 Gerber Fmt 4.6, Leading zero omitted, Abs format (unit mm)*
G04 Created by KiCad (PCBNEW (5.1.9-0-10_14)) date 2021-03-08 16:43:49*
%MOMM*%
%LPD*%
G01*
G04 APERTURE LIST*
%ADD10C,0.100000*%
%ADD11C,0.150000*%
%ADD12C,0.400000*%
%ADD13C,0.120000*%
G04 APERTURE END LIST*
D10*
G36*
X164084000Y-115316000D02*
G01*
X163576000Y-115824000D01*
X163068000Y-115316000D01*
X163576000Y-114808000D01*
X164084000Y-115316000D01*
G37*
X164084000Y-115316000D02*
X163576000Y-115824000D01*
X163068000Y-115316000D01*
X163576000Y-114808000D01*
X164084000Y-115316000D01*
D11*
X123686000Y-83165904D02*
X123686000Y-82365904D01*
X124524095Y-83165904D02*
X124257428Y-82784952D01*
X124066952Y-83165904D02*
X124066952Y-82365904D01*
X124371714Y-82365904D01*
X124447904Y-82404000D01*
X124486000Y-82442095D01*
X124524095Y-82518285D01*
X124524095Y-82632571D01*
X124486000Y-82708761D01*
X124447904Y-82746857D01*
X124371714Y-82784952D01*
X124066952Y-82784952D01*
X125400285Y-83242095D02*
X125324095Y-83204000D01*
X125247904Y-83127809D01*
X125133619Y-83013523D01*
X125057428Y-82975428D01*
X124981238Y-82975428D01*
X125019333Y-83165904D02*
X124943142Y-83127809D01*
X124866952Y-83051619D01*
X124828857Y-82899238D01*
X124828857Y-82632571D01*
X124866952Y-82480190D01*
X124943142Y-82404000D01*
X125019333Y-82365904D01*
X125171714Y-82365904D01*
X125247904Y-82404000D01*
X125324095Y-82480190D01*
X125362190Y-82632571D01*
X125362190Y-82899238D01*
X125324095Y-83051619D01*
X125247904Y-83127809D01*
X125171714Y-83165904D01*
X125019333Y-83165904D01*
X126962190Y-83165904D02*
X126924095Y-83165904D01*
X126847904Y-83127809D01*
X126733619Y-83013523D01*
X126543142Y-82784952D01*
X126466952Y-82670666D01*
X126428857Y-82556380D01*
X126428857Y-82480190D01*
X126466952Y-82404000D01*
X126543142Y-82365904D01*
X126581238Y-82365904D01*
X126657428Y-82404000D01*
X126695523Y-82480190D01*
X126695523Y-82518285D01*
X126657428Y-82594476D01*
X126619333Y-82632571D01*
X126390761Y-82784952D01*
X126352666Y-82823047D01*
X126314571Y-82899238D01*
X126314571Y-83013523D01*
X126352666Y-83089714D01*
X126390761Y-83127809D01*
X126466952Y-83165904D01*
X126581238Y-83165904D01*
X126657428Y-83127809D01*
X126695523Y-83089714D01*
X126809809Y-82937333D01*
X126847904Y-82823047D01*
X126847904Y-82746857D01*
X127914571Y-83165904D02*
X127914571Y-82365904D01*
X128371714Y-83165904D01*
X128371714Y-82365904D01*
X128752666Y-83165904D02*
X128752666Y-82365904D01*
X129019333Y-82937333D01*
X129286000Y-82365904D01*
X129286000Y-83165904D01*
X129666952Y-83165904D02*
X129666952Y-82365904D01*
X130657428Y-83165904D02*
X130657428Y-82365904D01*
X130657428Y-82746857D02*
X131114571Y-82746857D01*
X131114571Y-83165904D02*
X131114571Y-82365904D01*
X131838380Y-83165904D02*
X131838380Y-82746857D01*
X131800285Y-82670666D01*
X131724095Y-82632571D01*
X131571714Y-82632571D01*
X131495523Y-82670666D01*
X131838380Y-83127809D02*
X131762190Y-83165904D01*
X131571714Y-83165904D01*
X131495523Y-83127809D01*
X131457428Y-83051619D01*
X131457428Y-82975428D01*
X131495523Y-82899238D01*
X131571714Y-82861142D01*
X131762190Y-82861142D01*
X131838380Y-82823047D01*
X132219333Y-82632571D02*
X132219333Y-83165904D01*
X132219333Y-82708761D02*
X132257428Y-82670666D01*
X132333619Y-82632571D01*
X132447904Y-82632571D01*
X132524095Y-82670666D01*
X132562190Y-82746857D01*
X132562190Y-83165904D01*
X133286000Y-83165904D02*
X133286000Y-82365904D01*
X133286000Y-83127809D02*
X133209809Y-83165904D01*
X133057428Y-83165904D01*
X132981238Y-83127809D01*
X132943142Y-83089714D01*
X132905047Y-83013523D01*
X132905047Y-82784952D01*
X132943142Y-82708761D01*
X132981238Y-82670666D01*
X133057428Y-82632571D01*
X133209809Y-82632571D01*
X133286000Y-82670666D01*
X133781238Y-83165904D02*
X133705047Y-83127809D01*
X133666952Y-83051619D01*
X133666952Y-82365904D01*
X134390761Y-83127809D02*
X134314571Y-83165904D01*
X134162190Y-83165904D01*
X134086000Y-83127809D01*
X134047904Y-83051619D01*
X134047904Y-82746857D01*
X134086000Y-82670666D01*
X134162190Y-82632571D01*
X134314571Y-82632571D01*
X134390761Y-82670666D01*
X134428857Y-82746857D01*
X134428857Y-82823047D01*
X134047904Y-82899238D01*
X134771714Y-83165904D02*
X134771714Y-82632571D01*
X134771714Y-82784952D02*
X134809809Y-82708761D01*
X134847904Y-82670666D01*
X134924095Y-82632571D01*
X135000285Y-82632571D01*
X184232571Y-71119238D02*
X184765904Y-70928761D01*
X184232571Y-70738285D01*
X184727809Y-70128761D02*
X184765904Y-70204952D01*
X184765904Y-70357333D01*
X184727809Y-70433523D01*
X184651619Y-70471619D01*
X184346857Y-70471619D01*
X184270666Y-70433523D01*
X184232571Y-70357333D01*
X184232571Y-70204952D01*
X184270666Y-70128761D01*
X184346857Y-70090666D01*
X184423047Y-70090666D01*
X184499238Y-70471619D01*
X184765904Y-69747809D02*
X184232571Y-69747809D01*
X184384952Y-69747809D02*
X184308761Y-69709714D01*
X184270666Y-69671619D01*
X184232571Y-69595428D01*
X184232571Y-69519238D01*
X184727809Y-69290666D02*
X184765904Y-69214476D01*
X184765904Y-69062095D01*
X184727809Y-68985904D01*
X184651619Y-68947809D01*
X184613523Y-68947809D01*
X184537333Y-68985904D01*
X184499238Y-69062095D01*
X184499238Y-69176380D01*
X184461142Y-69252571D01*
X184384952Y-69290666D01*
X184346857Y-69290666D01*
X184270666Y-69252571D01*
X184232571Y-69176380D01*
X184232571Y-69062095D01*
X184270666Y-68985904D01*
X184765904Y-68604952D02*
X184232571Y-68604952D01*
X183965904Y-68604952D02*
X184004000Y-68643047D01*
X184042095Y-68604952D01*
X184004000Y-68566857D01*
X183965904Y-68604952D01*
X184042095Y-68604952D01*
X184765904Y-68109714D02*
X184727809Y-68185904D01*
X184689714Y-68224000D01*
X184613523Y-68262095D01*
X184384952Y-68262095D01*
X184308761Y-68224000D01*
X184270666Y-68185904D01*
X184232571Y-68109714D01*
X184232571Y-67995428D01*
X184270666Y-67919238D01*
X184308761Y-67881142D01*
X184384952Y-67843047D01*
X184613523Y-67843047D01*
X184689714Y-67881142D01*
X184727809Y-67919238D01*
X184765904Y-67995428D01*
X184765904Y-68109714D01*
X184232571Y-67500190D02*
X184765904Y-67500190D01*
X184308761Y-67500190D02*
X184270666Y-67462095D01*
X184232571Y-67385904D01*
X184232571Y-67271619D01*
X184270666Y-67195428D01*
X184346857Y-67157333D01*
X184765904Y-67157333D01*
X184765904Y-65747809D02*
X184765904Y-66204952D01*
X184765904Y-65976380D02*
X183965904Y-65976380D01*
X184080190Y-66052571D01*
X184156380Y-66128761D01*
X184194476Y-66204952D01*
X184727809Y-65366857D02*
X184765904Y-65366857D01*
X184842095Y-65404952D01*
X184880190Y-65443047D01*
X184765904Y-64414476D02*
X183965904Y-64414476D01*
X184537333Y-64147809D01*
X183965904Y-63881142D01*
X184765904Y-63881142D01*
X184765904Y-63157333D02*
X184346857Y-63157333D01*
X184270666Y-63195428D01*
X184232571Y-63271619D01*
X184232571Y-63424000D01*
X184270666Y-63500190D01*
X184727809Y-63157333D02*
X184765904Y-63233523D01*
X184765904Y-63424000D01*
X184727809Y-63500190D01*
X184651619Y-63538285D01*
X184575428Y-63538285D01*
X184499238Y-63500190D01*
X184461142Y-63424000D01*
X184461142Y-63233523D01*
X184423047Y-63157333D01*
X184765904Y-62776380D02*
X184232571Y-62776380D01*
X184384952Y-62776380D02*
X184308761Y-62738285D01*
X184270666Y-62700190D01*
X184232571Y-62624000D01*
X184232571Y-62547809D01*
X184042095Y-61709714D02*
X184004000Y-61671619D01*
X183965904Y-61595428D01*
X183965904Y-61404952D01*
X184004000Y-61328761D01*
X184042095Y-61290666D01*
X184118285Y-61252571D01*
X184194476Y-61252571D01*
X184308761Y-61290666D01*
X184765904Y-61747809D01*
X184765904Y-61252571D01*
X183965904Y-60757333D02*
X183965904Y-60681142D01*
X184004000Y-60604952D01*
X184042095Y-60566857D01*
X184118285Y-60528761D01*
X184270666Y-60490666D01*
X184461142Y-60490666D01*
X184613523Y-60528761D01*
X184689714Y-60566857D01*
X184727809Y-60604952D01*
X184765904Y-60681142D01*
X184765904Y-60757333D01*
X184727809Y-60833523D01*
X184689714Y-60871619D01*
X184613523Y-60909714D01*
X184461142Y-60947809D01*
X184270666Y-60947809D01*
X184118285Y-60909714D01*
X184042095Y-60871619D01*
X184004000Y-60833523D01*
X183965904Y-60757333D01*
X184042095Y-60185904D02*
X184004000Y-60147809D01*
X183965904Y-60071619D01*
X183965904Y-59881142D01*
X184004000Y-59804952D01*
X184042095Y-59766857D01*
X184118285Y-59728761D01*
X184194476Y-59728761D01*
X184308761Y-59766857D01*
X184765904Y-60224000D01*
X184765904Y-59728761D01*
X184765904Y-58966857D02*
X184765904Y-59424000D01*
X184765904Y-59195428D02*
X183965904Y-59195428D01*
X184080190Y-59271619D01*
X184156380Y-59347809D01*
X184194476Y-59424000D01*
D12*
X183467428Y-94248571D02*
X184800761Y-94248571D01*
X183657904Y-94248571D02*
X183562666Y-94153333D01*
X183467428Y-93962857D01*
X183467428Y-93677142D01*
X183562666Y-93486666D01*
X183753142Y-93391428D01*
X184800761Y-93391428D01*
X183657904Y-92153333D02*
X183562666Y-92343809D01*
X183467428Y-92439047D01*
X183276952Y-92534285D01*
X183181714Y-92534285D01*
X182991238Y-92439047D01*
X182896000Y-92343809D01*
X182800761Y-92153333D01*
X182800761Y-91772380D01*
X182896000Y-91581904D01*
X182991238Y-91486666D01*
X183181714Y-91391428D01*
X183276952Y-91391428D01*
X183467428Y-91486666D01*
X183562666Y-91581904D01*
X183657904Y-91772380D01*
X183657904Y-92153333D01*
X183753142Y-92343809D01*
X183848380Y-92439047D01*
X184038857Y-92534285D01*
X184419809Y-92534285D01*
X184610285Y-92439047D01*
X184705523Y-92343809D01*
X184800761Y-92153333D01*
X184800761Y-91772380D01*
X184705523Y-91581904D01*
X184610285Y-91486666D01*
X184419809Y-91391428D01*
X184038857Y-91391428D01*
X183848380Y-91486666D01*
X183753142Y-91581904D01*
X183657904Y-91772380D01*
X183753142Y-88343809D02*
X183848380Y-88058095D01*
X183943619Y-87962857D01*
X184134095Y-87867619D01*
X184419809Y-87867619D01*
X184610285Y-87962857D01*
X184705523Y-88058095D01*
X184800761Y-88248571D01*
X184800761Y-89010476D01*
X182800761Y-89010476D01*
X182800761Y-88343809D01*
X182896000Y-88153333D01*
X182991238Y-88058095D01*
X183181714Y-87962857D01*
X183372190Y-87962857D01*
X183562666Y-88058095D01*
X183657904Y-88153333D01*
X183753142Y-88343809D01*
X183753142Y-89010476D01*
X184800761Y-87010476D02*
X183467428Y-87010476D01*
X182800761Y-87010476D02*
X182896000Y-87105714D01*
X182991238Y-87010476D01*
X182896000Y-86915238D01*
X182800761Y-87010476D01*
X182991238Y-87010476D01*
X183467428Y-86343809D02*
X183467428Y-85581904D01*
X182800761Y-86058095D02*
X184515047Y-86058095D01*
X184705523Y-85962857D01*
X184800761Y-85772380D01*
X184800761Y-85581904D01*
X184705523Y-83486666D02*
X184800761Y-83200952D01*
X184800761Y-82724761D01*
X184705523Y-82534285D01*
X184610285Y-82439047D01*
X184419809Y-82343809D01*
X184229333Y-82343809D01*
X184038857Y-82439047D01*
X183943619Y-82534285D01*
X183848380Y-82724761D01*
X183753142Y-83105714D01*
X183657904Y-83296190D01*
X183562666Y-83391428D01*
X183372190Y-83486666D01*
X183181714Y-83486666D01*
X182991238Y-83391428D01*
X182896000Y-83296190D01*
X182800761Y-83105714D01*
X182800761Y-82629523D01*
X182896000Y-82343809D01*
X183467428Y-81486666D02*
X185467428Y-81486666D01*
X183562666Y-81486666D02*
X183467428Y-81296190D01*
X183467428Y-80915238D01*
X183562666Y-80724761D01*
X183657904Y-80629523D01*
X183848380Y-80534285D01*
X184419809Y-80534285D01*
X184610285Y-80629523D01*
X184705523Y-80724761D01*
X184800761Y-80915238D01*
X184800761Y-81296190D01*
X184705523Y-81486666D01*
X184705523Y-78915238D02*
X184800761Y-79105714D01*
X184800761Y-79486666D01*
X184705523Y-79677142D01*
X184515047Y-79772380D01*
X183753142Y-79772380D01*
X183562666Y-79677142D01*
X183467428Y-79486666D01*
X183467428Y-79105714D01*
X183562666Y-78915238D01*
X183753142Y-78820000D01*
X183943619Y-78820000D01*
X184134095Y-79772380D01*
X184705523Y-77105714D02*
X184800761Y-77296190D01*
X184800761Y-77677142D01*
X184705523Y-77867619D01*
X184610285Y-77962857D01*
X184419809Y-78058095D01*
X183848380Y-78058095D01*
X183657904Y-77962857D01*
X183562666Y-77867619D01*
X183467428Y-77677142D01*
X183467428Y-77296190D01*
X183562666Y-77105714D01*
X184800761Y-76248571D02*
X183467428Y-76248571D01*
X182800761Y-76248571D02*
X182896000Y-76343809D01*
X182991238Y-76248571D01*
X182896000Y-76153333D01*
X182800761Y-76248571D01*
X182991238Y-76248571D01*
X184800761Y-74439047D02*
X183753142Y-74439047D01*
X183562666Y-74534285D01*
X183467428Y-74724761D01*
X183467428Y-75105714D01*
X183562666Y-75296190D01*
X184705523Y-74439047D02*
X184800761Y-74629523D01*
X184800761Y-75105714D01*
X184705523Y-75296190D01*
X184515047Y-75391428D01*
X184324571Y-75391428D01*
X184134095Y-75296190D01*
X184038857Y-75105714D01*
X184038857Y-74629523D01*
X183943619Y-74439047D01*
X184800761Y-73200952D02*
X184705523Y-73391428D01*
X184515047Y-73486666D01*
X182800761Y-73486666D01*
D11*
X149555523Y-82404000D02*
X149479333Y-82365904D01*
X149365047Y-82365904D01*
X149250761Y-82404000D01*
X149174571Y-82480190D01*
X149136476Y-82556380D01*
X149098380Y-82708761D01*
X149098380Y-82823047D01*
X149136476Y-82975428D01*
X149174571Y-83051619D01*
X149250761Y-83127809D01*
X149365047Y-83165904D01*
X149441238Y-83165904D01*
X149555523Y-83127809D01*
X149593619Y-83089714D01*
X149593619Y-82823047D01*
X149441238Y-82823047D01*
X150050761Y-83165904D02*
X149974571Y-83127809D01*
X149936476Y-83051619D01*
X149936476Y-82365904D01*
X150698380Y-82632571D02*
X150698380Y-83165904D01*
X150355523Y-82632571D02*
X150355523Y-83051619D01*
X150393619Y-83127809D01*
X150469809Y-83165904D01*
X150584095Y-83165904D01*
X150660285Y-83127809D01*
X150698380Y-83089714D01*
X151384095Y-83127809D02*
X151307904Y-83165904D01*
X151155523Y-83165904D01*
X151079333Y-83127809D01*
X151041238Y-83051619D01*
X151041238Y-82746857D01*
X151079333Y-82670666D01*
X151155523Y-82632571D01*
X151307904Y-82632571D01*
X151384095Y-82670666D01*
X151422190Y-82746857D01*
X151422190Y-82823047D01*
X151041238Y-82899238D01*
X152755523Y-83165904D02*
X152374571Y-83165904D01*
X152374571Y-82365904D01*
X153136476Y-83165904D02*
X153060285Y-83127809D01*
X153022190Y-83089714D01*
X152984095Y-83013523D01*
X152984095Y-82784952D01*
X153022190Y-82708761D01*
X153060285Y-82670666D01*
X153136476Y-82632571D01*
X153250761Y-82632571D01*
X153326952Y-82670666D01*
X153365047Y-82708761D01*
X153403142Y-82784952D01*
X153403142Y-83013523D01*
X153365047Y-83089714D01*
X153326952Y-83127809D01*
X153250761Y-83165904D01*
X153136476Y-83165904D01*
X154088857Y-82632571D02*
X154088857Y-83280190D01*
X154050761Y-83356380D01*
X154012666Y-83394476D01*
X153936476Y-83432571D01*
X153822190Y-83432571D01*
X153746000Y-83394476D01*
X154088857Y-83127809D02*
X154012666Y-83165904D01*
X153860285Y-83165904D01*
X153784095Y-83127809D01*
X153746000Y-83089714D01*
X153707904Y-83013523D01*
X153707904Y-82784952D01*
X153746000Y-82708761D01*
X153784095Y-82670666D01*
X153860285Y-82632571D01*
X154012666Y-82632571D01*
X154088857Y-82670666D01*
X154469809Y-83165904D02*
X154469809Y-82632571D01*
X154469809Y-82365904D02*
X154431714Y-82404000D01*
X154469809Y-82442095D01*
X154507904Y-82404000D01*
X154469809Y-82365904D01*
X154469809Y-82442095D01*
X155193619Y-83127809D02*
X155117428Y-83165904D01*
X154965047Y-83165904D01*
X154888857Y-83127809D01*
X154850761Y-83089714D01*
X154812666Y-83013523D01*
X154812666Y-82784952D01*
X154850761Y-82708761D01*
X154888857Y-82670666D01*
X154965047Y-82632571D01*
X155117428Y-82632571D01*
X155193619Y-82670666D01*
X181044857Y-79679523D02*
X181044857Y-79412857D01*
X181463904Y-79298571D02*
X181463904Y-79679523D01*
X180663904Y-79679523D01*
X180663904Y-79298571D01*
X181044857Y-78955714D02*
X181044857Y-78689047D01*
X181463904Y-78574761D02*
X181463904Y-78955714D01*
X180663904Y-78955714D01*
X180663904Y-78574761D01*
X181463904Y-78231904D02*
X180663904Y-78231904D01*
X180663904Y-77927142D01*
X180702000Y-77850952D01*
X180740095Y-77812857D01*
X180816285Y-77774761D01*
X180930571Y-77774761D01*
X181006761Y-77812857D01*
X181044857Y-77850952D01*
X181082952Y-77927142D01*
X181082952Y-78231904D01*
X181463904Y-76974761D02*
X181082952Y-77241428D01*
X181463904Y-77431904D02*
X180663904Y-77431904D01*
X180663904Y-77127142D01*
X180702000Y-77050952D01*
X180740095Y-77012857D01*
X180816285Y-76974761D01*
X180930571Y-76974761D01*
X181006761Y-77012857D01*
X181044857Y-77050952D01*
X181082952Y-77127142D01*
X181082952Y-77431904D01*
X180663904Y-76479523D02*
X180663904Y-76327142D01*
X180702000Y-76250952D01*
X180778190Y-76174761D01*
X180930571Y-76136666D01*
X181197238Y-76136666D01*
X181349619Y-76174761D01*
X181425809Y-76250952D01*
X181463904Y-76327142D01*
X181463904Y-76479523D01*
X181425809Y-76555714D01*
X181349619Y-76631904D01*
X181197238Y-76670000D01*
X180930571Y-76670000D01*
X180778190Y-76631904D01*
X180702000Y-76555714D01*
X180663904Y-76479523D01*
X181463904Y-75793809D02*
X180663904Y-75793809D01*
X181235333Y-75527142D01*
X180663904Y-75260476D01*
X181463904Y-75260476D01*
X157333904Y-78911333D02*
X156952952Y-79178000D01*
X157333904Y-79368476D02*
X156533904Y-79368476D01*
X156533904Y-79063714D01*
X156572000Y-78987523D01*
X156610095Y-78949428D01*
X156686285Y-78911333D01*
X156800571Y-78911333D01*
X156876761Y-78949428D01*
X156914857Y-78987523D01*
X156952952Y-79063714D01*
X156952952Y-79368476D01*
X157105333Y-78606571D02*
X157105333Y-78225619D01*
X157333904Y-78682761D02*
X156533904Y-78416095D01*
X157333904Y-78149428D01*
X157333904Y-77882761D02*
X156533904Y-77882761D01*
X157105333Y-77616095D01*
X156533904Y-77349428D01*
X157333904Y-77349428D01*
X156610095Y-77006571D02*
X156572000Y-76968476D01*
X156533904Y-76892285D01*
X156533904Y-76701809D01*
X156572000Y-76625619D01*
X156610095Y-76587523D01*
X156686285Y-76549428D01*
X156762476Y-76549428D01*
X156876761Y-76587523D01*
X157333904Y-77044666D01*
X157333904Y-76549428D01*
X133203904Y-78911333D02*
X132822952Y-79178000D01*
X133203904Y-79368476D02*
X132403904Y-79368476D01*
X132403904Y-79063714D01*
X132442000Y-78987523D01*
X132480095Y-78949428D01*
X132556285Y-78911333D01*
X132670571Y-78911333D01*
X132746761Y-78949428D01*
X132784857Y-78987523D01*
X132822952Y-79063714D01*
X132822952Y-79368476D01*
X132975333Y-78606571D02*
X132975333Y-78225619D01*
X133203904Y-78682761D02*
X132403904Y-78416095D01*
X133203904Y-78149428D01*
X133203904Y-77882761D02*
X132403904Y-77882761D01*
X132975333Y-77616095D01*
X132403904Y-77349428D01*
X133203904Y-77349428D01*
X133203904Y-76549428D02*
X133203904Y-77006571D01*
X133203904Y-76778000D02*
X132403904Y-76778000D01*
X132518190Y-76854190D01*
X132594380Y-76930380D01*
X132632476Y-77006571D01*
X108273904Y-94595619D02*
X109073904Y-94405142D01*
X108502476Y-94252761D01*
X109073904Y-94100380D01*
X108273904Y-93909904D01*
X108273904Y-93262285D02*
X108273904Y-93414666D01*
X108312000Y-93490857D01*
X108350095Y-93528952D01*
X108464380Y-93605142D01*
X108616761Y-93643238D01*
X108921523Y-93643238D01*
X108997714Y-93605142D01*
X109035809Y-93567047D01*
X109073904Y-93490857D01*
X109073904Y-93338476D01*
X109035809Y-93262285D01*
X108997714Y-93224190D01*
X108921523Y-93186095D01*
X108731047Y-93186095D01*
X108654857Y-93224190D01*
X108616761Y-93262285D01*
X108578666Y-93338476D01*
X108578666Y-93490857D01*
X108616761Y-93567047D01*
X108654857Y-93605142D01*
X108731047Y-93643238D01*
X108273904Y-92462285D02*
X108273904Y-92843238D01*
X108654857Y-92881333D01*
X108616761Y-92843238D01*
X108578666Y-92767047D01*
X108578666Y-92576571D01*
X108616761Y-92500380D01*
X108654857Y-92462285D01*
X108731047Y-92424190D01*
X108921523Y-92424190D01*
X108997714Y-92462285D01*
X109035809Y-92500380D01*
X109073904Y-92576571D01*
X109073904Y-92767047D01*
X109035809Y-92843238D01*
X108997714Y-92881333D01*
X108997714Y-91624190D02*
X109035809Y-91662285D01*
X109073904Y-91776571D01*
X109073904Y-91852761D01*
X109035809Y-91967047D01*
X108959619Y-92043238D01*
X108883428Y-92081333D01*
X108731047Y-92119428D01*
X108616761Y-92119428D01*
X108464380Y-92081333D01*
X108388190Y-92043238D01*
X108312000Y-91967047D01*
X108273904Y-91852761D01*
X108273904Y-91776571D01*
X108312000Y-91662285D01*
X108350095Y-91624190D01*
X108273904Y-91128952D02*
X108273904Y-91052761D01*
X108312000Y-90976571D01*
X108350095Y-90938476D01*
X108426285Y-90900380D01*
X108578666Y-90862285D01*
X108769142Y-90862285D01*
X108921523Y-90900380D01*
X108997714Y-90938476D01*
X109035809Y-90976571D01*
X109073904Y-91052761D01*
X109073904Y-91128952D01*
X109035809Y-91205142D01*
X108997714Y-91243238D01*
X108921523Y-91281333D01*
X108769142Y-91319428D01*
X108578666Y-91319428D01*
X108426285Y-91281333D01*
X108350095Y-91243238D01*
X108312000Y-91205142D01*
X108273904Y-91128952D01*
X108350095Y-90557523D02*
X108312000Y-90519428D01*
X108273904Y-90443238D01*
X108273904Y-90252761D01*
X108312000Y-90176571D01*
X108350095Y-90138476D01*
X108426285Y-90100380D01*
X108502476Y-90100380D01*
X108616761Y-90138476D01*
X109073904Y-90595619D01*
X109073904Y-90100380D01*
X109035809Y-89795619D02*
X109073904Y-89681333D01*
X109073904Y-89490857D01*
X109035809Y-89414666D01*
X108997714Y-89376571D01*
X108921523Y-89338476D01*
X108845333Y-89338476D01*
X108769142Y-89376571D01*
X108731047Y-89414666D01*
X108692952Y-89490857D01*
X108654857Y-89643238D01*
X108616761Y-89719428D01*
X108578666Y-89757523D01*
X108502476Y-89795619D01*
X108426285Y-89795619D01*
X108350095Y-89757523D01*
X108312000Y-89719428D01*
X108273904Y-89643238D01*
X108273904Y-89452761D01*
X108312000Y-89338476D01*
X185781904Y-121691047D02*
X184981904Y-121691047D01*
X184981904Y-121386285D01*
X185020000Y-121310095D01*
X185058095Y-121272000D01*
X185134285Y-121233904D01*
X185248571Y-121233904D01*
X185324761Y-121272000D01*
X185362857Y-121310095D01*
X185400952Y-121386285D01*
X185400952Y-121691047D01*
X185781904Y-120776761D02*
X185743809Y-120852952D01*
X185705714Y-120891047D01*
X185629523Y-120929142D01*
X185400952Y-120929142D01*
X185324761Y-120891047D01*
X185286666Y-120852952D01*
X185248571Y-120776761D01*
X185248571Y-120662476D01*
X185286666Y-120586285D01*
X185324761Y-120548190D01*
X185400952Y-120510095D01*
X185629523Y-120510095D01*
X185705714Y-120548190D01*
X185743809Y-120586285D01*
X185781904Y-120662476D01*
X185781904Y-120776761D01*
X185248571Y-120243428D02*
X185781904Y-120091047D01*
X185400952Y-119938666D01*
X185781904Y-119786285D01*
X185248571Y-119633904D01*
X185743809Y-119024380D02*
X185781904Y-119100571D01*
X185781904Y-119252952D01*
X185743809Y-119329142D01*
X185667619Y-119367238D01*
X185362857Y-119367238D01*
X185286666Y-119329142D01*
X185248571Y-119252952D01*
X185248571Y-119100571D01*
X185286666Y-119024380D01*
X185362857Y-118986285D01*
X185439047Y-118986285D01*
X185515238Y-119367238D01*
X185781904Y-118643428D02*
X185248571Y-118643428D01*
X185400952Y-118643428D02*
X185324761Y-118605333D01*
X185286666Y-118567238D01*
X185248571Y-118491047D01*
X185248571Y-118414857D01*
X185781904Y-118148190D02*
X184981904Y-118148190D01*
X184981904Y-117843428D01*
X185020000Y-117767238D01*
X185058095Y-117729142D01*
X185134285Y-117691047D01*
X185248571Y-117691047D01*
X185324761Y-117729142D01*
X185362857Y-117767238D01*
X185400952Y-117843428D01*
X185400952Y-118148190D01*
X185781904Y-117233904D02*
X185743809Y-117310095D01*
X185705714Y-117348190D01*
X185629523Y-117386285D01*
X185400952Y-117386285D01*
X185324761Y-117348190D01*
X185286666Y-117310095D01*
X185248571Y-117233904D01*
X185248571Y-117119619D01*
X185286666Y-117043428D01*
X185324761Y-117005333D01*
X185400952Y-116967238D01*
X185629523Y-116967238D01*
X185705714Y-117005333D01*
X185743809Y-117043428D01*
X185781904Y-117119619D01*
X185781904Y-117233904D01*
X185781904Y-116624380D02*
X185248571Y-116624380D01*
X185400952Y-116624380D02*
X185324761Y-116586285D01*
X185286666Y-116548190D01*
X185248571Y-116472000D01*
X185248571Y-116395809D01*
X185248571Y-116243428D02*
X185248571Y-115938666D01*
X184981904Y-116129142D02*
X185667619Y-116129142D01*
X185743809Y-116091047D01*
X185781904Y-116014857D01*
X185781904Y-115938666D01*
X179381238Y-115169904D02*
X179381238Y-114369904D01*
X179571714Y-114369904D01*
X179686000Y-114408000D01*
X179762190Y-114484190D01*
X179800285Y-114560380D01*
X179838380Y-114712761D01*
X179838380Y-114827047D01*
X179800285Y-114979428D01*
X179762190Y-115055619D01*
X179686000Y-115131809D01*
X179571714Y-115169904D01*
X179381238Y-115169904D01*
X180181238Y-114865142D02*
X180790761Y-114865142D01*
X179381238Y-117709904D02*
X179381238Y-116909904D01*
X179571714Y-116909904D01*
X179686000Y-116948000D01*
X179762190Y-117024190D01*
X179800285Y-117100380D01*
X179838380Y-117252761D01*
X179838380Y-117367047D01*
X179800285Y-117519428D01*
X179762190Y-117595619D01*
X179686000Y-117671809D01*
X179571714Y-117709904D01*
X179381238Y-117709904D01*
X180181238Y-117405142D02*
X180790761Y-117405142D01*
X180486000Y-117709904D02*
X180486000Y-117100380D01*
X178549428Y-120199142D02*
X179158952Y-120199142D01*
X178854190Y-120503904D02*
X178854190Y-119894380D01*
X179920857Y-119703904D02*
X179539904Y-119703904D01*
X179501809Y-120084857D01*
X179539904Y-120046761D01*
X179616095Y-120008666D01*
X179806571Y-120008666D01*
X179882761Y-120046761D01*
X179920857Y-120084857D01*
X179958952Y-120161047D01*
X179958952Y-120351523D01*
X179920857Y-120427714D01*
X179882761Y-120465809D01*
X179806571Y-120503904D01*
X179616095Y-120503904D01*
X179539904Y-120465809D01*
X179501809Y-120427714D01*
X180187523Y-119703904D02*
X180454190Y-120503904D01*
X180720857Y-119703904D01*
X178968476Y-111868000D02*
X178892285Y-111829904D01*
X178778000Y-111829904D01*
X178663714Y-111868000D01*
X178587523Y-111944190D01*
X178549428Y-112020380D01*
X178511333Y-112172761D01*
X178511333Y-112287047D01*
X178549428Y-112439428D01*
X178587523Y-112515619D01*
X178663714Y-112591809D01*
X178778000Y-112629904D01*
X178854190Y-112629904D01*
X178968476Y-112591809D01*
X179006571Y-112553714D01*
X179006571Y-112287047D01*
X178854190Y-112287047D01*
X179349428Y-112629904D02*
X179349428Y-111829904D01*
X179806571Y-112629904D01*
X179806571Y-111829904D01*
X180187523Y-112629904D02*
X180187523Y-111829904D01*
X180378000Y-111829904D01*
X180492285Y-111868000D01*
X180568476Y-111944190D01*
X180606571Y-112020380D01*
X180644666Y-112172761D01*
X180644666Y-112287047D01*
X180606571Y-112439428D01*
X180568476Y-112515619D01*
X180492285Y-112591809D01*
X180378000Y-112629904D01*
X180187523Y-112629904D01*
X145250285Y-136251904D02*
X145250285Y-135451904D01*
X145555047Y-135451904D01*
X145631238Y-135490000D01*
X145669333Y-135528095D01*
X145707428Y-135604285D01*
X145707428Y-135718571D01*
X145669333Y-135794761D01*
X145631238Y-135832857D01*
X145555047Y-135870952D01*
X145250285Y-135870952D01*
X146202666Y-135451904D02*
X146355047Y-135451904D01*
X146431238Y-135490000D01*
X146507428Y-135566190D01*
X146545523Y-135718571D01*
X146545523Y-135985238D01*
X146507428Y-136137619D01*
X146431238Y-136213809D01*
X146355047Y-136251904D01*
X146202666Y-136251904D01*
X146126476Y-136213809D01*
X146050285Y-136137619D01*
X146012190Y-135985238D01*
X146012190Y-135718571D01*
X146050285Y-135566190D01*
X146126476Y-135490000D01*
X146202666Y-135451904D01*
X147345523Y-136251904D02*
X147078857Y-135870952D01*
X146888380Y-136251904D02*
X146888380Y-135451904D01*
X147193142Y-135451904D01*
X147269333Y-135490000D01*
X147307428Y-135528095D01*
X147345523Y-135604285D01*
X147345523Y-135718571D01*
X147307428Y-135794761D01*
X147269333Y-135832857D01*
X147193142Y-135870952D01*
X146888380Y-135870952D01*
X147574095Y-135451904D02*
X148031238Y-135451904D01*
X147802666Y-136251904D02*
X147802666Y-135451904D01*
X148221714Y-135451904D02*
X148716952Y-135451904D01*
X148450285Y-135756666D01*
X148564571Y-135756666D01*
X148640761Y-135794761D01*
X148678857Y-135832857D01*
X148716952Y-135909047D01*
X148716952Y-136099523D01*
X148678857Y-136175714D01*
X148640761Y-136213809D01*
X148564571Y-136251904D01*
X148336000Y-136251904D01*
X148259809Y-136213809D01*
X148221714Y-136175714D01*
X148869333Y-136328095D02*
X149478857Y-136328095D01*
X149669333Y-136251904D02*
X149669333Y-135451904D01*
X150126476Y-136251904D01*
X150126476Y-135451904D01*
X150507428Y-136251904D02*
X150507428Y-135451904D01*
X150774095Y-136023333D01*
X151040761Y-135451904D01*
X151040761Y-136251904D01*
X151421714Y-136251904D02*
X151421714Y-135451904D01*
X145307428Y-133711904D02*
X145307428Y-132911904D01*
X145612190Y-132911904D01*
X145688380Y-132950000D01*
X145726476Y-132988095D01*
X145764571Y-133064285D01*
X145764571Y-133178571D01*
X145726476Y-133254761D01*
X145688380Y-133292857D01*
X145612190Y-133330952D01*
X145307428Y-133330952D01*
X146259809Y-132911904D02*
X146412190Y-132911904D01*
X146488380Y-132950000D01*
X146564571Y-133026190D01*
X146602666Y-133178571D01*
X146602666Y-133445238D01*
X146564571Y-133597619D01*
X146488380Y-133673809D01*
X146412190Y-133711904D01*
X146259809Y-133711904D01*
X146183619Y-133673809D01*
X146107428Y-133597619D01*
X146069333Y-133445238D01*
X146069333Y-133178571D01*
X146107428Y-133026190D01*
X146183619Y-132950000D01*
X146259809Y-132911904D01*
X147402666Y-133711904D02*
X147136000Y-133330952D01*
X146945523Y-133711904D02*
X146945523Y-132911904D01*
X147250285Y-132911904D01*
X147326476Y-132950000D01*
X147364571Y-132988095D01*
X147402666Y-133064285D01*
X147402666Y-133178571D01*
X147364571Y-133254761D01*
X147326476Y-133292857D01*
X147250285Y-133330952D01*
X146945523Y-133330952D01*
X147631238Y-132911904D02*
X148088380Y-132911904D01*
X147859809Y-133711904D02*
X147859809Y-132911904D01*
X148278857Y-132911904D02*
X148774095Y-132911904D01*
X148507428Y-133216666D01*
X148621714Y-133216666D01*
X148697904Y-133254761D01*
X148736000Y-133292857D01*
X148774095Y-133369047D01*
X148774095Y-133559523D01*
X148736000Y-133635714D01*
X148697904Y-133673809D01*
X148621714Y-133711904D01*
X148393142Y-133711904D01*
X148316952Y-133673809D01*
X148278857Y-133635714D01*
X148926476Y-133788095D02*
X149536000Y-133788095D01*
X149726476Y-133711904D02*
X149726476Y-132911904D01*
X150564571Y-133711904D02*
X150297904Y-133330952D01*
X150107428Y-133711904D02*
X150107428Y-132911904D01*
X150412190Y-132911904D01*
X150488380Y-132950000D01*
X150526476Y-132988095D01*
X150564571Y-133064285D01*
X150564571Y-133178571D01*
X150526476Y-133254761D01*
X150488380Y-133292857D01*
X150412190Y-133330952D01*
X150107428Y-133330952D01*
X151440761Y-133788095D02*
X151364571Y-133750000D01*
X151288380Y-133673809D01*
X151174095Y-133559523D01*
X151097904Y-133521428D01*
X151021714Y-133521428D01*
X151059809Y-133711904D02*
X150983619Y-133673809D01*
X150907428Y-133597619D01*
X150869333Y-133445238D01*
X150869333Y-133178571D01*
X150907428Y-133026190D01*
X150983619Y-132950000D01*
X151059809Y-132911904D01*
X151212190Y-132911904D01*
X151288380Y-132950000D01*
X151364571Y-133026190D01*
X151402666Y-133178571D01*
X151402666Y-133445238D01*
X151364571Y-133597619D01*
X151288380Y-133673809D01*
X151212190Y-133711904D01*
X151059809Y-133711904D01*
X145250285Y-131171904D02*
X145250285Y-130371904D01*
X145555047Y-130371904D01*
X145631238Y-130410000D01*
X145669333Y-130448095D01*
X145707428Y-130524285D01*
X145707428Y-130638571D01*
X145669333Y-130714761D01*
X145631238Y-130752857D01*
X145555047Y-130790952D01*
X145250285Y-130790952D01*
X146202666Y-130371904D02*
X146355047Y-130371904D01*
X146431238Y-130410000D01*
X146507428Y-130486190D01*
X146545523Y-130638571D01*
X146545523Y-130905238D01*
X146507428Y-131057619D01*
X146431238Y-131133809D01*
X146355047Y-131171904D01*
X146202666Y-131171904D01*
X146126476Y-131133809D01*
X146050285Y-131057619D01*
X146012190Y-130905238D01*
X146012190Y-130638571D01*
X146050285Y-130486190D01*
X146126476Y-130410000D01*
X146202666Y-130371904D01*
X147345523Y-131171904D02*
X147078857Y-130790952D01*
X146888380Y-131171904D02*
X146888380Y-130371904D01*
X147193142Y-130371904D01*
X147269333Y-130410000D01*
X147307428Y-130448095D01*
X147345523Y-130524285D01*
X147345523Y-130638571D01*
X147307428Y-130714761D01*
X147269333Y-130752857D01*
X147193142Y-130790952D01*
X146888380Y-130790952D01*
X147574095Y-130371904D02*
X148031238Y-130371904D01*
X147802666Y-131171904D02*
X147802666Y-130371904D01*
X148259809Y-130448095D02*
X148297904Y-130410000D01*
X148374095Y-130371904D01*
X148564571Y-130371904D01*
X148640761Y-130410000D01*
X148678857Y-130448095D01*
X148716952Y-130524285D01*
X148716952Y-130600476D01*
X148678857Y-130714761D01*
X148221714Y-131171904D01*
X148716952Y-131171904D01*
X148869333Y-131248095D02*
X149478857Y-131248095D01*
X149669333Y-131171904D02*
X149669333Y-130371904D01*
X150126476Y-131171904D01*
X150126476Y-130371904D01*
X150507428Y-131171904D02*
X150507428Y-130371904D01*
X150774095Y-130943333D01*
X151040761Y-130371904D01*
X151040761Y-131171904D01*
X151421714Y-131171904D02*
X151421714Y-130371904D01*
X145307428Y-128631904D02*
X145307428Y-127831904D01*
X145612190Y-127831904D01*
X145688380Y-127870000D01*
X145726476Y-127908095D01*
X145764571Y-127984285D01*
X145764571Y-128098571D01*
X145726476Y-128174761D01*
X145688380Y-128212857D01*
X145612190Y-128250952D01*
X145307428Y-128250952D01*
X146259809Y-127831904D02*
X146412190Y-127831904D01*
X146488380Y-127870000D01*
X146564571Y-127946190D01*
X146602666Y-128098571D01*
X146602666Y-128365238D01*
X146564571Y-128517619D01*
X146488380Y-128593809D01*
X146412190Y-128631904D01*
X146259809Y-128631904D01*
X146183619Y-128593809D01*
X146107428Y-128517619D01*
X146069333Y-128365238D01*
X146069333Y-128098571D01*
X146107428Y-127946190D01*
X146183619Y-127870000D01*
X146259809Y-127831904D01*
X147402666Y-128631904D02*
X147136000Y-128250952D01*
X146945523Y-128631904D02*
X146945523Y-127831904D01*
X147250285Y-127831904D01*
X147326476Y-127870000D01*
X147364571Y-127908095D01*
X147402666Y-127984285D01*
X147402666Y-128098571D01*
X147364571Y-128174761D01*
X147326476Y-128212857D01*
X147250285Y-128250952D01*
X146945523Y-128250952D01*
X147631238Y-127831904D02*
X148088380Y-127831904D01*
X147859809Y-128631904D02*
X147859809Y-127831904D01*
X148316952Y-127908095D02*
X148355047Y-127870000D01*
X148431238Y-127831904D01*
X148621714Y-127831904D01*
X148697904Y-127870000D01*
X148736000Y-127908095D01*
X148774095Y-127984285D01*
X148774095Y-128060476D01*
X148736000Y-128174761D01*
X148278857Y-128631904D01*
X148774095Y-128631904D01*
X148926476Y-128708095D02*
X149536000Y-128708095D01*
X149726476Y-128631904D02*
X149726476Y-127831904D01*
X150564571Y-128631904D02*
X150297904Y-128250952D01*
X150107428Y-128631904D02*
X150107428Y-127831904D01*
X150412190Y-127831904D01*
X150488380Y-127870000D01*
X150526476Y-127908095D01*
X150564571Y-127984285D01*
X150564571Y-128098571D01*
X150526476Y-128174761D01*
X150488380Y-128212857D01*
X150412190Y-128250952D01*
X150107428Y-128250952D01*
X151440761Y-128708095D02*
X151364571Y-128670000D01*
X151288380Y-128593809D01*
X151174095Y-128479523D01*
X151097904Y-128441428D01*
X151021714Y-128441428D01*
X151059809Y-128631904D02*
X150983619Y-128593809D01*
X150907428Y-128517619D01*
X150869333Y-128365238D01*
X150869333Y-128098571D01*
X150907428Y-127946190D01*
X150983619Y-127870000D01*
X151059809Y-127831904D01*
X151212190Y-127831904D01*
X151288380Y-127870000D01*
X151364571Y-127946190D01*
X151402666Y-128098571D01*
X151402666Y-128365238D01*
X151364571Y-128517619D01*
X151288380Y-128593809D01*
X151212190Y-128631904D01*
X151059809Y-128631904D01*
X145250285Y-126091904D02*
X145250285Y-125291904D01*
X145555047Y-125291904D01*
X145631238Y-125330000D01*
X145669333Y-125368095D01*
X145707428Y-125444285D01*
X145707428Y-125558571D01*
X145669333Y-125634761D01*
X145631238Y-125672857D01*
X145555047Y-125710952D01*
X145250285Y-125710952D01*
X146202666Y-125291904D02*
X146355047Y-125291904D01*
X146431238Y-125330000D01*
X146507428Y-125406190D01*
X146545523Y-125558571D01*
X146545523Y-125825238D01*
X146507428Y-125977619D01*
X146431238Y-126053809D01*
X146355047Y-126091904D01*
X146202666Y-126091904D01*
X146126476Y-126053809D01*
X146050285Y-125977619D01*
X146012190Y-125825238D01*
X146012190Y-125558571D01*
X146050285Y-125406190D01*
X146126476Y-125330000D01*
X146202666Y-125291904D01*
X147345523Y-126091904D02*
X147078857Y-125710952D01*
X146888380Y-126091904D02*
X146888380Y-125291904D01*
X147193142Y-125291904D01*
X147269333Y-125330000D01*
X147307428Y-125368095D01*
X147345523Y-125444285D01*
X147345523Y-125558571D01*
X147307428Y-125634761D01*
X147269333Y-125672857D01*
X147193142Y-125710952D01*
X146888380Y-125710952D01*
X147574095Y-125291904D02*
X148031238Y-125291904D01*
X147802666Y-126091904D02*
X147802666Y-125291904D01*
X148716952Y-126091904D02*
X148259809Y-126091904D01*
X148488380Y-126091904D02*
X148488380Y-125291904D01*
X148412190Y-125406190D01*
X148336000Y-125482380D01*
X148259809Y-125520476D01*
X148869333Y-126168095D02*
X149478857Y-126168095D01*
X149669333Y-126091904D02*
X149669333Y-125291904D01*
X150126476Y-126091904D01*
X150126476Y-125291904D01*
X150507428Y-126091904D02*
X150507428Y-125291904D01*
X150774095Y-125863333D01*
X151040761Y-125291904D01*
X151040761Y-126091904D01*
X151421714Y-126091904D02*
X151421714Y-125291904D01*
X145307428Y-123551904D02*
X145307428Y-122751904D01*
X145612190Y-122751904D01*
X145688380Y-122790000D01*
X145726476Y-122828095D01*
X145764571Y-122904285D01*
X145764571Y-123018571D01*
X145726476Y-123094761D01*
X145688380Y-123132857D01*
X145612190Y-123170952D01*
X145307428Y-123170952D01*
X146259809Y-122751904D02*
X146412190Y-122751904D01*
X146488380Y-122790000D01*
X146564571Y-122866190D01*
X146602666Y-123018571D01*
X146602666Y-123285238D01*
X146564571Y-123437619D01*
X146488380Y-123513809D01*
X146412190Y-123551904D01*
X146259809Y-123551904D01*
X146183619Y-123513809D01*
X146107428Y-123437619D01*
X146069333Y-123285238D01*
X146069333Y-123018571D01*
X146107428Y-122866190D01*
X146183619Y-122790000D01*
X146259809Y-122751904D01*
X147402666Y-123551904D02*
X147136000Y-123170952D01*
X146945523Y-123551904D02*
X146945523Y-122751904D01*
X147250285Y-122751904D01*
X147326476Y-122790000D01*
X147364571Y-122828095D01*
X147402666Y-122904285D01*
X147402666Y-123018571D01*
X147364571Y-123094761D01*
X147326476Y-123132857D01*
X147250285Y-123170952D01*
X146945523Y-123170952D01*
X147631238Y-122751904D02*
X148088380Y-122751904D01*
X147859809Y-123551904D02*
X147859809Y-122751904D01*
X148774095Y-123551904D02*
X148316952Y-123551904D01*
X148545523Y-123551904D02*
X148545523Y-122751904D01*
X148469333Y-122866190D01*
X148393142Y-122942380D01*
X148316952Y-122980476D01*
X148926476Y-123628095D02*
X149536000Y-123628095D01*
X149726476Y-123551904D02*
X149726476Y-122751904D01*
X150564571Y-123551904D02*
X150297904Y-123170952D01*
X150107428Y-123551904D02*
X150107428Y-122751904D01*
X150412190Y-122751904D01*
X150488380Y-122790000D01*
X150526476Y-122828095D01*
X150564571Y-122904285D01*
X150564571Y-123018571D01*
X150526476Y-123094761D01*
X150488380Y-123132857D01*
X150412190Y-123170952D01*
X150107428Y-123170952D01*
X151440761Y-123628095D02*
X151364571Y-123590000D01*
X151288380Y-123513809D01*
X151174095Y-123399523D01*
X151097904Y-123361428D01*
X151021714Y-123361428D01*
X151059809Y-123551904D02*
X150983619Y-123513809D01*
X150907428Y-123437619D01*
X150869333Y-123285238D01*
X150869333Y-123018571D01*
X150907428Y-122866190D01*
X150983619Y-122790000D01*
X151059809Y-122751904D01*
X151212190Y-122751904D01*
X151288380Y-122790000D01*
X151364571Y-122866190D01*
X151402666Y-123018571D01*
X151402666Y-123285238D01*
X151364571Y-123437619D01*
X151288380Y-123513809D01*
X151212190Y-123551904D01*
X151059809Y-123551904D01*
X145250285Y-121011904D02*
X145250285Y-120211904D01*
X145555047Y-120211904D01*
X145631238Y-120250000D01*
X145669333Y-120288095D01*
X145707428Y-120364285D01*
X145707428Y-120478571D01*
X145669333Y-120554761D01*
X145631238Y-120592857D01*
X145555047Y-120630952D01*
X145250285Y-120630952D01*
X146202666Y-120211904D02*
X146355047Y-120211904D01*
X146431238Y-120250000D01*
X146507428Y-120326190D01*
X146545523Y-120478571D01*
X146545523Y-120745238D01*
X146507428Y-120897619D01*
X146431238Y-120973809D01*
X146355047Y-121011904D01*
X146202666Y-121011904D01*
X146126476Y-120973809D01*
X146050285Y-120897619D01*
X146012190Y-120745238D01*
X146012190Y-120478571D01*
X146050285Y-120326190D01*
X146126476Y-120250000D01*
X146202666Y-120211904D01*
X147345523Y-121011904D02*
X147078857Y-120630952D01*
X146888380Y-121011904D02*
X146888380Y-120211904D01*
X147193142Y-120211904D01*
X147269333Y-120250000D01*
X147307428Y-120288095D01*
X147345523Y-120364285D01*
X147345523Y-120478571D01*
X147307428Y-120554761D01*
X147269333Y-120592857D01*
X147193142Y-120630952D01*
X146888380Y-120630952D01*
X147574095Y-120211904D02*
X148031238Y-120211904D01*
X147802666Y-121011904D02*
X147802666Y-120211904D01*
X148450285Y-120211904D02*
X148526476Y-120211904D01*
X148602666Y-120250000D01*
X148640761Y-120288095D01*
X148678857Y-120364285D01*
X148716952Y-120516666D01*
X148716952Y-120707142D01*
X148678857Y-120859523D01*
X148640761Y-120935714D01*
X148602666Y-120973809D01*
X148526476Y-121011904D01*
X148450285Y-121011904D01*
X148374095Y-120973809D01*
X148336000Y-120935714D01*
X148297904Y-120859523D01*
X148259809Y-120707142D01*
X148259809Y-120516666D01*
X148297904Y-120364285D01*
X148336000Y-120288095D01*
X148374095Y-120250000D01*
X148450285Y-120211904D01*
X148869333Y-121088095D02*
X149478857Y-121088095D01*
X149669333Y-121011904D02*
X149669333Y-120211904D01*
X150126476Y-121011904D01*
X150126476Y-120211904D01*
X150507428Y-121011904D02*
X150507428Y-120211904D01*
X150774095Y-120783333D01*
X151040761Y-120211904D01*
X151040761Y-121011904D01*
X151421714Y-121011904D02*
X151421714Y-120211904D01*
X145307428Y-118471904D02*
X145307428Y-117671904D01*
X145612190Y-117671904D01*
X145688380Y-117710000D01*
X145726476Y-117748095D01*
X145764571Y-117824285D01*
X145764571Y-117938571D01*
X145726476Y-118014761D01*
X145688380Y-118052857D01*
X145612190Y-118090952D01*
X145307428Y-118090952D01*
X146259809Y-117671904D02*
X146412190Y-117671904D01*
X146488380Y-117710000D01*
X146564571Y-117786190D01*
X146602666Y-117938571D01*
X146602666Y-118205238D01*
X146564571Y-118357619D01*
X146488380Y-118433809D01*
X146412190Y-118471904D01*
X146259809Y-118471904D01*
X146183619Y-118433809D01*
X146107428Y-118357619D01*
X146069333Y-118205238D01*
X146069333Y-117938571D01*
X146107428Y-117786190D01*
X146183619Y-117710000D01*
X146259809Y-117671904D01*
X147402666Y-118471904D02*
X147136000Y-118090952D01*
X146945523Y-118471904D02*
X146945523Y-117671904D01*
X147250285Y-117671904D01*
X147326476Y-117710000D01*
X147364571Y-117748095D01*
X147402666Y-117824285D01*
X147402666Y-117938571D01*
X147364571Y-118014761D01*
X147326476Y-118052857D01*
X147250285Y-118090952D01*
X146945523Y-118090952D01*
X147631238Y-117671904D02*
X148088380Y-117671904D01*
X147859809Y-118471904D02*
X147859809Y-117671904D01*
X148507428Y-117671904D02*
X148583619Y-117671904D01*
X148659809Y-117710000D01*
X148697904Y-117748095D01*
X148736000Y-117824285D01*
X148774095Y-117976666D01*
X148774095Y-118167142D01*
X148736000Y-118319523D01*
X148697904Y-118395714D01*
X148659809Y-118433809D01*
X148583619Y-118471904D01*
X148507428Y-118471904D01*
X148431238Y-118433809D01*
X148393142Y-118395714D01*
X148355047Y-118319523D01*
X148316952Y-118167142D01*
X148316952Y-117976666D01*
X148355047Y-117824285D01*
X148393142Y-117748095D01*
X148431238Y-117710000D01*
X148507428Y-117671904D01*
X148926476Y-118548095D02*
X149536000Y-118548095D01*
X149726476Y-118471904D02*
X149726476Y-117671904D01*
X150564571Y-118471904D02*
X150297904Y-118090952D01*
X150107428Y-118471904D02*
X150107428Y-117671904D01*
X150412190Y-117671904D01*
X150488380Y-117710000D01*
X150526476Y-117748095D01*
X150564571Y-117824285D01*
X150564571Y-117938571D01*
X150526476Y-118014761D01*
X150488380Y-118052857D01*
X150412190Y-118090952D01*
X150107428Y-118090952D01*
X151440761Y-118548095D02*
X151364571Y-118510000D01*
X151288380Y-118433809D01*
X151174095Y-118319523D01*
X151097904Y-118281428D01*
X151021714Y-118281428D01*
X151059809Y-118471904D02*
X150983619Y-118433809D01*
X150907428Y-118357619D01*
X150869333Y-118205238D01*
X150869333Y-117938571D01*
X150907428Y-117786190D01*
X150983619Y-117710000D01*
X151059809Y-117671904D01*
X151212190Y-117671904D01*
X151288380Y-117710000D01*
X151364571Y-117786190D01*
X151402666Y-117938571D01*
X151402666Y-118205238D01*
X151364571Y-118357619D01*
X151288380Y-118433809D01*
X151212190Y-118471904D01*
X151059809Y-118471904D01*
X151841619Y-115423904D02*
X151841619Y-114623904D01*
X152679714Y-115423904D02*
X152413047Y-115042952D01*
X152222571Y-115423904D02*
X152222571Y-114623904D01*
X152527333Y-114623904D01*
X152603523Y-114662000D01*
X152641619Y-114700095D01*
X152679714Y-114776285D01*
X152679714Y-114890571D01*
X152641619Y-114966761D01*
X152603523Y-115004857D01*
X152527333Y-115042952D01*
X152222571Y-115042952D01*
X153555904Y-115500095D02*
X153479714Y-115462000D01*
X153403523Y-115385809D01*
X153289238Y-115271523D01*
X153213047Y-115233428D01*
X153136857Y-115233428D01*
X153174952Y-115423904D02*
X153098761Y-115385809D01*
X153022571Y-115309619D01*
X152984476Y-115157238D01*
X152984476Y-114890571D01*
X153022571Y-114738190D01*
X153098761Y-114662000D01*
X153174952Y-114623904D01*
X153327333Y-114623904D01*
X153403523Y-114662000D01*
X153479714Y-114738190D01*
X153517809Y-114890571D01*
X153517809Y-115157238D01*
X153479714Y-115309619D01*
X153403523Y-115385809D01*
X153327333Y-115423904D01*
X153174952Y-115423904D01*
X154470190Y-115423904D02*
X154470190Y-114623904D01*
X154774952Y-114623904D01*
X154851142Y-114662000D01*
X154889238Y-114700095D01*
X154927333Y-114776285D01*
X154927333Y-114890571D01*
X154889238Y-114966761D01*
X154851142Y-115004857D01*
X154774952Y-115042952D01*
X154470190Y-115042952D01*
X155613047Y-114890571D02*
X155613047Y-115423904D01*
X155270190Y-114890571D02*
X155270190Y-115309619D01*
X155308285Y-115385809D01*
X155384476Y-115423904D01*
X155498761Y-115423904D01*
X155574952Y-115385809D01*
X155613047Y-115347714D01*
X156108285Y-115423904D02*
X156032095Y-115385809D01*
X155994000Y-115309619D01*
X155994000Y-114623904D01*
X156527333Y-115423904D02*
X156451142Y-115385809D01*
X156413047Y-115309619D01*
X156413047Y-114623904D01*
X157174952Y-114890571D02*
X157174952Y-115423904D01*
X156832095Y-114890571D02*
X156832095Y-115309619D01*
X156870190Y-115385809D01*
X156946380Y-115423904D01*
X157060666Y-115423904D01*
X157136857Y-115385809D01*
X157174952Y-115347714D01*
X157555904Y-114890571D02*
X157555904Y-115690571D01*
X157555904Y-114928666D02*
X157632095Y-114890571D01*
X157784476Y-114890571D01*
X157860666Y-114928666D01*
X157898761Y-114966761D01*
X157936857Y-115042952D01*
X157936857Y-115271523D01*
X157898761Y-115347714D01*
X157860666Y-115385809D01*
X157784476Y-115423904D01*
X157632095Y-115423904D01*
X157555904Y-115385809D01*
X158241619Y-115385809D02*
X158317809Y-115423904D01*
X158470190Y-115423904D01*
X158546380Y-115385809D01*
X158584476Y-115309619D01*
X158584476Y-115271523D01*
X158546380Y-115195333D01*
X158470190Y-115157238D01*
X158355904Y-115157238D01*
X158279714Y-115119142D01*
X158241619Y-115042952D01*
X158241619Y-115004857D01*
X158279714Y-114928666D01*
X158355904Y-114890571D01*
X158470190Y-114890571D01*
X158546380Y-114928666D01*
X106089523Y-139045904D02*
X106089523Y-138245904D01*
X106280000Y-138245904D01*
X106394285Y-138284000D01*
X106470476Y-138360190D01*
X106508571Y-138436380D01*
X106546666Y-138588761D01*
X106546666Y-138703047D01*
X106508571Y-138855428D01*
X106470476Y-138931619D01*
X106394285Y-139007809D01*
X106280000Y-139045904D01*
X106089523Y-139045904D01*
X106851428Y-138322095D02*
X106889523Y-138284000D01*
X106965714Y-138245904D01*
X107156190Y-138245904D01*
X107232380Y-138284000D01*
X107270476Y-138322095D01*
X107308571Y-138398285D01*
X107308571Y-138474476D01*
X107270476Y-138588761D01*
X106813333Y-139045904D01*
X107308571Y-139045904D01*
X118789523Y-139045904D02*
X118789523Y-138245904D01*
X118980000Y-138245904D01*
X119094285Y-138284000D01*
X119170476Y-138360190D01*
X119208571Y-138436380D01*
X119246666Y-138588761D01*
X119246666Y-138703047D01*
X119208571Y-138855428D01*
X119170476Y-138931619D01*
X119094285Y-139007809D01*
X118980000Y-139045904D01*
X118789523Y-139045904D01*
X119513333Y-138245904D02*
X120046666Y-138245904D01*
X119703809Y-139045904D01*
X101009523Y-139045904D02*
X101009523Y-138245904D01*
X101200000Y-138245904D01*
X101314285Y-138284000D01*
X101390476Y-138360190D01*
X101428571Y-138436380D01*
X101466666Y-138588761D01*
X101466666Y-138703047D01*
X101428571Y-138855428D01*
X101390476Y-138931619D01*
X101314285Y-139007809D01*
X101200000Y-139045904D01*
X101009523Y-139045904D01*
X101961904Y-138245904D02*
X102038095Y-138245904D01*
X102114285Y-138284000D01*
X102152380Y-138322095D01*
X102190476Y-138398285D01*
X102228571Y-138550666D01*
X102228571Y-138741142D01*
X102190476Y-138893523D01*
X102152380Y-138969714D01*
X102114285Y-139007809D01*
X102038095Y-139045904D01*
X101961904Y-139045904D01*
X101885714Y-139007809D01*
X101847619Y-138969714D01*
X101809523Y-138893523D01*
X101771428Y-138741142D01*
X101771428Y-138550666D01*
X101809523Y-138398285D01*
X101847619Y-138322095D01*
X101885714Y-138284000D01*
X101961904Y-138245904D01*
X103549523Y-139045904D02*
X103549523Y-138245904D01*
X103740000Y-138245904D01*
X103854285Y-138284000D01*
X103930476Y-138360190D01*
X103968571Y-138436380D01*
X104006666Y-138588761D01*
X104006666Y-138703047D01*
X103968571Y-138855428D01*
X103930476Y-138931619D01*
X103854285Y-139007809D01*
X103740000Y-139045904D01*
X103549523Y-139045904D01*
X104768571Y-139045904D02*
X104311428Y-139045904D01*
X104540000Y-139045904D02*
X104540000Y-138245904D01*
X104463809Y-138360190D01*
X104387619Y-138436380D01*
X104311428Y-138474476D01*
X116249523Y-139045904D02*
X116249523Y-138245904D01*
X116440000Y-138245904D01*
X116554285Y-138284000D01*
X116630476Y-138360190D01*
X116668571Y-138436380D01*
X116706666Y-138588761D01*
X116706666Y-138703047D01*
X116668571Y-138855428D01*
X116630476Y-138931619D01*
X116554285Y-139007809D01*
X116440000Y-139045904D01*
X116249523Y-139045904D01*
X117392380Y-138245904D02*
X117240000Y-138245904D01*
X117163809Y-138284000D01*
X117125714Y-138322095D01*
X117049523Y-138436380D01*
X117011428Y-138588761D01*
X117011428Y-138893523D01*
X117049523Y-138969714D01*
X117087619Y-139007809D01*
X117163809Y-139045904D01*
X117316190Y-139045904D01*
X117392380Y-139007809D01*
X117430476Y-138969714D01*
X117468571Y-138893523D01*
X117468571Y-138703047D01*
X117430476Y-138626857D01*
X117392380Y-138588761D01*
X117316190Y-138550666D01*
X117163809Y-138550666D01*
X117087619Y-138588761D01*
X117049523Y-138626857D01*
X117011428Y-138703047D01*
X113709523Y-139045904D02*
X113709523Y-138245904D01*
X113900000Y-138245904D01*
X114014285Y-138284000D01*
X114090476Y-138360190D01*
X114128571Y-138436380D01*
X114166666Y-138588761D01*
X114166666Y-138703047D01*
X114128571Y-138855428D01*
X114090476Y-138931619D01*
X114014285Y-139007809D01*
X113900000Y-139045904D01*
X113709523Y-139045904D01*
X114890476Y-138245904D02*
X114509523Y-138245904D01*
X114471428Y-138626857D01*
X114509523Y-138588761D01*
X114585714Y-138550666D01*
X114776190Y-138550666D01*
X114852380Y-138588761D01*
X114890476Y-138626857D01*
X114928571Y-138703047D01*
X114928571Y-138893523D01*
X114890476Y-138969714D01*
X114852380Y-139007809D01*
X114776190Y-139045904D01*
X114585714Y-139045904D01*
X114509523Y-139007809D01*
X114471428Y-138969714D01*
X134010476Y-138284000D02*
X133934285Y-138245904D01*
X133820000Y-138245904D01*
X133705714Y-138284000D01*
X133629523Y-138360190D01*
X133591428Y-138436380D01*
X133553333Y-138588761D01*
X133553333Y-138703047D01*
X133591428Y-138855428D01*
X133629523Y-138931619D01*
X133705714Y-139007809D01*
X133820000Y-139045904D01*
X133896190Y-139045904D01*
X134010476Y-139007809D01*
X134048571Y-138969714D01*
X134048571Y-138703047D01*
X133896190Y-138703047D01*
X134391428Y-139045904D02*
X134391428Y-138245904D01*
X134848571Y-139045904D01*
X134848571Y-138245904D01*
X135229523Y-139045904D02*
X135229523Y-138245904D01*
X135420000Y-138245904D01*
X135534285Y-138284000D01*
X135610476Y-138360190D01*
X135648571Y-138436380D01*
X135686666Y-138588761D01*
X135686666Y-138703047D01*
X135648571Y-138855428D01*
X135610476Y-138931619D01*
X135534285Y-139007809D01*
X135420000Y-139045904D01*
X135229523Y-139045904D01*
X131051428Y-138741142D02*
X131660952Y-138741142D01*
X131356190Y-139045904D02*
X131356190Y-138436380D01*
X132422857Y-138245904D02*
X132041904Y-138245904D01*
X132003809Y-138626857D01*
X132041904Y-138588761D01*
X132118095Y-138550666D01*
X132308571Y-138550666D01*
X132384761Y-138588761D01*
X132422857Y-138626857D01*
X132460952Y-138703047D01*
X132460952Y-138893523D01*
X132422857Y-138969714D01*
X132384761Y-139007809D01*
X132308571Y-139045904D01*
X132118095Y-139045904D01*
X132041904Y-139007809D01*
X132003809Y-138969714D01*
X132689523Y-138245904D02*
X132956190Y-139045904D01*
X133222857Y-138245904D01*
X95491428Y-138741142D02*
X96100952Y-138741142D01*
X95796190Y-139045904D02*
X95796190Y-138436380D01*
X96862857Y-138245904D02*
X96481904Y-138245904D01*
X96443809Y-138626857D01*
X96481904Y-138588761D01*
X96558095Y-138550666D01*
X96748571Y-138550666D01*
X96824761Y-138588761D01*
X96862857Y-138626857D01*
X96900952Y-138703047D01*
X96900952Y-138893523D01*
X96862857Y-138969714D01*
X96824761Y-139007809D01*
X96748571Y-139045904D01*
X96558095Y-139045904D01*
X96481904Y-139007809D01*
X96443809Y-138969714D01*
X97129523Y-138245904D02*
X97396190Y-139045904D01*
X97662857Y-138245904D01*
X128416190Y-138245904D02*
X128416190Y-138893523D01*
X128454285Y-138969714D01*
X128492380Y-139007809D01*
X128568571Y-139045904D01*
X128720952Y-139045904D01*
X128797142Y-139007809D01*
X128835238Y-138969714D01*
X128873333Y-138893523D01*
X128873333Y-138245904D01*
X129254285Y-139045904D02*
X129254285Y-138245904D01*
X129444761Y-138245904D01*
X129559047Y-138284000D01*
X129635238Y-138360190D01*
X129673333Y-138436380D01*
X129711428Y-138588761D01*
X129711428Y-138703047D01*
X129673333Y-138855428D01*
X129635238Y-138931619D01*
X129559047Y-139007809D01*
X129444761Y-139045904D01*
X129254285Y-139045904D01*
X130054285Y-138741142D02*
X130663809Y-138741142D01*
X111169523Y-139045904D02*
X111169523Y-138245904D01*
X111360000Y-138245904D01*
X111474285Y-138284000D01*
X111550476Y-138360190D01*
X111588571Y-138436380D01*
X111626666Y-138588761D01*
X111626666Y-138703047D01*
X111588571Y-138855428D01*
X111550476Y-138931619D01*
X111474285Y-139007809D01*
X111360000Y-139045904D01*
X111169523Y-139045904D01*
X112312380Y-138512571D02*
X112312380Y-139045904D01*
X112121904Y-138207809D02*
X111931428Y-138779238D01*
X112426666Y-138779238D01*
X98450476Y-138284000D02*
X98374285Y-138245904D01*
X98260000Y-138245904D01*
X98145714Y-138284000D01*
X98069523Y-138360190D01*
X98031428Y-138436380D01*
X97993333Y-138588761D01*
X97993333Y-138703047D01*
X98031428Y-138855428D01*
X98069523Y-138931619D01*
X98145714Y-139007809D01*
X98260000Y-139045904D01*
X98336190Y-139045904D01*
X98450476Y-139007809D01*
X98488571Y-138969714D01*
X98488571Y-138703047D01*
X98336190Y-138703047D01*
X98831428Y-139045904D02*
X98831428Y-138245904D01*
X99288571Y-139045904D01*
X99288571Y-138245904D01*
X99669523Y-139045904D02*
X99669523Y-138245904D01*
X99860000Y-138245904D01*
X99974285Y-138284000D01*
X100050476Y-138360190D01*
X100088571Y-138436380D01*
X100126666Y-138588761D01*
X100126666Y-138703047D01*
X100088571Y-138855428D01*
X100050476Y-138931619D01*
X99974285Y-139007809D01*
X99860000Y-139045904D01*
X99669523Y-139045904D01*
X123393333Y-137913000D02*
X124231428Y-137913000D01*
X123583809Y-139045904D02*
X123583809Y-138245904D01*
X124040952Y-139045904D01*
X124040952Y-138245904D01*
X124231428Y-137913000D02*
X125145714Y-137913000D01*
X124421904Y-139045904D02*
X124421904Y-138245904D01*
X124688571Y-138817333D01*
X124955238Y-138245904D01*
X124955238Y-139045904D01*
X125145714Y-137913000D02*
X125526666Y-137913000D01*
X125336190Y-139045904D02*
X125336190Y-138245904D01*
X125876190Y-138245904D02*
X125876190Y-138893523D01*
X125914285Y-138969714D01*
X125952380Y-139007809D01*
X126028571Y-139045904D01*
X126180952Y-139045904D01*
X126257142Y-139007809D01*
X126295238Y-138969714D01*
X126333333Y-138893523D01*
X126333333Y-138245904D01*
X126714285Y-139045904D02*
X126714285Y-138245904D01*
X126904761Y-138245904D01*
X127019047Y-138284000D01*
X127095238Y-138360190D01*
X127133333Y-138436380D01*
X127171428Y-138588761D01*
X127171428Y-138703047D01*
X127133333Y-138855428D01*
X127095238Y-138931619D01*
X127019047Y-139007809D01*
X126904761Y-139045904D01*
X126714285Y-139045904D01*
X127514285Y-138741142D02*
X128123809Y-138741142D01*
X127819047Y-139045904D02*
X127819047Y-138436380D01*
X108629523Y-139045904D02*
X108629523Y-138245904D01*
X108820000Y-138245904D01*
X108934285Y-138284000D01*
X109010476Y-138360190D01*
X109048571Y-138436380D01*
X109086666Y-138588761D01*
X109086666Y-138703047D01*
X109048571Y-138855428D01*
X109010476Y-138931619D01*
X108934285Y-139007809D01*
X108820000Y-139045904D01*
X108629523Y-139045904D01*
X109353333Y-138245904D02*
X109848571Y-138245904D01*
X109581904Y-138550666D01*
X109696190Y-138550666D01*
X109772380Y-138588761D01*
X109810476Y-138626857D01*
X109848571Y-138703047D01*
X109848571Y-138893523D01*
X109810476Y-138969714D01*
X109772380Y-139007809D01*
X109696190Y-139045904D01*
X109467619Y-139045904D01*
X109391428Y-139007809D01*
X109353333Y-138969714D01*
X120910476Y-137913000D02*
X121291428Y-137913000D01*
X121100952Y-139045904D02*
X121100952Y-138245904D01*
X121291428Y-137913000D02*
X122091428Y-137913000D01*
X121939047Y-139045904D02*
X121672380Y-138664952D01*
X121481904Y-139045904D02*
X121481904Y-138245904D01*
X121786666Y-138245904D01*
X121862857Y-138284000D01*
X121900952Y-138322095D01*
X121939047Y-138398285D01*
X121939047Y-138512571D01*
X121900952Y-138588761D01*
X121862857Y-138626857D01*
X121786666Y-138664952D01*
X121481904Y-138664952D01*
X122091428Y-137913000D02*
X122929523Y-137913000D01*
X122815238Y-139122095D02*
X122739047Y-139084000D01*
X122662857Y-139007809D01*
X122548571Y-138893523D01*
X122472380Y-138855428D01*
X122396190Y-138855428D01*
X122434285Y-139045904D02*
X122358095Y-139007809D01*
X122281904Y-138931619D01*
X122243809Y-138779238D01*
X122243809Y-138512571D01*
X122281904Y-138360190D01*
X122358095Y-138284000D01*
X122434285Y-138245904D01*
X122586666Y-138245904D01*
X122662857Y-138284000D01*
X122739047Y-138360190D01*
X122777142Y-138512571D01*
X122777142Y-138779238D01*
X122739047Y-138931619D01*
X122662857Y-139007809D01*
X122586666Y-139045904D01*
X122434285Y-139045904D01*
X106089523Y-127615904D02*
X106089523Y-126815904D01*
X106280000Y-126815904D01*
X106394285Y-126854000D01*
X106470476Y-126930190D01*
X106508571Y-127006380D01*
X106546666Y-127158761D01*
X106546666Y-127273047D01*
X106508571Y-127425428D01*
X106470476Y-127501619D01*
X106394285Y-127577809D01*
X106280000Y-127615904D01*
X106089523Y-127615904D01*
X106851428Y-126892095D02*
X106889523Y-126854000D01*
X106965714Y-126815904D01*
X107156190Y-126815904D01*
X107232380Y-126854000D01*
X107270476Y-126892095D01*
X107308571Y-126968285D01*
X107308571Y-127044476D01*
X107270476Y-127158761D01*
X106813333Y-127615904D01*
X107308571Y-127615904D01*
X118789523Y-127615904D02*
X118789523Y-126815904D01*
X118980000Y-126815904D01*
X119094285Y-126854000D01*
X119170476Y-126930190D01*
X119208571Y-127006380D01*
X119246666Y-127158761D01*
X119246666Y-127273047D01*
X119208571Y-127425428D01*
X119170476Y-127501619D01*
X119094285Y-127577809D01*
X118980000Y-127615904D01*
X118789523Y-127615904D01*
X119513333Y-126815904D02*
X120046666Y-126815904D01*
X119703809Y-127615904D01*
X101009523Y-127615904D02*
X101009523Y-126815904D01*
X101200000Y-126815904D01*
X101314285Y-126854000D01*
X101390476Y-126930190D01*
X101428571Y-127006380D01*
X101466666Y-127158761D01*
X101466666Y-127273047D01*
X101428571Y-127425428D01*
X101390476Y-127501619D01*
X101314285Y-127577809D01*
X101200000Y-127615904D01*
X101009523Y-127615904D01*
X101961904Y-126815904D02*
X102038095Y-126815904D01*
X102114285Y-126854000D01*
X102152380Y-126892095D01*
X102190476Y-126968285D01*
X102228571Y-127120666D01*
X102228571Y-127311142D01*
X102190476Y-127463523D01*
X102152380Y-127539714D01*
X102114285Y-127577809D01*
X102038095Y-127615904D01*
X101961904Y-127615904D01*
X101885714Y-127577809D01*
X101847619Y-127539714D01*
X101809523Y-127463523D01*
X101771428Y-127311142D01*
X101771428Y-127120666D01*
X101809523Y-126968285D01*
X101847619Y-126892095D01*
X101885714Y-126854000D01*
X101961904Y-126815904D01*
X103549523Y-127615904D02*
X103549523Y-126815904D01*
X103740000Y-126815904D01*
X103854285Y-126854000D01*
X103930476Y-126930190D01*
X103968571Y-127006380D01*
X104006666Y-127158761D01*
X104006666Y-127273047D01*
X103968571Y-127425428D01*
X103930476Y-127501619D01*
X103854285Y-127577809D01*
X103740000Y-127615904D01*
X103549523Y-127615904D01*
X104768571Y-127615904D02*
X104311428Y-127615904D01*
X104540000Y-127615904D02*
X104540000Y-126815904D01*
X104463809Y-126930190D01*
X104387619Y-127006380D01*
X104311428Y-127044476D01*
X116249523Y-127615904D02*
X116249523Y-126815904D01*
X116440000Y-126815904D01*
X116554285Y-126854000D01*
X116630476Y-126930190D01*
X116668571Y-127006380D01*
X116706666Y-127158761D01*
X116706666Y-127273047D01*
X116668571Y-127425428D01*
X116630476Y-127501619D01*
X116554285Y-127577809D01*
X116440000Y-127615904D01*
X116249523Y-127615904D01*
X117392380Y-126815904D02*
X117240000Y-126815904D01*
X117163809Y-126854000D01*
X117125714Y-126892095D01*
X117049523Y-127006380D01*
X117011428Y-127158761D01*
X117011428Y-127463523D01*
X117049523Y-127539714D01*
X117087619Y-127577809D01*
X117163809Y-127615904D01*
X117316190Y-127615904D01*
X117392380Y-127577809D01*
X117430476Y-127539714D01*
X117468571Y-127463523D01*
X117468571Y-127273047D01*
X117430476Y-127196857D01*
X117392380Y-127158761D01*
X117316190Y-127120666D01*
X117163809Y-127120666D01*
X117087619Y-127158761D01*
X117049523Y-127196857D01*
X117011428Y-127273047D01*
X113709523Y-127615904D02*
X113709523Y-126815904D01*
X113900000Y-126815904D01*
X114014285Y-126854000D01*
X114090476Y-126930190D01*
X114128571Y-127006380D01*
X114166666Y-127158761D01*
X114166666Y-127273047D01*
X114128571Y-127425428D01*
X114090476Y-127501619D01*
X114014285Y-127577809D01*
X113900000Y-127615904D01*
X113709523Y-127615904D01*
X114890476Y-126815904D02*
X114509523Y-126815904D01*
X114471428Y-127196857D01*
X114509523Y-127158761D01*
X114585714Y-127120666D01*
X114776190Y-127120666D01*
X114852380Y-127158761D01*
X114890476Y-127196857D01*
X114928571Y-127273047D01*
X114928571Y-127463523D01*
X114890476Y-127539714D01*
X114852380Y-127577809D01*
X114776190Y-127615904D01*
X114585714Y-127615904D01*
X114509523Y-127577809D01*
X114471428Y-127539714D01*
X134010476Y-126854000D02*
X133934285Y-126815904D01*
X133820000Y-126815904D01*
X133705714Y-126854000D01*
X133629523Y-126930190D01*
X133591428Y-127006380D01*
X133553333Y-127158761D01*
X133553333Y-127273047D01*
X133591428Y-127425428D01*
X133629523Y-127501619D01*
X133705714Y-127577809D01*
X133820000Y-127615904D01*
X133896190Y-127615904D01*
X134010476Y-127577809D01*
X134048571Y-127539714D01*
X134048571Y-127273047D01*
X133896190Y-127273047D01*
X134391428Y-127615904D02*
X134391428Y-126815904D01*
X134848571Y-127615904D01*
X134848571Y-126815904D01*
X135229523Y-127615904D02*
X135229523Y-126815904D01*
X135420000Y-126815904D01*
X135534285Y-126854000D01*
X135610476Y-126930190D01*
X135648571Y-127006380D01*
X135686666Y-127158761D01*
X135686666Y-127273047D01*
X135648571Y-127425428D01*
X135610476Y-127501619D01*
X135534285Y-127577809D01*
X135420000Y-127615904D01*
X135229523Y-127615904D01*
X131051428Y-127311142D02*
X131660952Y-127311142D01*
X131356190Y-127615904D02*
X131356190Y-127006380D01*
X132422857Y-126815904D02*
X132041904Y-126815904D01*
X132003809Y-127196857D01*
X132041904Y-127158761D01*
X132118095Y-127120666D01*
X132308571Y-127120666D01*
X132384761Y-127158761D01*
X132422857Y-127196857D01*
X132460952Y-127273047D01*
X132460952Y-127463523D01*
X132422857Y-127539714D01*
X132384761Y-127577809D01*
X132308571Y-127615904D01*
X132118095Y-127615904D01*
X132041904Y-127577809D01*
X132003809Y-127539714D01*
X132689523Y-126815904D02*
X132956190Y-127615904D01*
X133222857Y-126815904D01*
X95491428Y-127311142D02*
X96100952Y-127311142D01*
X95796190Y-127615904D02*
X95796190Y-127006380D01*
X96862857Y-126815904D02*
X96481904Y-126815904D01*
X96443809Y-127196857D01*
X96481904Y-127158761D01*
X96558095Y-127120666D01*
X96748571Y-127120666D01*
X96824761Y-127158761D01*
X96862857Y-127196857D01*
X96900952Y-127273047D01*
X96900952Y-127463523D01*
X96862857Y-127539714D01*
X96824761Y-127577809D01*
X96748571Y-127615904D01*
X96558095Y-127615904D01*
X96481904Y-127577809D01*
X96443809Y-127539714D01*
X97129523Y-126815904D02*
X97396190Y-127615904D01*
X97662857Y-126815904D01*
X128416190Y-126815904D02*
X128416190Y-127463523D01*
X128454285Y-127539714D01*
X128492380Y-127577809D01*
X128568571Y-127615904D01*
X128720952Y-127615904D01*
X128797142Y-127577809D01*
X128835238Y-127539714D01*
X128873333Y-127463523D01*
X128873333Y-126815904D01*
X129254285Y-127615904D02*
X129254285Y-126815904D01*
X129444761Y-126815904D01*
X129559047Y-126854000D01*
X129635238Y-126930190D01*
X129673333Y-127006380D01*
X129711428Y-127158761D01*
X129711428Y-127273047D01*
X129673333Y-127425428D01*
X129635238Y-127501619D01*
X129559047Y-127577809D01*
X129444761Y-127615904D01*
X129254285Y-127615904D01*
X130054285Y-127311142D02*
X130663809Y-127311142D01*
X111169523Y-127615904D02*
X111169523Y-126815904D01*
X111360000Y-126815904D01*
X111474285Y-126854000D01*
X111550476Y-126930190D01*
X111588571Y-127006380D01*
X111626666Y-127158761D01*
X111626666Y-127273047D01*
X111588571Y-127425428D01*
X111550476Y-127501619D01*
X111474285Y-127577809D01*
X111360000Y-127615904D01*
X111169523Y-127615904D01*
X112312380Y-127082571D02*
X112312380Y-127615904D01*
X112121904Y-126777809D02*
X111931428Y-127349238D01*
X112426666Y-127349238D01*
X98450476Y-126854000D02*
X98374285Y-126815904D01*
X98260000Y-126815904D01*
X98145714Y-126854000D01*
X98069523Y-126930190D01*
X98031428Y-127006380D01*
X97993333Y-127158761D01*
X97993333Y-127273047D01*
X98031428Y-127425428D01*
X98069523Y-127501619D01*
X98145714Y-127577809D01*
X98260000Y-127615904D01*
X98336190Y-127615904D01*
X98450476Y-127577809D01*
X98488571Y-127539714D01*
X98488571Y-127273047D01*
X98336190Y-127273047D01*
X98831428Y-127615904D02*
X98831428Y-126815904D01*
X99288571Y-127615904D01*
X99288571Y-126815904D01*
X99669523Y-127615904D02*
X99669523Y-126815904D01*
X99860000Y-126815904D01*
X99974285Y-126854000D01*
X100050476Y-126930190D01*
X100088571Y-127006380D01*
X100126666Y-127158761D01*
X100126666Y-127273047D01*
X100088571Y-127425428D01*
X100050476Y-127501619D01*
X99974285Y-127577809D01*
X99860000Y-127615904D01*
X99669523Y-127615904D01*
X123393333Y-126483000D02*
X124231428Y-126483000D01*
X123583809Y-127615904D02*
X123583809Y-126815904D01*
X124040952Y-127615904D01*
X124040952Y-126815904D01*
X124231428Y-126483000D02*
X125145714Y-126483000D01*
X124421904Y-127615904D02*
X124421904Y-126815904D01*
X124688571Y-127387333D01*
X124955238Y-126815904D01*
X124955238Y-127615904D01*
X125145714Y-126483000D02*
X125526666Y-126483000D01*
X125336190Y-127615904D02*
X125336190Y-126815904D01*
X125876190Y-126815904D02*
X125876190Y-127463523D01*
X125914285Y-127539714D01*
X125952380Y-127577809D01*
X126028571Y-127615904D01*
X126180952Y-127615904D01*
X126257142Y-127577809D01*
X126295238Y-127539714D01*
X126333333Y-127463523D01*
X126333333Y-126815904D01*
X126714285Y-127615904D02*
X126714285Y-126815904D01*
X126904761Y-126815904D01*
X127019047Y-126854000D01*
X127095238Y-126930190D01*
X127133333Y-127006380D01*
X127171428Y-127158761D01*
X127171428Y-127273047D01*
X127133333Y-127425428D01*
X127095238Y-127501619D01*
X127019047Y-127577809D01*
X126904761Y-127615904D01*
X126714285Y-127615904D01*
X127514285Y-127311142D02*
X128123809Y-127311142D01*
X127819047Y-127615904D02*
X127819047Y-127006380D01*
X108629523Y-127615904D02*
X108629523Y-126815904D01*
X108820000Y-126815904D01*
X108934285Y-126854000D01*
X109010476Y-126930190D01*
X109048571Y-127006380D01*
X109086666Y-127158761D01*
X109086666Y-127273047D01*
X109048571Y-127425428D01*
X109010476Y-127501619D01*
X108934285Y-127577809D01*
X108820000Y-127615904D01*
X108629523Y-127615904D01*
X109353333Y-126815904D02*
X109848571Y-126815904D01*
X109581904Y-127120666D01*
X109696190Y-127120666D01*
X109772380Y-127158761D01*
X109810476Y-127196857D01*
X109848571Y-127273047D01*
X109848571Y-127463523D01*
X109810476Y-127539714D01*
X109772380Y-127577809D01*
X109696190Y-127615904D01*
X109467619Y-127615904D01*
X109391428Y-127577809D01*
X109353333Y-127539714D01*
X120910476Y-126483000D02*
X121291428Y-126483000D01*
X121100952Y-127615904D02*
X121100952Y-126815904D01*
X121291428Y-126483000D02*
X122091428Y-126483000D01*
X121939047Y-127615904D02*
X121672380Y-127234952D01*
X121481904Y-127615904D02*
X121481904Y-126815904D01*
X121786666Y-126815904D01*
X121862857Y-126854000D01*
X121900952Y-126892095D01*
X121939047Y-126968285D01*
X121939047Y-127082571D01*
X121900952Y-127158761D01*
X121862857Y-127196857D01*
X121786666Y-127234952D01*
X121481904Y-127234952D01*
X122091428Y-126483000D02*
X122929523Y-126483000D01*
X122815238Y-127692095D02*
X122739047Y-127654000D01*
X122662857Y-127577809D01*
X122548571Y-127463523D01*
X122472380Y-127425428D01*
X122396190Y-127425428D01*
X122434285Y-127615904D02*
X122358095Y-127577809D01*
X122281904Y-127501619D01*
X122243809Y-127349238D01*
X122243809Y-127082571D01*
X122281904Y-126930190D01*
X122358095Y-126854000D01*
X122434285Y-126815904D01*
X122586666Y-126815904D01*
X122662857Y-126854000D01*
X122739047Y-126930190D01*
X122777142Y-127082571D01*
X122777142Y-127349238D01*
X122739047Y-127501619D01*
X122662857Y-127577809D01*
X122586666Y-127615904D01*
X122434285Y-127615904D01*
X106089523Y-116185904D02*
X106089523Y-115385904D01*
X106280000Y-115385904D01*
X106394285Y-115424000D01*
X106470476Y-115500190D01*
X106508571Y-115576380D01*
X106546666Y-115728761D01*
X106546666Y-115843047D01*
X106508571Y-115995428D01*
X106470476Y-116071619D01*
X106394285Y-116147809D01*
X106280000Y-116185904D01*
X106089523Y-116185904D01*
X106851428Y-115462095D02*
X106889523Y-115424000D01*
X106965714Y-115385904D01*
X107156190Y-115385904D01*
X107232380Y-115424000D01*
X107270476Y-115462095D01*
X107308571Y-115538285D01*
X107308571Y-115614476D01*
X107270476Y-115728761D01*
X106813333Y-116185904D01*
X107308571Y-116185904D01*
X118789523Y-116185904D02*
X118789523Y-115385904D01*
X118980000Y-115385904D01*
X119094285Y-115424000D01*
X119170476Y-115500190D01*
X119208571Y-115576380D01*
X119246666Y-115728761D01*
X119246666Y-115843047D01*
X119208571Y-115995428D01*
X119170476Y-116071619D01*
X119094285Y-116147809D01*
X118980000Y-116185904D01*
X118789523Y-116185904D01*
X119513333Y-115385904D02*
X120046666Y-115385904D01*
X119703809Y-116185904D01*
X101009523Y-116185904D02*
X101009523Y-115385904D01*
X101200000Y-115385904D01*
X101314285Y-115424000D01*
X101390476Y-115500190D01*
X101428571Y-115576380D01*
X101466666Y-115728761D01*
X101466666Y-115843047D01*
X101428571Y-115995428D01*
X101390476Y-116071619D01*
X101314285Y-116147809D01*
X101200000Y-116185904D01*
X101009523Y-116185904D01*
X101961904Y-115385904D02*
X102038095Y-115385904D01*
X102114285Y-115424000D01*
X102152380Y-115462095D01*
X102190476Y-115538285D01*
X102228571Y-115690666D01*
X102228571Y-115881142D01*
X102190476Y-116033523D01*
X102152380Y-116109714D01*
X102114285Y-116147809D01*
X102038095Y-116185904D01*
X101961904Y-116185904D01*
X101885714Y-116147809D01*
X101847619Y-116109714D01*
X101809523Y-116033523D01*
X101771428Y-115881142D01*
X101771428Y-115690666D01*
X101809523Y-115538285D01*
X101847619Y-115462095D01*
X101885714Y-115424000D01*
X101961904Y-115385904D01*
X103549523Y-116185904D02*
X103549523Y-115385904D01*
X103740000Y-115385904D01*
X103854285Y-115424000D01*
X103930476Y-115500190D01*
X103968571Y-115576380D01*
X104006666Y-115728761D01*
X104006666Y-115843047D01*
X103968571Y-115995428D01*
X103930476Y-116071619D01*
X103854285Y-116147809D01*
X103740000Y-116185904D01*
X103549523Y-116185904D01*
X104768571Y-116185904D02*
X104311428Y-116185904D01*
X104540000Y-116185904D02*
X104540000Y-115385904D01*
X104463809Y-115500190D01*
X104387619Y-115576380D01*
X104311428Y-115614476D01*
X116249523Y-116185904D02*
X116249523Y-115385904D01*
X116440000Y-115385904D01*
X116554285Y-115424000D01*
X116630476Y-115500190D01*
X116668571Y-115576380D01*
X116706666Y-115728761D01*
X116706666Y-115843047D01*
X116668571Y-115995428D01*
X116630476Y-116071619D01*
X116554285Y-116147809D01*
X116440000Y-116185904D01*
X116249523Y-116185904D01*
X117392380Y-115385904D02*
X117240000Y-115385904D01*
X117163809Y-115424000D01*
X117125714Y-115462095D01*
X117049523Y-115576380D01*
X117011428Y-115728761D01*
X117011428Y-116033523D01*
X117049523Y-116109714D01*
X117087619Y-116147809D01*
X117163809Y-116185904D01*
X117316190Y-116185904D01*
X117392380Y-116147809D01*
X117430476Y-116109714D01*
X117468571Y-116033523D01*
X117468571Y-115843047D01*
X117430476Y-115766857D01*
X117392380Y-115728761D01*
X117316190Y-115690666D01*
X117163809Y-115690666D01*
X117087619Y-115728761D01*
X117049523Y-115766857D01*
X117011428Y-115843047D01*
X113709523Y-116185904D02*
X113709523Y-115385904D01*
X113900000Y-115385904D01*
X114014285Y-115424000D01*
X114090476Y-115500190D01*
X114128571Y-115576380D01*
X114166666Y-115728761D01*
X114166666Y-115843047D01*
X114128571Y-115995428D01*
X114090476Y-116071619D01*
X114014285Y-116147809D01*
X113900000Y-116185904D01*
X113709523Y-116185904D01*
X114890476Y-115385904D02*
X114509523Y-115385904D01*
X114471428Y-115766857D01*
X114509523Y-115728761D01*
X114585714Y-115690666D01*
X114776190Y-115690666D01*
X114852380Y-115728761D01*
X114890476Y-115766857D01*
X114928571Y-115843047D01*
X114928571Y-116033523D01*
X114890476Y-116109714D01*
X114852380Y-116147809D01*
X114776190Y-116185904D01*
X114585714Y-116185904D01*
X114509523Y-116147809D01*
X114471428Y-116109714D01*
X134010476Y-115424000D02*
X133934285Y-115385904D01*
X133820000Y-115385904D01*
X133705714Y-115424000D01*
X133629523Y-115500190D01*
X133591428Y-115576380D01*
X133553333Y-115728761D01*
X133553333Y-115843047D01*
X133591428Y-115995428D01*
X133629523Y-116071619D01*
X133705714Y-116147809D01*
X133820000Y-116185904D01*
X133896190Y-116185904D01*
X134010476Y-116147809D01*
X134048571Y-116109714D01*
X134048571Y-115843047D01*
X133896190Y-115843047D01*
X134391428Y-116185904D02*
X134391428Y-115385904D01*
X134848571Y-116185904D01*
X134848571Y-115385904D01*
X135229523Y-116185904D02*
X135229523Y-115385904D01*
X135420000Y-115385904D01*
X135534285Y-115424000D01*
X135610476Y-115500190D01*
X135648571Y-115576380D01*
X135686666Y-115728761D01*
X135686666Y-115843047D01*
X135648571Y-115995428D01*
X135610476Y-116071619D01*
X135534285Y-116147809D01*
X135420000Y-116185904D01*
X135229523Y-116185904D01*
X131051428Y-115881142D02*
X131660952Y-115881142D01*
X131356190Y-116185904D02*
X131356190Y-115576380D01*
X132422857Y-115385904D02*
X132041904Y-115385904D01*
X132003809Y-115766857D01*
X132041904Y-115728761D01*
X132118095Y-115690666D01*
X132308571Y-115690666D01*
X132384761Y-115728761D01*
X132422857Y-115766857D01*
X132460952Y-115843047D01*
X132460952Y-116033523D01*
X132422857Y-116109714D01*
X132384761Y-116147809D01*
X132308571Y-116185904D01*
X132118095Y-116185904D01*
X132041904Y-116147809D01*
X132003809Y-116109714D01*
X132689523Y-115385904D02*
X132956190Y-116185904D01*
X133222857Y-115385904D01*
X95491428Y-115881142D02*
X96100952Y-115881142D01*
X95796190Y-116185904D02*
X95796190Y-115576380D01*
X96862857Y-115385904D02*
X96481904Y-115385904D01*
X96443809Y-115766857D01*
X96481904Y-115728761D01*
X96558095Y-115690666D01*
X96748571Y-115690666D01*
X96824761Y-115728761D01*
X96862857Y-115766857D01*
X96900952Y-115843047D01*
X96900952Y-116033523D01*
X96862857Y-116109714D01*
X96824761Y-116147809D01*
X96748571Y-116185904D01*
X96558095Y-116185904D01*
X96481904Y-116147809D01*
X96443809Y-116109714D01*
X97129523Y-115385904D02*
X97396190Y-116185904D01*
X97662857Y-115385904D01*
X128416190Y-115385904D02*
X128416190Y-116033523D01*
X128454285Y-116109714D01*
X128492380Y-116147809D01*
X128568571Y-116185904D01*
X128720952Y-116185904D01*
X128797142Y-116147809D01*
X128835238Y-116109714D01*
X128873333Y-116033523D01*
X128873333Y-115385904D01*
X129254285Y-116185904D02*
X129254285Y-115385904D01*
X129444761Y-115385904D01*
X129559047Y-115424000D01*
X129635238Y-115500190D01*
X129673333Y-115576380D01*
X129711428Y-115728761D01*
X129711428Y-115843047D01*
X129673333Y-115995428D01*
X129635238Y-116071619D01*
X129559047Y-116147809D01*
X129444761Y-116185904D01*
X129254285Y-116185904D01*
X130054285Y-115881142D02*
X130663809Y-115881142D01*
X111169523Y-116185904D02*
X111169523Y-115385904D01*
X111360000Y-115385904D01*
X111474285Y-115424000D01*
X111550476Y-115500190D01*
X111588571Y-115576380D01*
X111626666Y-115728761D01*
X111626666Y-115843047D01*
X111588571Y-115995428D01*
X111550476Y-116071619D01*
X111474285Y-116147809D01*
X111360000Y-116185904D01*
X111169523Y-116185904D01*
X112312380Y-115652571D02*
X112312380Y-116185904D01*
X112121904Y-115347809D02*
X111931428Y-115919238D01*
X112426666Y-115919238D01*
X98450476Y-115424000D02*
X98374285Y-115385904D01*
X98260000Y-115385904D01*
X98145714Y-115424000D01*
X98069523Y-115500190D01*
X98031428Y-115576380D01*
X97993333Y-115728761D01*
X97993333Y-115843047D01*
X98031428Y-115995428D01*
X98069523Y-116071619D01*
X98145714Y-116147809D01*
X98260000Y-116185904D01*
X98336190Y-116185904D01*
X98450476Y-116147809D01*
X98488571Y-116109714D01*
X98488571Y-115843047D01*
X98336190Y-115843047D01*
X98831428Y-116185904D02*
X98831428Y-115385904D01*
X99288571Y-116185904D01*
X99288571Y-115385904D01*
X99669523Y-116185904D02*
X99669523Y-115385904D01*
X99860000Y-115385904D01*
X99974285Y-115424000D01*
X100050476Y-115500190D01*
X100088571Y-115576380D01*
X100126666Y-115728761D01*
X100126666Y-115843047D01*
X100088571Y-115995428D01*
X100050476Y-116071619D01*
X99974285Y-116147809D01*
X99860000Y-116185904D01*
X99669523Y-116185904D01*
X123393333Y-115053000D02*
X124231428Y-115053000D01*
X123583809Y-116185904D02*
X123583809Y-115385904D01*
X124040952Y-116185904D01*
X124040952Y-115385904D01*
X124231428Y-115053000D02*
X125145714Y-115053000D01*
X124421904Y-116185904D02*
X124421904Y-115385904D01*
X124688571Y-115957333D01*
X124955238Y-115385904D01*
X124955238Y-116185904D01*
X125145714Y-115053000D02*
X125526666Y-115053000D01*
X125336190Y-116185904D02*
X125336190Y-115385904D01*
X125876190Y-115385904D02*
X125876190Y-116033523D01*
X125914285Y-116109714D01*
X125952380Y-116147809D01*
X126028571Y-116185904D01*
X126180952Y-116185904D01*
X126257142Y-116147809D01*
X126295238Y-116109714D01*
X126333333Y-116033523D01*
X126333333Y-115385904D01*
X126714285Y-116185904D02*
X126714285Y-115385904D01*
X126904761Y-115385904D01*
X127019047Y-115424000D01*
X127095238Y-115500190D01*
X127133333Y-115576380D01*
X127171428Y-115728761D01*
X127171428Y-115843047D01*
X127133333Y-115995428D01*
X127095238Y-116071619D01*
X127019047Y-116147809D01*
X126904761Y-116185904D01*
X126714285Y-116185904D01*
X127514285Y-115881142D02*
X128123809Y-115881142D01*
X127819047Y-116185904D02*
X127819047Y-115576380D01*
X108629523Y-116185904D02*
X108629523Y-115385904D01*
X108820000Y-115385904D01*
X108934285Y-115424000D01*
X109010476Y-115500190D01*
X109048571Y-115576380D01*
X109086666Y-115728761D01*
X109086666Y-115843047D01*
X109048571Y-115995428D01*
X109010476Y-116071619D01*
X108934285Y-116147809D01*
X108820000Y-116185904D01*
X108629523Y-116185904D01*
X109353333Y-115385904D02*
X109848571Y-115385904D01*
X109581904Y-115690666D01*
X109696190Y-115690666D01*
X109772380Y-115728761D01*
X109810476Y-115766857D01*
X109848571Y-115843047D01*
X109848571Y-116033523D01*
X109810476Y-116109714D01*
X109772380Y-116147809D01*
X109696190Y-116185904D01*
X109467619Y-116185904D01*
X109391428Y-116147809D01*
X109353333Y-116109714D01*
X120910476Y-115053000D02*
X121291428Y-115053000D01*
X121100952Y-116185904D02*
X121100952Y-115385904D01*
X121291428Y-115053000D02*
X122091428Y-115053000D01*
X121939047Y-116185904D02*
X121672380Y-115804952D01*
X121481904Y-116185904D02*
X121481904Y-115385904D01*
X121786666Y-115385904D01*
X121862857Y-115424000D01*
X121900952Y-115462095D01*
X121939047Y-115538285D01*
X121939047Y-115652571D01*
X121900952Y-115728761D01*
X121862857Y-115766857D01*
X121786666Y-115804952D01*
X121481904Y-115804952D01*
X122091428Y-115053000D02*
X122929523Y-115053000D01*
X122815238Y-116262095D02*
X122739047Y-116224000D01*
X122662857Y-116147809D01*
X122548571Y-116033523D01*
X122472380Y-115995428D01*
X122396190Y-115995428D01*
X122434285Y-116185904D02*
X122358095Y-116147809D01*
X122281904Y-116071619D01*
X122243809Y-115919238D01*
X122243809Y-115652571D01*
X122281904Y-115500190D01*
X122358095Y-115424000D01*
X122434285Y-115385904D01*
X122586666Y-115385904D01*
X122662857Y-115424000D01*
X122739047Y-115500190D01*
X122777142Y-115652571D01*
X122777142Y-115919238D01*
X122739047Y-116071619D01*
X122662857Y-116147809D01*
X122586666Y-116185904D01*
X122434285Y-116185904D01*
X134010476Y-130410000D02*
X133934285Y-130371904D01*
X133820000Y-130371904D01*
X133705714Y-130410000D01*
X133629523Y-130486190D01*
X133591428Y-130562380D01*
X133553333Y-130714761D01*
X133553333Y-130829047D01*
X133591428Y-130981428D01*
X133629523Y-131057619D01*
X133705714Y-131133809D01*
X133820000Y-131171904D01*
X133896190Y-131171904D01*
X134010476Y-131133809D01*
X134048571Y-131095714D01*
X134048571Y-130829047D01*
X133896190Y-130829047D01*
X134391428Y-131171904D02*
X134391428Y-130371904D01*
X134848571Y-131171904D01*
X134848571Y-130371904D01*
X135229523Y-131171904D02*
X135229523Y-130371904D01*
X135420000Y-130371904D01*
X135534285Y-130410000D01*
X135610476Y-130486190D01*
X135648571Y-130562380D01*
X135686666Y-130714761D01*
X135686666Y-130829047D01*
X135648571Y-130981428D01*
X135610476Y-131057619D01*
X135534285Y-131133809D01*
X135420000Y-131171904D01*
X135229523Y-131171904D01*
X123317142Y-130039000D02*
X124117142Y-130039000D01*
X123964761Y-131171904D02*
X123698095Y-130790952D01*
X123507619Y-131171904D02*
X123507619Y-130371904D01*
X123812380Y-130371904D01*
X123888571Y-130410000D01*
X123926666Y-130448095D01*
X123964761Y-130524285D01*
X123964761Y-130638571D01*
X123926666Y-130714761D01*
X123888571Y-130752857D01*
X123812380Y-130790952D01*
X123507619Y-130790952D01*
X124117142Y-130039000D02*
X124840952Y-130039000D01*
X124307619Y-130752857D02*
X124574285Y-130752857D01*
X124688571Y-131171904D02*
X124307619Y-131171904D01*
X124307619Y-130371904D01*
X124688571Y-130371904D01*
X124840952Y-130039000D02*
X125602857Y-130039000D01*
X124993333Y-131133809D02*
X125107619Y-131171904D01*
X125298095Y-131171904D01*
X125374285Y-131133809D01*
X125412380Y-131095714D01*
X125450476Y-131019523D01*
X125450476Y-130943333D01*
X125412380Y-130867142D01*
X125374285Y-130829047D01*
X125298095Y-130790952D01*
X125145714Y-130752857D01*
X125069523Y-130714761D01*
X125031428Y-130676666D01*
X124993333Y-130600476D01*
X124993333Y-130524285D01*
X125031428Y-130448095D01*
X125069523Y-130410000D01*
X125145714Y-130371904D01*
X125336190Y-130371904D01*
X125450476Y-130410000D01*
X131051428Y-130867142D02*
X131660952Y-130867142D01*
X131356190Y-131171904D02*
X131356190Y-130562380D01*
X132422857Y-130371904D02*
X132041904Y-130371904D01*
X132003809Y-130752857D01*
X132041904Y-130714761D01*
X132118095Y-130676666D01*
X132308571Y-130676666D01*
X132384761Y-130714761D01*
X132422857Y-130752857D01*
X132460952Y-130829047D01*
X132460952Y-131019523D01*
X132422857Y-131095714D01*
X132384761Y-131133809D01*
X132308571Y-131171904D01*
X132118095Y-131171904D01*
X132041904Y-131133809D01*
X132003809Y-131095714D01*
X132689523Y-130371904D02*
X132956190Y-131171904D01*
X133222857Y-130371904D01*
X119170476Y-131171904D02*
X118903809Y-130790952D01*
X118713333Y-131171904D02*
X118713333Y-130371904D01*
X119018095Y-130371904D01*
X119094285Y-130410000D01*
X119132380Y-130448095D01*
X119170476Y-130524285D01*
X119170476Y-130638571D01*
X119132380Y-130714761D01*
X119094285Y-130752857D01*
X119018095Y-130790952D01*
X118713333Y-130790952D01*
X119322857Y-130039000D02*
X120237142Y-130039000D01*
X119437142Y-130371904D02*
X119627619Y-131171904D01*
X119780000Y-130600476D01*
X119932380Y-131171904D01*
X120122857Y-130371904D01*
X101028571Y-130943333D02*
X101409523Y-130943333D01*
X100952380Y-131171904D02*
X101219047Y-130371904D01*
X101485714Y-131171904D01*
X101904761Y-130371904D02*
X101980952Y-130371904D01*
X102057142Y-130410000D01*
X102095238Y-130448095D01*
X102133333Y-130524285D01*
X102171428Y-130676666D01*
X102171428Y-130867142D01*
X102133333Y-131019523D01*
X102095238Y-131095714D01*
X102057142Y-131133809D01*
X101980952Y-131171904D01*
X101904761Y-131171904D01*
X101828571Y-131133809D01*
X101790476Y-131095714D01*
X101752380Y-131019523D01*
X101714285Y-130867142D01*
X101714285Y-130676666D01*
X101752380Y-130524285D01*
X101790476Y-130448095D01*
X101828571Y-130410000D01*
X101904761Y-130371904D01*
X98450476Y-130410000D02*
X98374285Y-130371904D01*
X98260000Y-130371904D01*
X98145714Y-130410000D01*
X98069523Y-130486190D01*
X98031428Y-130562380D01*
X97993333Y-130714761D01*
X97993333Y-130829047D01*
X98031428Y-130981428D01*
X98069523Y-131057619D01*
X98145714Y-131133809D01*
X98260000Y-131171904D01*
X98336190Y-131171904D01*
X98450476Y-131133809D01*
X98488571Y-131095714D01*
X98488571Y-130829047D01*
X98336190Y-130829047D01*
X98831428Y-131171904D02*
X98831428Y-130371904D01*
X99288571Y-131171904D01*
X99288571Y-130371904D01*
X99669523Y-131171904D02*
X99669523Y-130371904D01*
X99860000Y-130371904D01*
X99974285Y-130410000D01*
X100050476Y-130486190D01*
X100088571Y-130562380D01*
X100126666Y-130714761D01*
X100126666Y-130829047D01*
X100088571Y-130981428D01*
X100050476Y-131057619D01*
X99974285Y-131133809D01*
X99860000Y-131171904D01*
X99669523Y-131171904D01*
X106108571Y-130943333D02*
X106489523Y-130943333D01*
X106032380Y-131171904D02*
X106299047Y-130371904D01*
X106565714Y-131171904D01*
X106794285Y-130448095D02*
X106832380Y-130410000D01*
X106908571Y-130371904D01*
X107099047Y-130371904D01*
X107175238Y-130410000D01*
X107213333Y-130448095D01*
X107251428Y-130524285D01*
X107251428Y-130600476D01*
X107213333Y-130714761D01*
X106756190Y-131171904D01*
X107251428Y-131171904D01*
X94983428Y-130867142D02*
X95592952Y-130867142D01*
X95288190Y-131171904D02*
X95288190Y-130562380D01*
X96354857Y-130371904D02*
X95973904Y-130371904D01*
X95935809Y-130752857D01*
X95973904Y-130714761D01*
X96050095Y-130676666D01*
X96240571Y-130676666D01*
X96316761Y-130714761D01*
X96354857Y-130752857D01*
X96392952Y-130829047D01*
X96392952Y-131019523D01*
X96354857Y-131095714D01*
X96316761Y-131133809D01*
X96240571Y-131171904D01*
X96050095Y-131171904D01*
X95973904Y-131133809D01*
X95935809Y-131095714D01*
X96621523Y-130371904D02*
X96888190Y-131171904D01*
X97154857Y-130371904D01*
X103568571Y-130943333D02*
X103949523Y-130943333D01*
X103492380Y-131171904D02*
X103759047Y-130371904D01*
X104025714Y-131171904D01*
X104711428Y-131171904D02*
X104254285Y-131171904D01*
X104482857Y-131171904D02*
X104482857Y-130371904D01*
X104406666Y-130486190D01*
X104330476Y-130562380D01*
X104254285Y-130600476D01*
X129273333Y-130752857D02*
X129006666Y-130752857D01*
X129006666Y-131171904D02*
X129006666Y-130371904D01*
X129387619Y-130371904D01*
X130111428Y-131171904D02*
X129654285Y-131171904D01*
X129882857Y-131171904D02*
X129882857Y-130371904D01*
X129806666Y-130486190D01*
X129730476Y-130562380D01*
X129654285Y-130600476D01*
X121443809Y-131095714D02*
X121405714Y-131133809D01*
X121291428Y-131171904D01*
X121215238Y-131171904D01*
X121100952Y-131133809D01*
X121024761Y-131057619D01*
X120986666Y-130981428D01*
X120948571Y-130829047D01*
X120948571Y-130714761D01*
X120986666Y-130562380D01*
X121024761Y-130486190D01*
X121100952Y-130410000D01*
X121215238Y-130371904D01*
X121291428Y-130371904D01*
X121405714Y-130410000D01*
X121443809Y-130448095D01*
X122167619Y-131171904D02*
X121786666Y-131171904D01*
X121786666Y-130371904D01*
X122434285Y-131171904D02*
X122434285Y-130371904D01*
X122891428Y-131171904D02*
X122548571Y-130714761D01*
X122891428Y-130371904D02*
X122434285Y-130829047D01*
X126733333Y-130752857D02*
X126466666Y-130752857D01*
X126466666Y-131171904D02*
X126466666Y-130371904D01*
X126847619Y-130371904D01*
X127304761Y-130371904D02*
X127380952Y-130371904D01*
X127457142Y-130410000D01*
X127495238Y-130448095D01*
X127533333Y-130524285D01*
X127571428Y-130676666D01*
X127571428Y-130867142D01*
X127533333Y-131019523D01*
X127495238Y-131095714D01*
X127457142Y-131133809D01*
X127380952Y-131171904D01*
X127304761Y-131171904D01*
X127228571Y-131133809D01*
X127190476Y-131095714D01*
X127152380Y-131019523D01*
X127114285Y-130867142D01*
X127114285Y-130676666D01*
X127152380Y-130524285D01*
X127190476Y-130448095D01*
X127228571Y-130410000D01*
X127304761Y-130371904D01*
X108648571Y-130943333D02*
X109029523Y-130943333D01*
X108572380Y-131171904D02*
X108839047Y-130371904D01*
X109105714Y-131171904D01*
X109296190Y-130371904D02*
X109791428Y-130371904D01*
X109524761Y-130676666D01*
X109639047Y-130676666D01*
X109715238Y-130714761D01*
X109753333Y-130752857D01*
X109791428Y-130829047D01*
X109791428Y-131019523D01*
X109753333Y-131095714D01*
X109715238Y-131133809D01*
X109639047Y-131171904D01*
X109410476Y-131171904D01*
X109334285Y-131133809D01*
X109296190Y-131095714D01*
X116059047Y-130039000D02*
X116859047Y-130039000D01*
X116706666Y-131095714D02*
X116668571Y-131133809D01*
X116554285Y-131171904D01*
X116478095Y-131171904D01*
X116363809Y-131133809D01*
X116287619Y-131057619D01*
X116249523Y-130981428D01*
X116211428Y-130829047D01*
X116211428Y-130714761D01*
X116249523Y-130562380D01*
X116287619Y-130486190D01*
X116363809Y-130410000D01*
X116478095Y-130371904D01*
X116554285Y-130371904D01*
X116668571Y-130410000D01*
X116706666Y-130448095D01*
X116859047Y-130039000D02*
X117620952Y-130039000D01*
X117011428Y-131133809D02*
X117125714Y-131171904D01*
X117316190Y-131171904D01*
X117392380Y-131133809D01*
X117430476Y-131095714D01*
X117468571Y-131019523D01*
X117468571Y-130943333D01*
X117430476Y-130867142D01*
X117392380Y-130829047D01*
X117316190Y-130790952D01*
X117163809Y-130752857D01*
X117087619Y-130714761D01*
X117049523Y-130676666D01*
X117011428Y-130600476D01*
X117011428Y-130524285D01*
X117049523Y-130448095D01*
X117087619Y-130410000D01*
X117163809Y-130371904D01*
X117354285Y-130371904D01*
X117468571Y-130410000D01*
X113728571Y-130943333D02*
X114109523Y-130943333D01*
X113652380Y-131171904D02*
X113919047Y-130371904D01*
X114185714Y-131171904D01*
X114833333Y-130371904D02*
X114452380Y-130371904D01*
X114414285Y-130752857D01*
X114452380Y-130714761D01*
X114528571Y-130676666D01*
X114719047Y-130676666D01*
X114795238Y-130714761D01*
X114833333Y-130752857D01*
X114871428Y-130829047D01*
X114871428Y-131019523D01*
X114833333Y-131095714D01*
X114795238Y-131133809D01*
X114719047Y-131171904D01*
X114528571Y-131171904D01*
X114452380Y-131133809D01*
X114414285Y-131095714D01*
X111188571Y-130943333D02*
X111569523Y-130943333D01*
X111112380Y-131171904D02*
X111379047Y-130371904D01*
X111645714Y-131171904D01*
X112255238Y-130638571D02*
X112255238Y-131171904D01*
X112064761Y-130333809D02*
X111874285Y-130905238D01*
X112369523Y-130905238D01*
X134010476Y-118980000D02*
X133934285Y-118941904D01*
X133820000Y-118941904D01*
X133705714Y-118980000D01*
X133629523Y-119056190D01*
X133591428Y-119132380D01*
X133553333Y-119284761D01*
X133553333Y-119399047D01*
X133591428Y-119551428D01*
X133629523Y-119627619D01*
X133705714Y-119703809D01*
X133820000Y-119741904D01*
X133896190Y-119741904D01*
X134010476Y-119703809D01*
X134048571Y-119665714D01*
X134048571Y-119399047D01*
X133896190Y-119399047D01*
X134391428Y-119741904D02*
X134391428Y-118941904D01*
X134848571Y-119741904D01*
X134848571Y-118941904D01*
X135229523Y-119741904D02*
X135229523Y-118941904D01*
X135420000Y-118941904D01*
X135534285Y-118980000D01*
X135610476Y-119056190D01*
X135648571Y-119132380D01*
X135686666Y-119284761D01*
X135686666Y-119399047D01*
X135648571Y-119551428D01*
X135610476Y-119627619D01*
X135534285Y-119703809D01*
X135420000Y-119741904D01*
X135229523Y-119741904D01*
X123317142Y-118609000D02*
X124117142Y-118609000D01*
X123964761Y-119741904D02*
X123698095Y-119360952D01*
X123507619Y-119741904D02*
X123507619Y-118941904D01*
X123812380Y-118941904D01*
X123888571Y-118980000D01*
X123926666Y-119018095D01*
X123964761Y-119094285D01*
X123964761Y-119208571D01*
X123926666Y-119284761D01*
X123888571Y-119322857D01*
X123812380Y-119360952D01*
X123507619Y-119360952D01*
X124117142Y-118609000D02*
X124840952Y-118609000D01*
X124307619Y-119322857D02*
X124574285Y-119322857D01*
X124688571Y-119741904D02*
X124307619Y-119741904D01*
X124307619Y-118941904D01*
X124688571Y-118941904D01*
X124840952Y-118609000D02*
X125602857Y-118609000D01*
X124993333Y-119703809D02*
X125107619Y-119741904D01*
X125298095Y-119741904D01*
X125374285Y-119703809D01*
X125412380Y-119665714D01*
X125450476Y-119589523D01*
X125450476Y-119513333D01*
X125412380Y-119437142D01*
X125374285Y-119399047D01*
X125298095Y-119360952D01*
X125145714Y-119322857D01*
X125069523Y-119284761D01*
X125031428Y-119246666D01*
X124993333Y-119170476D01*
X124993333Y-119094285D01*
X125031428Y-119018095D01*
X125069523Y-118980000D01*
X125145714Y-118941904D01*
X125336190Y-118941904D01*
X125450476Y-118980000D01*
X131051428Y-119437142D02*
X131660952Y-119437142D01*
X131356190Y-119741904D02*
X131356190Y-119132380D01*
X132422857Y-118941904D02*
X132041904Y-118941904D01*
X132003809Y-119322857D01*
X132041904Y-119284761D01*
X132118095Y-119246666D01*
X132308571Y-119246666D01*
X132384761Y-119284761D01*
X132422857Y-119322857D01*
X132460952Y-119399047D01*
X132460952Y-119589523D01*
X132422857Y-119665714D01*
X132384761Y-119703809D01*
X132308571Y-119741904D01*
X132118095Y-119741904D01*
X132041904Y-119703809D01*
X132003809Y-119665714D01*
X132689523Y-118941904D02*
X132956190Y-119741904D01*
X133222857Y-118941904D01*
X119170476Y-119741904D02*
X118903809Y-119360952D01*
X118713333Y-119741904D02*
X118713333Y-118941904D01*
X119018095Y-118941904D01*
X119094285Y-118980000D01*
X119132380Y-119018095D01*
X119170476Y-119094285D01*
X119170476Y-119208571D01*
X119132380Y-119284761D01*
X119094285Y-119322857D01*
X119018095Y-119360952D01*
X118713333Y-119360952D01*
X119322857Y-118609000D02*
X120237142Y-118609000D01*
X119437142Y-118941904D02*
X119627619Y-119741904D01*
X119780000Y-119170476D01*
X119932380Y-119741904D01*
X120122857Y-118941904D01*
X101028571Y-119513333D02*
X101409523Y-119513333D01*
X100952380Y-119741904D02*
X101219047Y-118941904D01*
X101485714Y-119741904D01*
X101904761Y-118941904D02*
X101980952Y-118941904D01*
X102057142Y-118980000D01*
X102095238Y-119018095D01*
X102133333Y-119094285D01*
X102171428Y-119246666D01*
X102171428Y-119437142D01*
X102133333Y-119589523D01*
X102095238Y-119665714D01*
X102057142Y-119703809D01*
X101980952Y-119741904D01*
X101904761Y-119741904D01*
X101828571Y-119703809D01*
X101790476Y-119665714D01*
X101752380Y-119589523D01*
X101714285Y-119437142D01*
X101714285Y-119246666D01*
X101752380Y-119094285D01*
X101790476Y-119018095D01*
X101828571Y-118980000D01*
X101904761Y-118941904D01*
X98450476Y-118980000D02*
X98374285Y-118941904D01*
X98260000Y-118941904D01*
X98145714Y-118980000D01*
X98069523Y-119056190D01*
X98031428Y-119132380D01*
X97993333Y-119284761D01*
X97993333Y-119399047D01*
X98031428Y-119551428D01*
X98069523Y-119627619D01*
X98145714Y-119703809D01*
X98260000Y-119741904D01*
X98336190Y-119741904D01*
X98450476Y-119703809D01*
X98488571Y-119665714D01*
X98488571Y-119399047D01*
X98336190Y-119399047D01*
X98831428Y-119741904D02*
X98831428Y-118941904D01*
X99288571Y-119741904D01*
X99288571Y-118941904D01*
X99669523Y-119741904D02*
X99669523Y-118941904D01*
X99860000Y-118941904D01*
X99974285Y-118980000D01*
X100050476Y-119056190D01*
X100088571Y-119132380D01*
X100126666Y-119284761D01*
X100126666Y-119399047D01*
X100088571Y-119551428D01*
X100050476Y-119627619D01*
X99974285Y-119703809D01*
X99860000Y-119741904D01*
X99669523Y-119741904D01*
X106108571Y-119513333D02*
X106489523Y-119513333D01*
X106032380Y-119741904D02*
X106299047Y-118941904D01*
X106565714Y-119741904D01*
X106794285Y-119018095D02*
X106832380Y-118980000D01*
X106908571Y-118941904D01*
X107099047Y-118941904D01*
X107175238Y-118980000D01*
X107213333Y-119018095D01*
X107251428Y-119094285D01*
X107251428Y-119170476D01*
X107213333Y-119284761D01*
X106756190Y-119741904D01*
X107251428Y-119741904D01*
X94983428Y-119437142D02*
X95592952Y-119437142D01*
X95288190Y-119741904D02*
X95288190Y-119132380D01*
X96354857Y-118941904D02*
X95973904Y-118941904D01*
X95935809Y-119322857D01*
X95973904Y-119284761D01*
X96050095Y-119246666D01*
X96240571Y-119246666D01*
X96316761Y-119284761D01*
X96354857Y-119322857D01*
X96392952Y-119399047D01*
X96392952Y-119589523D01*
X96354857Y-119665714D01*
X96316761Y-119703809D01*
X96240571Y-119741904D01*
X96050095Y-119741904D01*
X95973904Y-119703809D01*
X95935809Y-119665714D01*
X96621523Y-118941904D02*
X96888190Y-119741904D01*
X97154857Y-118941904D01*
X103568571Y-119513333D02*
X103949523Y-119513333D01*
X103492380Y-119741904D02*
X103759047Y-118941904D01*
X104025714Y-119741904D01*
X104711428Y-119741904D02*
X104254285Y-119741904D01*
X104482857Y-119741904D02*
X104482857Y-118941904D01*
X104406666Y-119056190D01*
X104330476Y-119132380D01*
X104254285Y-119170476D01*
X129273333Y-119322857D02*
X129006666Y-119322857D01*
X129006666Y-119741904D02*
X129006666Y-118941904D01*
X129387619Y-118941904D01*
X130111428Y-119741904D02*
X129654285Y-119741904D01*
X129882857Y-119741904D02*
X129882857Y-118941904D01*
X129806666Y-119056190D01*
X129730476Y-119132380D01*
X129654285Y-119170476D01*
X121443809Y-119665714D02*
X121405714Y-119703809D01*
X121291428Y-119741904D01*
X121215238Y-119741904D01*
X121100952Y-119703809D01*
X121024761Y-119627619D01*
X120986666Y-119551428D01*
X120948571Y-119399047D01*
X120948571Y-119284761D01*
X120986666Y-119132380D01*
X121024761Y-119056190D01*
X121100952Y-118980000D01*
X121215238Y-118941904D01*
X121291428Y-118941904D01*
X121405714Y-118980000D01*
X121443809Y-119018095D01*
X122167619Y-119741904D02*
X121786666Y-119741904D01*
X121786666Y-118941904D01*
X122434285Y-119741904D02*
X122434285Y-118941904D01*
X122891428Y-119741904D02*
X122548571Y-119284761D01*
X122891428Y-118941904D02*
X122434285Y-119399047D01*
X126733333Y-119322857D02*
X126466666Y-119322857D01*
X126466666Y-119741904D02*
X126466666Y-118941904D01*
X126847619Y-118941904D01*
X127304761Y-118941904D02*
X127380952Y-118941904D01*
X127457142Y-118980000D01*
X127495238Y-119018095D01*
X127533333Y-119094285D01*
X127571428Y-119246666D01*
X127571428Y-119437142D01*
X127533333Y-119589523D01*
X127495238Y-119665714D01*
X127457142Y-119703809D01*
X127380952Y-119741904D01*
X127304761Y-119741904D01*
X127228571Y-119703809D01*
X127190476Y-119665714D01*
X127152380Y-119589523D01*
X127114285Y-119437142D01*
X127114285Y-119246666D01*
X127152380Y-119094285D01*
X127190476Y-119018095D01*
X127228571Y-118980000D01*
X127304761Y-118941904D01*
X108648571Y-119513333D02*
X109029523Y-119513333D01*
X108572380Y-119741904D02*
X108839047Y-118941904D01*
X109105714Y-119741904D01*
X109296190Y-118941904D02*
X109791428Y-118941904D01*
X109524761Y-119246666D01*
X109639047Y-119246666D01*
X109715238Y-119284761D01*
X109753333Y-119322857D01*
X109791428Y-119399047D01*
X109791428Y-119589523D01*
X109753333Y-119665714D01*
X109715238Y-119703809D01*
X109639047Y-119741904D01*
X109410476Y-119741904D01*
X109334285Y-119703809D01*
X109296190Y-119665714D01*
X116059047Y-118609000D02*
X116859047Y-118609000D01*
X116706666Y-119665714D02*
X116668571Y-119703809D01*
X116554285Y-119741904D01*
X116478095Y-119741904D01*
X116363809Y-119703809D01*
X116287619Y-119627619D01*
X116249523Y-119551428D01*
X116211428Y-119399047D01*
X116211428Y-119284761D01*
X116249523Y-119132380D01*
X116287619Y-119056190D01*
X116363809Y-118980000D01*
X116478095Y-118941904D01*
X116554285Y-118941904D01*
X116668571Y-118980000D01*
X116706666Y-119018095D01*
X116859047Y-118609000D02*
X117620952Y-118609000D01*
X117011428Y-119703809D02*
X117125714Y-119741904D01*
X117316190Y-119741904D01*
X117392380Y-119703809D01*
X117430476Y-119665714D01*
X117468571Y-119589523D01*
X117468571Y-119513333D01*
X117430476Y-119437142D01*
X117392380Y-119399047D01*
X117316190Y-119360952D01*
X117163809Y-119322857D01*
X117087619Y-119284761D01*
X117049523Y-119246666D01*
X117011428Y-119170476D01*
X117011428Y-119094285D01*
X117049523Y-119018095D01*
X117087619Y-118980000D01*
X117163809Y-118941904D01*
X117354285Y-118941904D01*
X117468571Y-118980000D01*
X113728571Y-119513333D02*
X114109523Y-119513333D01*
X113652380Y-119741904D02*
X113919047Y-118941904D01*
X114185714Y-119741904D01*
X114833333Y-118941904D02*
X114452380Y-118941904D01*
X114414285Y-119322857D01*
X114452380Y-119284761D01*
X114528571Y-119246666D01*
X114719047Y-119246666D01*
X114795238Y-119284761D01*
X114833333Y-119322857D01*
X114871428Y-119399047D01*
X114871428Y-119589523D01*
X114833333Y-119665714D01*
X114795238Y-119703809D01*
X114719047Y-119741904D01*
X114528571Y-119741904D01*
X114452380Y-119703809D01*
X114414285Y-119665714D01*
X111188571Y-119513333D02*
X111569523Y-119513333D01*
X111112380Y-119741904D02*
X111379047Y-118941904D01*
X111645714Y-119741904D01*
X112255238Y-119208571D02*
X112255238Y-119741904D01*
X112064761Y-118903809D02*
X111874285Y-119475238D01*
X112369523Y-119475238D01*
X134010476Y-107550000D02*
X133934285Y-107511904D01*
X133820000Y-107511904D01*
X133705714Y-107550000D01*
X133629523Y-107626190D01*
X133591428Y-107702380D01*
X133553333Y-107854761D01*
X133553333Y-107969047D01*
X133591428Y-108121428D01*
X133629523Y-108197619D01*
X133705714Y-108273809D01*
X133820000Y-108311904D01*
X133896190Y-108311904D01*
X134010476Y-108273809D01*
X134048571Y-108235714D01*
X134048571Y-107969047D01*
X133896190Y-107969047D01*
X134391428Y-108311904D02*
X134391428Y-107511904D01*
X134848571Y-108311904D01*
X134848571Y-107511904D01*
X135229523Y-108311904D02*
X135229523Y-107511904D01*
X135420000Y-107511904D01*
X135534285Y-107550000D01*
X135610476Y-107626190D01*
X135648571Y-107702380D01*
X135686666Y-107854761D01*
X135686666Y-107969047D01*
X135648571Y-108121428D01*
X135610476Y-108197619D01*
X135534285Y-108273809D01*
X135420000Y-108311904D01*
X135229523Y-108311904D01*
X123317142Y-107179000D02*
X124117142Y-107179000D01*
X123964761Y-108311904D02*
X123698095Y-107930952D01*
X123507619Y-108311904D02*
X123507619Y-107511904D01*
X123812380Y-107511904D01*
X123888571Y-107550000D01*
X123926666Y-107588095D01*
X123964761Y-107664285D01*
X123964761Y-107778571D01*
X123926666Y-107854761D01*
X123888571Y-107892857D01*
X123812380Y-107930952D01*
X123507619Y-107930952D01*
X124117142Y-107179000D02*
X124840952Y-107179000D01*
X124307619Y-107892857D02*
X124574285Y-107892857D01*
X124688571Y-108311904D02*
X124307619Y-108311904D01*
X124307619Y-107511904D01*
X124688571Y-107511904D01*
X124840952Y-107179000D02*
X125602857Y-107179000D01*
X124993333Y-108273809D02*
X125107619Y-108311904D01*
X125298095Y-108311904D01*
X125374285Y-108273809D01*
X125412380Y-108235714D01*
X125450476Y-108159523D01*
X125450476Y-108083333D01*
X125412380Y-108007142D01*
X125374285Y-107969047D01*
X125298095Y-107930952D01*
X125145714Y-107892857D01*
X125069523Y-107854761D01*
X125031428Y-107816666D01*
X124993333Y-107740476D01*
X124993333Y-107664285D01*
X125031428Y-107588095D01*
X125069523Y-107550000D01*
X125145714Y-107511904D01*
X125336190Y-107511904D01*
X125450476Y-107550000D01*
X131051428Y-108007142D02*
X131660952Y-108007142D01*
X131356190Y-108311904D02*
X131356190Y-107702380D01*
X132422857Y-107511904D02*
X132041904Y-107511904D01*
X132003809Y-107892857D01*
X132041904Y-107854761D01*
X132118095Y-107816666D01*
X132308571Y-107816666D01*
X132384761Y-107854761D01*
X132422857Y-107892857D01*
X132460952Y-107969047D01*
X132460952Y-108159523D01*
X132422857Y-108235714D01*
X132384761Y-108273809D01*
X132308571Y-108311904D01*
X132118095Y-108311904D01*
X132041904Y-108273809D01*
X132003809Y-108235714D01*
X132689523Y-107511904D02*
X132956190Y-108311904D01*
X133222857Y-107511904D01*
X119170476Y-108311904D02*
X118903809Y-107930952D01*
X118713333Y-108311904D02*
X118713333Y-107511904D01*
X119018095Y-107511904D01*
X119094285Y-107550000D01*
X119132380Y-107588095D01*
X119170476Y-107664285D01*
X119170476Y-107778571D01*
X119132380Y-107854761D01*
X119094285Y-107892857D01*
X119018095Y-107930952D01*
X118713333Y-107930952D01*
X119322857Y-107179000D02*
X120237142Y-107179000D01*
X119437142Y-107511904D02*
X119627619Y-108311904D01*
X119780000Y-107740476D01*
X119932380Y-108311904D01*
X120122857Y-107511904D01*
X101028571Y-108083333D02*
X101409523Y-108083333D01*
X100952380Y-108311904D02*
X101219047Y-107511904D01*
X101485714Y-108311904D01*
X101904761Y-107511904D02*
X101980952Y-107511904D01*
X102057142Y-107550000D01*
X102095238Y-107588095D01*
X102133333Y-107664285D01*
X102171428Y-107816666D01*
X102171428Y-108007142D01*
X102133333Y-108159523D01*
X102095238Y-108235714D01*
X102057142Y-108273809D01*
X101980952Y-108311904D01*
X101904761Y-108311904D01*
X101828571Y-108273809D01*
X101790476Y-108235714D01*
X101752380Y-108159523D01*
X101714285Y-108007142D01*
X101714285Y-107816666D01*
X101752380Y-107664285D01*
X101790476Y-107588095D01*
X101828571Y-107550000D01*
X101904761Y-107511904D01*
X98450476Y-107550000D02*
X98374285Y-107511904D01*
X98260000Y-107511904D01*
X98145714Y-107550000D01*
X98069523Y-107626190D01*
X98031428Y-107702380D01*
X97993333Y-107854761D01*
X97993333Y-107969047D01*
X98031428Y-108121428D01*
X98069523Y-108197619D01*
X98145714Y-108273809D01*
X98260000Y-108311904D01*
X98336190Y-108311904D01*
X98450476Y-108273809D01*
X98488571Y-108235714D01*
X98488571Y-107969047D01*
X98336190Y-107969047D01*
X98831428Y-108311904D02*
X98831428Y-107511904D01*
X99288571Y-108311904D01*
X99288571Y-107511904D01*
X99669523Y-108311904D02*
X99669523Y-107511904D01*
X99860000Y-107511904D01*
X99974285Y-107550000D01*
X100050476Y-107626190D01*
X100088571Y-107702380D01*
X100126666Y-107854761D01*
X100126666Y-107969047D01*
X100088571Y-108121428D01*
X100050476Y-108197619D01*
X99974285Y-108273809D01*
X99860000Y-108311904D01*
X99669523Y-108311904D01*
X106108571Y-108083333D02*
X106489523Y-108083333D01*
X106032380Y-108311904D02*
X106299047Y-107511904D01*
X106565714Y-108311904D01*
X106794285Y-107588095D02*
X106832380Y-107550000D01*
X106908571Y-107511904D01*
X107099047Y-107511904D01*
X107175238Y-107550000D01*
X107213333Y-107588095D01*
X107251428Y-107664285D01*
X107251428Y-107740476D01*
X107213333Y-107854761D01*
X106756190Y-108311904D01*
X107251428Y-108311904D01*
X94983428Y-108007142D02*
X95592952Y-108007142D01*
X95288190Y-108311904D02*
X95288190Y-107702380D01*
X96354857Y-107511904D02*
X95973904Y-107511904D01*
X95935809Y-107892857D01*
X95973904Y-107854761D01*
X96050095Y-107816666D01*
X96240571Y-107816666D01*
X96316761Y-107854761D01*
X96354857Y-107892857D01*
X96392952Y-107969047D01*
X96392952Y-108159523D01*
X96354857Y-108235714D01*
X96316761Y-108273809D01*
X96240571Y-108311904D01*
X96050095Y-108311904D01*
X95973904Y-108273809D01*
X95935809Y-108235714D01*
X96621523Y-107511904D02*
X96888190Y-108311904D01*
X97154857Y-107511904D01*
X103568571Y-108083333D02*
X103949523Y-108083333D01*
X103492380Y-108311904D02*
X103759047Y-107511904D01*
X104025714Y-108311904D01*
X104711428Y-108311904D02*
X104254285Y-108311904D01*
X104482857Y-108311904D02*
X104482857Y-107511904D01*
X104406666Y-107626190D01*
X104330476Y-107702380D01*
X104254285Y-107740476D01*
X129273333Y-107892857D02*
X129006666Y-107892857D01*
X129006666Y-108311904D02*
X129006666Y-107511904D01*
X129387619Y-107511904D01*
X130111428Y-108311904D02*
X129654285Y-108311904D01*
X129882857Y-108311904D02*
X129882857Y-107511904D01*
X129806666Y-107626190D01*
X129730476Y-107702380D01*
X129654285Y-107740476D01*
X121443809Y-108235714D02*
X121405714Y-108273809D01*
X121291428Y-108311904D01*
X121215238Y-108311904D01*
X121100952Y-108273809D01*
X121024761Y-108197619D01*
X120986666Y-108121428D01*
X120948571Y-107969047D01*
X120948571Y-107854761D01*
X120986666Y-107702380D01*
X121024761Y-107626190D01*
X121100952Y-107550000D01*
X121215238Y-107511904D01*
X121291428Y-107511904D01*
X121405714Y-107550000D01*
X121443809Y-107588095D01*
X122167619Y-108311904D02*
X121786666Y-108311904D01*
X121786666Y-107511904D01*
X122434285Y-108311904D02*
X122434285Y-107511904D01*
X122891428Y-108311904D02*
X122548571Y-107854761D01*
X122891428Y-107511904D02*
X122434285Y-107969047D01*
X126733333Y-107892857D02*
X126466666Y-107892857D01*
X126466666Y-108311904D02*
X126466666Y-107511904D01*
X126847619Y-107511904D01*
X127304761Y-107511904D02*
X127380952Y-107511904D01*
X127457142Y-107550000D01*
X127495238Y-107588095D01*
X127533333Y-107664285D01*
X127571428Y-107816666D01*
X127571428Y-108007142D01*
X127533333Y-108159523D01*
X127495238Y-108235714D01*
X127457142Y-108273809D01*
X127380952Y-108311904D01*
X127304761Y-108311904D01*
X127228571Y-108273809D01*
X127190476Y-108235714D01*
X127152380Y-108159523D01*
X127114285Y-108007142D01*
X127114285Y-107816666D01*
X127152380Y-107664285D01*
X127190476Y-107588095D01*
X127228571Y-107550000D01*
X127304761Y-107511904D01*
X108648571Y-108083333D02*
X109029523Y-108083333D01*
X108572380Y-108311904D02*
X108839047Y-107511904D01*
X109105714Y-108311904D01*
X109296190Y-107511904D02*
X109791428Y-107511904D01*
X109524761Y-107816666D01*
X109639047Y-107816666D01*
X109715238Y-107854761D01*
X109753333Y-107892857D01*
X109791428Y-107969047D01*
X109791428Y-108159523D01*
X109753333Y-108235714D01*
X109715238Y-108273809D01*
X109639047Y-108311904D01*
X109410476Y-108311904D01*
X109334285Y-108273809D01*
X109296190Y-108235714D01*
X116059047Y-107179000D02*
X116859047Y-107179000D01*
X116706666Y-108235714D02*
X116668571Y-108273809D01*
X116554285Y-108311904D01*
X116478095Y-108311904D01*
X116363809Y-108273809D01*
X116287619Y-108197619D01*
X116249523Y-108121428D01*
X116211428Y-107969047D01*
X116211428Y-107854761D01*
X116249523Y-107702380D01*
X116287619Y-107626190D01*
X116363809Y-107550000D01*
X116478095Y-107511904D01*
X116554285Y-107511904D01*
X116668571Y-107550000D01*
X116706666Y-107588095D01*
X116859047Y-107179000D02*
X117620952Y-107179000D01*
X117011428Y-108273809D02*
X117125714Y-108311904D01*
X117316190Y-108311904D01*
X117392380Y-108273809D01*
X117430476Y-108235714D01*
X117468571Y-108159523D01*
X117468571Y-108083333D01*
X117430476Y-108007142D01*
X117392380Y-107969047D01*
X117316190Y-107930952D01*
X117163809Y-107892857D01*
X117087619Y-107854761D01*
X117049523Y-107816666D01*
X117011428Y-107740476D01*
X117011428Y-107664285D01*
X117049523Y-107588095D01*
X117087619Y-107550000D01*
X117163809Y-107511904D01*
X117354285Y-107511904D01*
X117468571Y-107550000D01*
X113728571Y-108083333D02*
X114109523Y-108083333D01*
X113652380Y-108311904D02*
X113919047Y-107511904D01*
X114185714Y-108311904D01*
X114833333Y-107511904D02*
X114452380Y-107511904D01*
X114414285Y-107892857D01*
X114452380Y-107854761D01*
X114528571Y-107816666D01*
X114719047Y-107816666D01*
X114795238Y-107854761D01*
X114833333Y-107892857D01*
X114871428Y-107969047D01*
X114871428Y-108159523D01*
X114833333Y-108235714D01*
X114795238Y-108273809D01*
X114719047Y-108311904D01*
X114528571Y-108311904D01*
X114452380Y-108273809D01*
X114414285Y-108235714D01*
X111188571Y-108083333D02*
X111569523Y-108083333D01*
X111112380Y-108311904D02*
X111379047Y-107511904D01*
X111645714Y-108311904D01*
X112255238Y-107778571D02*
X112255238Y-108311904D01*
X112064761Y-107473809D02*
X111874285Y-108045238D01*
X112369523Y-108045238D01*
X137521904Y-102298285D02*
X136721904Y-102298285D01*
X136721904Y-101993523D01*
X136760000Y-101917333D01*
X136798095Y-101879238D01*
X136874285Y-101841142D01*
X136988571Y-101841142D01*
X137064761Y-101879238D01*
X137102857Y-101917333D01*
X137140952Y-101993523D01*
X137140952Y-102298285D01*
X136721904Y-101345904D02*
X136721904Y-101193523D01*
X136760000Y-101117333D01*
X136836190Y-101041142D01*
X136988571Y-101003047D01*
X137255238Y-101003047D01*
X137407619Y-101041142D01*
X137483809Y-101117333D01*
X137521904Y-101193523D01*
X137521904Y-101345904D01*
X137483809Y-101422095D01*
X137407619Y-101498285D01*
X137255238Y-101536380D01*
X136988571Y-101536380D01*
X136836190Y-101498285D01*
X136760000Y-101422095D01*
X136721904Y-101345904D01*
X137521904Y-100203047D02*
X137140952Y-100469714D01*
X137521904Y-100660190D02*
X136721904Y-100660190D01*
X136721904Y-100355428D01*
X136760000Y-100279238D01*
X136798095Y-100241142D01*
X136874285Y-100203047D01*
X136988571Y-100203047D01*
X137064761Y-100241142D01*
X137102857Y-100279238D01*
X137140952Y-100355428D01*
X137140952Y-100660190D01*
X136721904Y-99974476D02*
X136721904Y-99517333D01*
X137521904Y-99745904D02*
X136721904Y-99745904D01*
X136721904Y-99098285D02*
X136721904Y-99022095D01*
X136760000Y-98945904D01*
X136798095Y-98907809D01*
X136874285Y-98869714D01*
X137026666Y-98831619D01*
X137217142Y-98831619D01*
X137369523Y-98869714D01*
X137445714Y-98907809D01*
X137483809Y-98945904D01*
X137521904Y-99022095D01*
X137521904Y-99098285D01*
X137483809Y-99174476D01*
X137445714Y-99212571D01*
X137369523Y-99250666D01*
X137217142Y-99288761D01*
X137026666Y-99288761D01*
X136874285Y-99250666D01*
X136798095Y-99212571D01*
X136760000Y-99174476D01*
X136721904Y-99098285D01*
X137521904Y-113474285D02*
X136721904Y-113474285D01*
X136721904Y-113169523D01*
X136760000Y-113093333D01*
X136798095Y-113055238D01*
X136874285Y-113017142D01*
X136988571Y-113017142D01*
X137064761Y-113055238D01*
X137102857Y-113093333D01*
X137140952Y-113169523D01*
X137140952Y-113474285D01*
X136721904Y-112521904D02*
X136721904Y-112369523D01*
X136760000Y-112293333D01*
X136836190Y-112217142D01*
X136988571Y-112179047D01*
X137255238Y-112179047D01*
X137407619Y-112217142D01*
X137483809Y-112293333D01*
X137521904Y-112369523D01*
X137521904Y-112521904D01*
X137483809Y-112598095D01*
X137407619Y-112674285D01*
X137255238Y-112712380D01*
X136988571Y-112712380D01*
X136836190Y-112674285D01*
X136760000Y-112598095D01*
X136721904Y-112521904D01*
X137521904Y-111379047D02*
X137140952Y-111645714D01*
X137521904Y-111836190D02*
X136721904Y-111836190D01*
X136721904Y-111531428D01*
X136760000Y-111455238D01*
X136798095Y-111417142D01*
X136874285Y-111379047D01*
X136988571Y-111379047D01*
X137064761Y-111417142D01*
X137102857Y-111455238D01*
X137140952Y-111531428D01*
X137140952Y-111836190D01*
X136721904Y-111150476D02*
X136721904Y-110693333D01*
X137521904Y-110921904D02*
X136721904Y-110921904D01*
X137521904Y-110007619D02*
X137521904Y-110464761D01*
X137521904Y-110236190D02*
X136721904Y-110236190D01*
X136836190Y-110312380D01*
X136912380Y-110388571D01*
X136950476Y-110464761D01*
X137521904Y-124650285D02*
X136721904Y-124650285D01*
X136721904Y-124345523D01*
X136760000Y-124269333D01*
X136798095Y-124231238D01*
X136874285Y-124193142D01*
X136988571Y-124193142D01*
X137064761Y-124231238D01*
X137102857Y-124269333D01*
X137140952Y-124345523D01*
X137140952Y-124650285D01*
X136721904Y-123697904D02*
X136721904Y-123545523D01*
X136760000Y-123469333D01*
X136836190Y-123393142D01*
X136988571Y-123355047D01*
X137255238Y-123355047D01*
X137407619Y-123393142D01*
X137483809Y-123469333D01*
X137521904Y-123545523D01*
X137521904Y-123697904D01*
X137483809Y-123774095D01*
X137407619Y-123850285D01*
X137255238Y-123888380D01*
X136988571Y-123888380D01*
X136836190Y-123850285D01*
X136760000Y-123774095D01*
X136721904Y-123697904D01*
X137521904Y-122555047D02*
X137140952Y-122821714D01*
X137521904Y-123012190D02*
X136721904Y-123012190D01*
X136721904Y-122707428D01*
X136760000Y-122631238D01*
X136798095Y-122593142D01*
X136874285Y-122555047D01*
X136988571Y-122555047D01*
X137064761Y-122593142D01*
X137102857Y-122631238D01*
X137140952Y-122707428D01*
X137140952Y-123012190D01*
X136721904Y-122326476D02*
X136721904Y-121869333D01*
X137521904Y-122097904D02*
X136721904Y-122097904D01*
X136798095Y-121640761D02*
X136760000Y-121602666D01*
X136721904Y-121526476D01*
X136721904Y-121336000D01*
X136760000Y-121259809D01*
X136798095Y-121221714D01*
X136874285Y-121183619D01*
X136950476Y-121183619D01*
X137064761Y-121221714D01*
X137521904Y-121678857D01*
X137521904Y-121183619D01*
X137521904Y-136334285D02*
X136721904Y-136334285D01*
X136721904Y-136029523D01*
X136760000Y-135953333D01*
X136798095Y-135915238D01*
X136874285Y-135877142D01*
X136988571Y-135877142D01*
X137064761Y-135915238D01*
X137102857Y-135953333D01*
X137140952Y-136029523D01*
X137140952Y-136334285D01*
X136721904Y-135381904D02*
X136721904Y-135229523D01*
X136760000Y-135153333D01*
X136836190Y-135077142D01*
X136988571Y-135039047D01*
X137255238Y-135039047D01*
X137407619Y-135077142D01*
X137483809Y-135153333D01*
X137521904Y-135229523D01*
X137521904Y-135381904D01*
X137483809Y-135458095D01*
X137407619Y-135534285D01*
X137255238Y-135572380D01*
X136988571Y-135572380D01*
X136836190Y-135534285D01*
X136760000Y-135458095D01*
X136721904Y-135381904D01*
X137521904Y-134239047D02*
X137140952Y-134505714D01*
X137521904Y-134696190D02*
X136721904Y-134696190D01*
X136721904Y-134391428D01*
X136760000Y-134315238D01*
X136798095Y-134277142D01*
X136874285Y-134239047D01*
X136988571Y-134239047D01*
X137064761Y-134277142D01*
X137102857Y-134315238D01*
X137140952Y-134391428D01*
X137140952Y-134696190D01*
X136721904Y-134010476D02*
X136721904Y-133553333D01*
X137521904Y-133781904D02*
X136721904Y-133781904D01*
X136721904Y-133362857D02*
X136721904Y-132867619D01*
X137026666Y-133134285D01*
X137026666Y-133020000D01*
X137064761Y-132943809D01*
X137102857Y-132905714D01*
X137179047Y-132867619D01*
X137369523Y-132867619D01*
X137445714Y-132905714D01*
X137483809Y-132943809D01*
X137521904Y-133020000D01*
X137521904Y-133248571D01*
X137483809Y-133324761D01*
X137445714Y-133362857D01*
X98450476Y-103994000D02*
X98374285Y-103955904D01*
X98260000Y-103955904D01*
X98145714Y-103994000D01*
X98069523Y-104070190D01*
X98031428Y-104146380D01*
X97993333Y-104298761D01*
X97993333Y-104413047D01*
X98031428Y-104565428D01*
X98069523Y-104641619D01*
X98145714Y-104717809D01*
X98260000Y-104755904D01*
X98336190Y-104755904D01*
X98450476Y-104717809D01*
X98488571Y-104679714D01*
X98488571Y-104413047D01*
X98336190Y-104413047D01*
X98831428Y-104755904D02*
X98831428Y-103955904D01*
X99288571Y-104755904D01*
X99288571Y-103955904D01*
X99669523Y-104755904D02*
X99669523Y-103955904D01*
X99860000Y-103955904D01*
X99974285Y-103994000D01*
X100050476Y-104070190D01*
X100088571Y-104146380D01*
X100126666Y-104298761D01*
X100126666Y-104413047D01*
X100088571Y-104565428D01*
X100050476Y-104641619D01*
X99974285Y-104717809D01*
X99860000Y-104755904D01*
X99669523Y-104755904D01*
X95491428Y-104451142D02*
X96100952Y-104451142D01*
X95796190Y-104755904D02*
X95796190Y-104146380D01*
X96862857Y-103955904D02*
X96481904Y-103955904D01*
X96443809Y-104336857D01*
X96481904Y-104298761D01*
X96558095Y-104260666D01*
X96748571Y-104260666D01*
X96824761Y-104298761D01*
X96862857Y-104336857D01*
X96900952Y-104413047D01*
X96900952Y-104603523D01*
X96862857Y-104679714D01*
X96824761Y-104717809D01*
X96748571Y-104755904D01*
X96558095Y-104755904D01*
X96481904Y-104717809D01*
X96443809Y-104679714D01*
X97129523Y-103955904D02*
X97396190Y-104755904D01*
X97662857Y-103955904D01*
X134010476Y-103994000D02*
X133934285Y-103955904D01*
X133820000Y-103955904D01*
X133705714Y-103994000D01*
X133629523Y-104070190D01*
X133591428Y-104146380D01*
X133553333Y-104298761D01*
X133553333Y-104413047D01*
X133591428Y-104565428D01*
X133629523Y-104641619D01*
X133705714Y-104717809D01*
X133820000Y-104755904D01*
X133896190Y-104755904D01*
X134010476Y-104717809D01*
X134048571Y-104679714D01*
X134048571Y-104413047D01*
X133896190Y-104413047D01*
X134391428Y-104755904D02*
X134391428Y-103955904D01*
X134848571Y-104755904D01*
X134848571Y-103955904D01*
X135229523Y-104755904D02*
X135229523Y-103955904D01*
X135420000Y-103955904D01*
X135534285Y-103994000D01*
X135610476Y-104070190D01*
X135648571Y-104146380D01*
X135686666Y-104298761D01*
X135686666Y-104413047D01*
X135648571Y-104565428D01*
X135610476Y-104641619D01*
X135534285Y-104717809D01*
X135420000Y-104755904D01*
X135229523Y-104755904D01*
X131051428Y-104451142D02*
X131660952Y-104451142D01*
X131356190Y-104755904D02*
X131356190Y-104146380D01*
X132422857Y-103955904D02*
X132041904Y-103955904D01*
X132003809Y-104336857D01*
X132041904Y-104298761D01*
X132118095Y-104260666D01*
X132308571Y-104260666D01*
X132384761Y-104298761D01*
X132422857Y-104336857D01*
X132460952Y-104413047D01*
X132460952Y-104603523D01*
X132422857Y-104679714D01*
X132384761Y-104717809D01*
X132308571Y-104755904D01*
X132118095Y-104755904D01*
X132041904Y-104717809D01*
X132003809Y-104679714D01*
X132689523Y-103955904D02*
X132956190Y-104755904D01*
X133222857Y-103955904D01*
X128416190Y-103955904D02*
X128416190Y-104603523D01*
X128454285Y-104679714D01*
X128492380Y-104717809D01*
X128568571Y-104755904D01*
X128720952Y-104755904D01*
X128797142Y-104717809D01*
X128835238Y-104679714D01*
X128873333Y-104603523D01*
X128873333Y-103955904D01*
X129254285Y-104755904D02*
X129254285Y-103955904D01*
X129444761Y-103955904D01*
X129559047Y-103994000D01*
X129635238Y-104070190D01*
X129673333Y-104146380D01*
X129711428Y-104298761D01*
X129711428Y-104413047D01*
X129673333Y-104565428D01*
X129635238Y-104641619D01*
X129559047Y-104717809D01*
X129444761Y-104755904D01*
X129254285Y-104755904D01*
X130054285Y-104451142D02*
X130663809Y-104451142D01*
X125876190Y-103955904D02*
X125876190Y-104603523D01*
X125914285Y-104679714D01*
X125952380Y-104717809D01*
X126028571Y-104755904D01*
X126180952Y-104755904D01*
X126257142Y-104717809D01*
X126295238Y-104679714D01*
X126333333Y-104603523D01*
X126333333Y-103955904D01*
X126714285Y-104755904D02*
X126714285Y-103955904D01*
X126904761Y-103955904D01*
X127019047Y-103994000D01*
X127095238Y-104070190D01*
X127133333Y-104146380D01*
X127171428Y-104298761D01*
X127171428Y-104413047D01*
X127133333Y-104565428D01*
X127095238Y-104641619D01*
X127019047Y-104717809D01*
X126904761Y-104755904D01*
X126714285Y-104755904D01*
X127514285Y-104451142D02*
X128123809Y-104451142D01*
X127819047Y-104755904D02*
X127819047Y-104146380D01*
X123393333Y-103623000D02*
X124231428Y-103623000D01*
X123583809Y-104755904D02*
X123583809Y-103955904D01*
X124040952Y-104755904D01*
X124040952Y-103955904D01*
X124231428Y-103623000D02*
X125145714Y-103623000D01*
X124421904Y-104755904D02*
X124421904Y-103955904D01*
X124688571Y-104527333D01*
X124955238Y-103955904D01*
X124955238Y-104755904D01*
X125145714Y-103623000D02*
X125526666Y-103623000D01*
X125336190Y-104755904D02*
X125336190Y-103955904D01*
X120910476Y-103623000D02*
X121291428Y-103623000D01*
X121100952Y-104755904D02*
X121100952Y-103955904D01*
X121291428Y-103623000D02*
X122091428Y-103623000D01*
X121939047Y-104755904D02*
X121672380Y-104374952D01*
X121481904Y-104755904D02*
X121481904Y-103955904D01*
X121786666Y-103955904D01*
X121862857Y-103994000D01*
X121900952Y-104032095D01*
X121939047Y-104108285D01*
X121939047Y-104222571D01*
X121900952Y-104298761D01*
X121862857Y-104336857D01*
X121786666Y-104374952D01*
X121481904Y-104374952D01*
X122091428Y-103623000D02*
X122929523Y-103623000D01*
X122815238Y-104832095D02*
X122739047Y-104794000D01*
X122662857Y-104717809D01*
X122548571Y-104603523D01*
X122472380Y-104565428D01*
X122396190Y-104565428D01*
X122434285Y-104755904D02*
X122358095Y-104717809D01*
X122281904Y-104641619D01*
X122243809Y-104489238D01*
X122243809Y-104222571D01*
X122281904Y-104070190D01*
X122358095Y-103994000D01*
X122434285Y-103955904D01*
X122586666Y-103955904D01*
X122662857Y-103994000D01*
X122739047Y-104070190D01*
X122777142Y-104222571D01*
X122777142Y-104489238D01*
X122739047Y-104641619D01*
X122662857Y-104717809D01*
X122586666Y-104755904D01*
X122434285Y-104755904D01*
X118789523Y-104755904D02*
X118789523Y-103955904D01*
X118980000Y-103955904D01*
X119094285Y-103994000D01*
X119170476Y-104070190D01*
X119208571Y-104146380D01*
X119246666Y-104298761D01*
X119246666Y-104413047D01*
X119208571Y-104565428D01*
X119170476Y-104641619D01*
X119094285Y-104717809D01*
X118980000Y-104755904D01*
X118789523Y-104755904D01*
X119513333Y-103955904D02*
X120046666Y-103955904D01*
X119703809Y-104755904D01*
X116249523Y-104755904D02*
X116249523Y-103955904D01*
X116440000Y-103955904D01*
X116554285Y-103994000D01*
X116630476Y-104070190D01*
X116668571Y-104146380D01*
X116706666Y-104298761D01*
X116706666Y-104413047D01*
X116668571Y-104565428D01*
X116630476Y-104641619D01*
X116554285Y-104717809D01*
X116440000Y-104755904D01*
X116249523Y-104755904D01*
X117392380Y-103955904D02*
X117240000Y-103955904D01*
X117163809Y-103994000D01*
X117125714Y-104032095D01*
X117049523Y-104146380D01*
X117011428Y-104298761D01*
X117011428Y-104603523D01*
X117049523Y-104679714D01*
X117087619Y-104717809D01*
X117163809Y-104755904D01*
X117316190Y-104755904D01*
X117392380Y-104717809D01*
X117430476Y-104679714D01*
X117468571Y-104603523D01*
X117468571Y-104413047D01*
X117430476Y-104336857D01*
X117392380Y-104298761D01*
X117316190Y-104260666D01*
X117163809Y-104260666D01*
X117087619Y-104298761D01*
X117049523Y-104336857D01*
X117011428Y-104413047D01*
X113709523Y-104755904D02*
X113709523Y-103955904D01*
X113900000Y-103955904D01*
X114014285Y-103994000D01*
X114090476Y-104070190D01*
X114128571Y-104146380D01*
X114166666Y-104298761D01*
X114166666Y-104413047D01*
X114128571Y-104565428D01*
X114090476Y-104641619D01*
X114014285Y-104717809D01*
X113900000Y-104755904D01*
X113709523Y-104755904D01*
X114890476Y-103955904D02*
X114509523Y-103955904D01*
X114471428Y-104336857D01*
X114509523Y-104298761D01*
X114585714Y-104260666D01*
X114776190Y-104260666D01*
X114852380Y-104298761D01*
X114890476Y-104336857D01*
X114928571Y-104413047D01*
X114928571Y-104603523D01*
X114890476Y-104679714D01*
X114852380Y-104717809D01*
X114776190Y-104755904D01*
X114585714Y-104755904D01*
X114509523Y-104717809D01*
X114471428Y-104679714D01*
X111169523Y-104755904D02*
X111169523Y-103955904D01*
X111360000Y-103955904D01*
X111474285Y-103994000D01*
X111550476Y-104070190D01*
X111588571Y-104146380D01*
X111626666Y-104298761D01*
X111626666Y-104413047D01*
X111588571Y-104565428D01*
X111550476Y-104641619D01*
X111474285Y-104717809D01*
X111360000Y-104755904D01*
X111169523Y-104755904D01*
X112312380Y-104222571D02*
X112312380Y-104755904D01*
X112121904Y-103917809D02*
X111931428Y-104489238D01*
X112426666Y-104489238D01*
X108629523Y-104755904D02*
X108629523Y-103955904D01*
X108820000Y-103955904D01*
X108934285Y-103994000D01*
X109010476Y-104070190D01*
X109048571Y-104146380D01*
X109086666Y-104298761D01*
X109086666Y-104413047D01*
X109048571Y-104565428D01*
X109010476Y-104641619D01*
X108934285Y-104717809D01*
X108820000Y-104755904D01*
X108629523Y-104755904D01*
X109353333Y-103955904D02*
X109848571Y-103955904D01*
X109581904Y-104260666D01*
X109696190Y-104260666D01*
X109772380Y-104298761D01*
X109810476Y-104336857D01*
X109848571Y-104413047D01*
X109848571Y-104603523D01*
X109810476Y-104679714D01*
X109772380Y-104717809D01*
X109696190Y-104755904D01*
X109467619Y-104755904D01*
X109391428Y-104717809D01*
X109353333Y-104679714D01*
X106089523Y-104755904D02*
X106089523Y-103955904D01*
X106280000Y-103955904D01*
X106394285Y-103994000D01*
X106470476Y-104070190D01*
X106508571Y-104146380D01*
X106546666Y-104298761D01*
X106546666Y-104413047D01*
X106508571Y-104565428D01*
X106470476Y-104641619D01*
X106394285Y-104717809D01*
X106280000Y-104755904D01*
X106089523Y-104755904D01*
X106851428Y-104032095D02*
X106889523Y-103994000D01*
X106965714Y-103955904D01*
X107156190Y-103955904D01*
X107232380Y-103994000D01*
X107270476Y-104032095D01*
X107308571Y-104108285D01*
X107308571Y-104184476D01*
X107270476Y-104298761D01*
X106813333Y-104755904D01*
X107308571Y-104755904D01*
X103549523Y-104755904D02*
X103549523Y-103955904D01*
X103740000Y-103955904D01*
X103854285Y-103994000D01*
X103930476Y-104070190D01*
X103968571Y-104146380D01*
X104006666Y-104298761D01*
X104006666Y-104413047D01*
X103968571Y-104565428D01*
X103930476Y-104641619D01*
X103854285Y-104717809D01*
X103740000Y-104755904D01*
X103549523Y-104755904D01*
X104768571Y-104755904D02*
X104311428Y-104755904D01*
X104540000Y-104755904D02*
X104540000Y-103955904D01*
X104463809Y-104070190D01*
X104387619Y-104146380D01*
X104311428Y-104184476D01*
X101009523Y-104755904D02*
X101009523Y-103955904D01*
X101200000Y-103955904D01*
X101314285Y-103994000D01*
X101390476Y-104070190D01*
X101428571Y-104146380D01*
X101466666Y-104298761D01*
X101466666Y-104413047D01*
X101428571Y-104565428D01*
X101390476Y-104641619D01*
X101314285Y-104717809D01*
X101200000Y-104755904D01*
X101009523Y-104755904D01*
X101961904Y-103955904D02*
X102038095Y-103955904D01*
X102114285Y-103994000D01*
X102152380Y-104032095D01*
X102190476Y-104108285D01*
X102228571Y-104260666D01*
X102228571Y-104451142D01*
X102190476Y-104603523D01*
X102152380Y-104679714D01*
X102114285Y-104717809D01*
X102038095Y-104755904D01*
X101961904Y-104755904D01*
X101885714Y-104717809D01*
X101847619Y-104679714D01*
X101809523Y-104603523D01*
X101771428Y-104451142D01*
X101771428Y-104260666D01*
X101809523Y-104108285D01*
X101847619Y-104032095D01*
X101885714Y-103994000D01*
X101961904Y-103955904D01*
X134010476Y-96120000D02*
X133934285Y-96081904D01*
X133820000Y-96081904D01*
X133705714Y-96120000D01*
X133629523Y-96196190D01*
X133591428Y-96272380D01*
X133553333Y-96424761D01*
X133553333Y-96539047D01*
X133591428Y-96691428D01*
X133629523Y-96767619D01*
X133705714Y-96843809D01*
X133820000Y-96881904D01*
X133896190Y-96881904D01*
X134010476Y-96843809D01*
X134048571Y-96805714D01*
X134048571Y-96539047D01*
X133896190Y-96539047D01*
X134391428Y-96881904D02*
X134391428Y-96081904D01*
X134848571Y-96881904D01*
X134848571Y-96081904D01*
X135229523Y-96881904D02*
X135229523Y-96081904D01*
X135420000Y-96081904D01*
X135534285Y-96120000D01*
X135610476Y-96196190D01*
X135648571Y-96272380D01*
X135686666Y-96424761D01*
X135686666Y-96539047D01*
X135648571Y-96691428D01*
X135610476Y-96767619D01*
X135534285Y-96843809D01*
X135420000Y-96881904D01*
X135229523Y-96881904D01*
X131051428Y-96577142D02*
X131660952Y-96577142D01*
X131356190Y-96881904D02*
X131356190Y-96272380D01*
X132422857Y-96081904D02*
X132041904Y-96081904D01*
X132003809Y-96462857D01*
X132041904Y-96424761D01*
X132118095Y-96386666D01*
X132308571Y-96386666D01*
X132384761Y-96424761D01*
X132422857Y-96462857D01*
X132460952Y-96539047D01*
X132460952Y-96729523D01*
X132422857Y-96805714D01*
X132384761Y-96843809D01*
X132308571Y-96881904D01*
X132118095Y-96881904D01*
X132041904Y-96843809D01*
X132003809Y-96805714D01*
X132689523Y-96081904D02*
X132956190Y-96881904D01*
X133222857Y-96081904D01*
X129273333Y-96462857D02*
X129006666Y-96462857D01*
X129006666Y-96881904D02*
X129006666Y-96081904D01*
X129387619Y-96081904D01*
X130111428Y-96881904D02*
X129654285Y-96881904D01*
X129882857Y-96881904D02*
X129882857Y-96081904D01*
X129806666Y-96196190D01*
X129730476Y-96272380D01*
X129654285Y-96310476D01*
X126733333Y-96462857D02*
X126466666Y-96462857D01*
X126466666Y-96881904D02*
X126466666Y-96081904D01*
X126847619Y-96081904D01*
X127304761Y-96081904D02*
X127380952Y-96081904D01*
X127457142Y-96120000D01*
X127495238Y-96158095D01*
X127533333Y-96234285D01*
X127571428Y-96386666D01*
X127571428Y-96577142D01*
X127533333Y-96729523D01*
X127495238Y-96805714D01*
X127457142Y-96843809D01*
X127380952Y-96881904D01*
X127304761Y-96881904D01*
X127228571Y-96843809D01*
X127190476Y-96805714D01*
X127152380Y-96729523D01*
X127114285Y-96577142D01*
X127114285Y-96386666D01*
X127152380Y-96234285D01*
X127190476Y-96158095D01*
X127228571Y-96120000D01*
X127304761Y-96081904D01*
X123317142Y-95749000D02*
X124117142Y-95749000D01*
X123964761Y-96881904D02*
X123698095Y-96500952D01*
X123507619Y-96881904D02*
X123507619Y-96081904D01*
X123812380Y-96081904D01*
X123888571Y-96120000D01*
X123926666Y-96158095D01*
X123964761Y-96234285D01*
X123964761Y-96348571D01*
X123926666Y-96424761D01*
X123888571Y-96462857D01*
X123812380Y-96500952D01*
X123507619Y-96500952D01*
X124117142Y-95749000D02*
X124840952Y-95749000D01*
X124307619Y-96462857D02*
X124574285Y-96462857D01*
X124688571Y-96881904D02*
X124307619Y-96881904D01*
X124307619Y-96081904D01*
X124688571Y-96081904D01*
X124840952Y-95749000D02*
X125602857Y-95749000D01*
X124993333Y-96843809D02*
X125107619Y-96881904D01*
X125298095Y-96881904D01*
X125374285Y-96843809D01*
X125412380Y-96805714D01*
X125450476Y-96729523D01*
X125450476Y-96653333D01*
X125412380Y-96577142D01*
X125374285Y-96539047D01*
X125298095Y-96500952D01*
X125145714Y-96462857D01*
X125069523Y-96424761D01*
X125031428Y-96386666D01*
X124993333Y-96310476D01*
X124993333Y-96234285D01*
X125031428Y-96158095D01*
X125069523Y-96120000D01*
X125145714Y-96081904D01*
X125336190Y-96081904D01*
X125450476Y-96120000D01*
X121443809Y-96805714D02*
X121405714Y-96843809D01*
X121291428Y-96881904D01*
X121215238Y-96881904D01*
X121100952Y-96843809D01*
X121024761Y-96767619D01*
X120986666Y-96691428D01*
X120948571Y-96539047D01*
X120948571Y-96424761D01*
X120986666Y-96272380D01*
X121024761Y-96196190D01*
X121100952Y-96120000D01*
X121215238Y-96081904D01*
X121291428Y-96081904D01*
X121405714Y-96120000D01*
X121443809Y-96158095D01*
X122167619Y-96881904D02*
X121786666Y-96881904D01*
X121786666Y-96081904D01*
X122434285Y-96881904D02*
X122434285Y-96081904D01*
X122891428Y-96881904D02*
X122548571Y-96424761D01*
X122891428Y-96081904D02*
X122434285Y-96539047D01*
X119170476Y-96881904D02*
X118903809Y-96500952D01*
X118713333Y-96881904D02*
X118713333Y-96081904D01*
X119018095Y-96081904D01*
X119094285Y-96120000D01*
X119132380Y-96158095D01*
X119170476Y-96234285D01*
X119170476Y-96348571D01*
X119132380Y-96424761D01*
X119094285Y-96462857D01*
X119018095Y-96500952D01*
X118713333Y-96500952D01*
X119322857Y-95749000D02*
X120237142Y-95749000D01*
X119437142Y-96081904D02*
X119627619Y-96881904D01*
X119780000Y-96310476D01*
X119932380Y-96881904D01*
X120122857Y-96081904D01*
X116059047Y-95749000D02*
X116859047Y-95749000D01*
X116706666Y-96805714D02*
X116668571Y-96843809D01*
X116554285Y-96881904D01*
X116478095Y-96881904D01*
X116363809Y-96843809D01*
X116287619Y-96767619D01*
X116249523Y-96691428D01*
X116211428Y-96539047D01*
X116211428Y-96424761D01*
X116249523Y-96272380D01*
X116287619Y-96196190D01*
X116363809Y-96120000D01*
X116478095Y-96081904D01*
X116554285Y-96081904D01*
X116668571Y-96120000D01*
X116706666Y-96158095D01*
X116859047Y-95749000D02*
X117620952Y-95749000D01*
X117011428Y-96843809D02*
X117125714Y-96881904D01*
X117316190Y-96881904D01*
X117392380Y-96843809D01*
X117430476Y-96805714D01*
X117468571Y-96729523D01*
X117468571Y-96653333D01*
X117430476Y-96577142D01*
X117392380Y-96539047D01*
X117316190Y-96500952D01*
X117163809Y-96462857D01*
X117087619Y-96424761D01*
X117049523Y-96386666D01*
X117011428Y-96310476D01*
X117011428Y-96234285D01*
X117049523Y-96158095D01*
X117087619Y-96120000D01*
X117163809Y-96081904D01*
X117354285Y-96081904D01*
X117468571Y-96120000D01*
X113728571Y-96653333D02*
X114109523Y-96653333D01*
X113652380Y-96881904D02*
X113919047Y-96081904D01*
X114185714Y-96881904D01*
X114833333Y-96081904D02*
X114452380Y-96081904D01*
X114414285Y-96462857D01*
X114452380Y-96424761D01*
X114528571Y-96386666D01*
X114719047Y-96386666D01*
X114795238Y-96424761D01*
X114833333Y-96462857D01*
X114871428Y-96539047D01*
X114871428Y-96729523D01*
X114833333Y-96805714D01*
X114795238Y-96843809D01*
X114719047Y-96881904D01*
X114528571Y-96881904D01*
X114452380Y-96843809D01*
X114414285Y-96805714D01*
X111188571Y-96653333D02*
X111569523Y-96653333D01*
X111112380Y-96881904D02*
X111379047Y-96081904D01*
X111645714Y-96881904D01*
X112255238Y-96348571D02*
X112255238Y-96881904D01*
X112064761Y-96043809D02*
X111874285Y-96615238D01*
X112369523Y-96615238D01*
X108648571Y-96653333D02*
X109029523Y-96653333D01*
X108572380Y-96881904D02*
X108839047Y-96081904D01*
X109105714Y-96881904D01*
X109296190Y-96081904D02*
X109791428Y-96081904D01*
X109524761Y-96386666D01*
X109639047Y-96386666D01*
X109715238Y-96424761D01*
X109753333Y-96462857D01*
X109791428Y-96539047D01*
X109791428Y-96729523D01*
X109753333Y-96805714D01*
X109715238Y-96843809D01*
X109639047Y-96881904D01*
X109410476Y-96881904D01*
X109334285Y-96843809D01*
X109296190Y-96805714D01*
X106108571Y-96653333D02*
X106489523Y-96653333D01*
X106032380Y-96881904D02*
X106299047Y-96081904D01*
X106565714Y-96881904D01*
X106794285Y-96158095D02*
X106832380Y-96120000D01*
X106908571Y-96081904D01*
X107099047Y-96081904D01*
X107175238Y-96120000D01*
X107213333Y-96158095D01*
X107251428Y-96234285D01*
X107251428Y-96310476D01*
X107213333Y-96424761D01*
X106756190Y-96881904D01*
X107251428Y-96881904D01*
X103568571Y-96653333D02*
X103949523Y-96653333D01*
X103492380Y-96881904D02*
X103759047Y-96081904D01*
X104025714Y-96881904D01*
X104711428Y-96881904D02*
X104254285Y-96881904D01*
X104482857Y-96881904D02*
X104482857Y-96081904D01*
X104406666Y-96196190D01*
X104330476Y-96272380D01*
X104254285Y-96310476D01*
X101028571Y-96653333D02*
X101409523Y-96653333D01*
X100952380Y-96881904D02*
X101219047Y-96081904D01*
X101485714Y-96881904D01*
X101904761Y-96081904D02*
X101980952Y-96081904D01*
X102057142Y-96120000D01*
X102095238Y-96158095D01*
X102133333Y-96234285D01*
X102171428Y-96386666D01*
X102171428Y-96577142D01*
X102133333Y-96729523D01*
X102095238Y-96805714D01*
X102057142Y-96843809D01*
X101980952Y-96881904D01*
X101904761Y-96881904D01*
X101828571Y-96843809D01*
X101790476Y-96805714D01*
X101752380Y-96729523D01*
X101714285Y-96577142D01*
X101714285Y-96386666D01*
X101752380Y-96234285D01*
X101790476Y-96158095D01*
X101828571Y-96120000D01*
X101904761Y-96081904D01*
X98450476Y-96120000D02*
X98374285Y-96081904D01*
X98260000Y-96081904D01*
X98145714Y-96120000D01*
X98069523Y-96196190D01*
X98031428Y-96272380D01*
X97993333Y-96424761D01*
X97993333Y-96539047D01*
X98031428Y-96691428D01*
X98069523Y-96767619D01*
X98145714Y-96843809D01*
X98260000Y-96881904D01*
X98336190Y-96881904D01*
X98450476Y-96843809D01*
X98488571Y-96805714D01*
X98488571Y-96539047D01*
X98336190Y-96539047D01*
X98831428Y-96881904D02*
X98831428Y-96081904D01*
X99288571Y-96881904D01*
X99288571Y-96081904D01*
X99669523Y-96881904D02*
X99669523Y-96081904D01*
X99860000Y-96081904D01*
X99974285Y-96120000D01*
X100050476Y-96196190D01*
X100088571Y-96272380D01*
X100126666Y-96424761D01*
X100126666Y-96539047D01*
X100088571Y-96691428D01*
X100050476Y-96767619D01*
X99974285Y-96843809D01*
X99860000Y-96881904D01*
X99669523Y-96881904D01*
X94983428Y-96577142D02*
X95592952Y-96577142D01*
X95288190Y-96881904D02*
X95288190Y-96272380D01*
X96354857Y-96081904D02*
X95973904Y-96081904D01*
X95935809Y-96462857D01*
X95973904Y-96424761D01*
X96050095Y-96386666D01*
X96240571Y-96386666D01*
X96316761Y-96424761D01*
X96354857Y-96462857D01*
X96392952Y-96539047D01*
X96392952Y-96729523D01*
X96354857Y-96805714D01*
X96316761Y-96843809D01*
X96240571Y-96881904D01*
X96050095Y-96881904D01*
X95973904Y-96843809D01*
X95935809Y-96805714D01*
X96621523Y-96081904D02*
X96888190Y-96881904D01*
X97154857Y-96081904D01*
D13*
%TO.C,C1*%
X118645000Y-83760000D02*
X121385000Y-83760000D01*
X118645000Y-89000000D02*
X121385000Y-89000000D01*
X121385000Y-89000000D02*
X121385000Y-83760000D01*
X118645000Y-89000000D02*
X118645000Y-83760000D01*
%TO.C,C2*%
X167192354Y-112957000D02*
X167192354Y-113957000D01*
X166692354Y-113457000D02*
X167692354Y-113457000D01*
X177253000Y-115733000D02*
X177253000Y-116931000D01*
X177213000Y-115470000D02*
X177213000Y-117194000D01*
X177173000Y-115270000D02*
X177173000Y-117394000D01*
X177133000Y-115102000D02*
X177133000Y-117562000D01*
X177093000Y-114954000D02*
X177093000Y-117710000D01*
X177053000Y-114822000D02*
X177053000Y-117842000D01*
X177013000Y-114702000D02*
X177013000Y-117962000D01*
X176973000Y-114590000D02*
X176973000Y-118074000D01*
X176933000Y-114486000D02*
X176933000Y-118178000D01*
X176893000Y-114388000D02*
X176893000Y-118276000D01*
X176853000Y-114295000D02*
X176853000Y-118369000D01*
X176813000Y-114207000D02*
X176813000Y-118457000D01*
X176773000Y-114123000D02*
X176773000Y-118541000D01*
X176733000Y-114043000D02*
X176733000Y-118621000D01*
X176693000Y-113967000D02*
X176693000Y-118697000D01*
X176653000Y-113893000D02*
X176653000Y-118771000D01*
X176613000Y-113822000D02*
X176613000Y-118842000D01*
X176573000Y-113753000D02*
X176573000Y-118911000D01*
X176533000Y-113687000D02*
X176533000Y-118977000D01*
X176493000Y-113623000D02*
X176493000Y-119041000D01*
X176453000Y-113562000D02*
X176453000Y-119102000D01*
X176413000Y-113502000D02*
X176413000Y-119162000D01*
X176373000Y-113443000D02*
X176373000Y-119221000D01*
X176333000Y-113387000D02*
X176333000Y-119277000D01*
X176293000Y-113332000D02*
X176293000Y-119332000D01*
X176253000Y-113278000D02*
X176253000Y-119386000D01*
X176213000Y-113226000D02*
X176213000Y-119438000D01*
X176173000Y-113176000D02*
X176173000Y-119488000D01*
X176133000Y-113126000D02*
X176133000Y-119538000D01*
X176093000Y-113078000D02*
X176093000Y-119586000D01*
X176053000Y-113031000D02*
X176053000Y-119633000D01*
X176013000Y-112985000D02*
X176013000Y-119679000D01*
X175973000Y-112940000D02*
X175973000Y-119724000D01*
X175933000Y-112896000D02*
X175933000Y-119768000D01*
X175893000Y-117573000D02*
X175893000Y-119810000D01*
X175893000Y-112854000D02*
X175893000Y-115091000D01*
X175853000Y-117573000D02*
X175853000Y-119852000D01*
X175853000Y-112812000D02*
X175853000Y-115091000D01*
X175813000Y-117573000D02*
X175813000Y-119893000D01*
X175813000Y-112771000D02*
X175813000Y-115091000D01*
X175773000Y-117573000D02*
X175773000Y-119933000D01*
X175773000Y-112731000D02*
X175773000Y-115091000D01*
X175733000Y-117573000D02*
X175733000Y-119972000D01*
X175733000Y-112692000D02*
X175733000Y-115091000D01*
X175693000Y-117573000D02*
X175693000Y-120011000D01*
X175693000Y-112653000D02*
X175693000Y-115091000D01*
X175653000Y-117573000D02*
X175653000Y-120048000D01*
X175653000Y-112616000D02*
X175653000Y-115091000D01*
X175613000Y-117573000D02*
X175613000Y-120085000D01*
X175613000Y-112579000D02*
X175613000Y-115091000D01*
X175573000Y-117573000D02*
X175573000Y-120121000D01*
X175573000Y-112543000D02*
X175573000Y-115091000D01*
X175533000Y-117573000D02*
X175533000Y-120156000D01*
X175533000Y-112508000D02*
X175533000Y-115091000D01*
X175493000Y-117573000D02*
X175493000Y-120190000D01*
X175493000Y-112474000D02*
X175493000Y-115091000D01*
X175453000Y-117573000D02*
X175453000Y-120224000D01*
X175453000Y-112440000D02*
X175453000Y-115091000D01*
X175413000Y-117573000D02*
X175413000Y-120257000D01*
X175413000Y-112407000D02*
X175413000Y-115091000D01*
X175373000Y-117573000D02*
X175373000Y-120289000D01*
X175373000Y-112375000D02*
X175373000Y-115091000D01*
X175333000Y-117573000D02*
X175333000Y-120321000D01*
X175333000Y-112343000D02*
X175333000Y-115091000D01*
X175293000Y-117573000D02*
X175293000Y-120352000D01*
X175293000Y-112312000D02*
X175293000Y-115091000D01*
X175253000Y-117573000D02*
X175253000Y-120382000D01*
X175253000Y-112282000D02*
X175253000Y-115091000D01*
X175213000Y-117573000D02*
X175213000Y-120412000D01*
X175213000Y-112252000D02*
X175213000Y-115091000D01*
X175173000Y-117573000D02*
X175173000Y-120442000D01*
X175173000Y-112222000D02*
X175173000Y-115091000D01*
X175133000Y-117573000D02*
X175133000Y-120470000D01*
X175133000Y-112194000D02*
X175133000Y-115091000D01*
X175093000Y-117573000D02*
X175093000Y-120498000D01*
X175093000Y-112166000D02*
X175093000Y-115091000D01*
X175053000Y-117573000D02*
X175053000Y-120526000D01*
X175053000Y-112138000D02*
X175053000Y-115091000D01*
X175013000Y-117573000D02*
X175013000Y-120553000D01*
X175013000Y-112111000D02*
X175013000Y-115091000D01*
X174973000Y-117573000D02*
X174973000Y-120579000D01*
X174973000Y-112085000D02*
X174973000Y-115091000D01*
X174933000Y-117573000D02*
X174933000Y-120605000D01*
X174933000Y-112059000D02*
X174933000Y-115091000D01*
X174893000Y-117573000D02*
X174893000Y-120630000D01*
X174893000Y-112034000D02*
X174893000Y-115091000D01*
X174853000Y-117573000D02*
X174853000Y-120655000D01*
X174853000Y-112009000D02*
X174853000Y-115091000D01*
X174813000Y-117573000D02*
X174813000Y-120679000D01*
X174813000Y-111985000D02*
X174813000Y-115091000D01*
X174773000Y-117573000D02*
X174773000Y-120703000D01*
X174773000Y-111961000D02*
X174773000Y-115091000D01*
X174733000Y-117573000D02*
X174733000Y-120727000D01*
X174733000Y-111937000D02*
X174733000Y-115091000D01*
X174693000Y-117573000D02*
X174693000Y-120749000D01*
X174693000Y-111915000D02*
X174693000Y-115091000D01*
X174653000Y-117573000D02*
X174653000Y-120772000D01*
X174653000Y-111892000D02*
X174653000Y-115091000D01*
X174613000Y-117573000D02*
X174613000Y-120794000D01*
X174613000Y-111870000D02*
X174613000Y-115091000D01*
X174573000Y-117573000D02*
X174573000Y-120815000D01*
X174573000Y-111849000D02*
X174573000Y-115091000D01*
X174533000Y-117573000D02*
X174533000Y-120836000D01*
X174533000Y-111828000D02*
X174533000Y-115091000D01*
X174493000Y-117573000D02*
X174493000Y-120857000D01*
X174493000Y-111807000D02*
X174493000Y-115091000D01*
X174453000Y-117573000D02*
X174453000Y-120877000D01*
X174453000Y-111787000D02*
X174453000Y-115091000D01*
X174413000Y-117573000D02*
X174413000Y-120896000D01*
X174413000Y-111768000D02*
X174413000Y-115091000D01*
X174373000Y-117573000D02*
X174373000Y-120916000D01*
X174373000Y-111748000D02*
X174373000Y-115091000D01*
X174333000Y-117573000D02*
X174333000Y-120935000D01*
X174333000Y-111729000D02*
X174333000Y-115091000D01*
X174293000Y-117573000D02*
X174293000Y-120953000D01*
X174293000Y-111711000D02*
X174293000Y-115091000D01*
X174253000Y-117573000D02*
X174253000Y-120971000D01*
X174253000Y-111693000D02*
X174253000Y-115091000D01*
X174213000Y-117573000D02*
X174213000Y-120989000D01*
X174213000Y-111675000D02*
X174213000Y-115091000D01*
X174173000Y-117573000D02*
X174173000Y-121006000D01*
X174173000Y-111658000D02*
X174173000Y-115091000D01*
X174133000Y-117573000D02*
X174133000Y-121022000D01*
X174133000Y-111642000D02*
X174133000Y-115091000D01*
X174093000Y-117573000D02*
X174093000Y-121039000D01*
X174093000Y-111625000D02*
X174093000Y-115091000D01*
X174053000Y-117573000D02*
X174053000Y-121055000D01*
X174053000Y-111609000D02*
X174053000Y-115091000D01*
X174013000Y-117573000D02*
X174013000Y-121070000D01*
X174013000Y-111594000D02*
X174013000Y-115091000D01*
X173973000Y-117573000D02*
X173973000Y-121086000D01*
X173973000Y-111578000D02*
X173973000Y-115091000D01*
X173933000Y-117573000D02*
X173933000Y-121100000D01*
X173933000Y-111564000D02*
X173933000Y-115091000D01*
X173893000Y-117573000D02*
X173893000Y-121115000D01*
X173893000Y-111549000D02*
X173893000Y-115091000D01*
X173853000Y-117573000D02*
X173853000Y-121129000D01*
X173853000Y-111535000D02*
X173853000Y-115091000D01*
X173813000Y-117573000D02*
X173813000Y-121143000D01*
X173813000Y-111521000D02*
X173813000Y-115091000D01*
X173773000Y-117573000D02*
X173773000Y-121156000D01*
X173773000Y-111508000D02*
X173773000Y-115091000D01*
X173733000Y-117573000D02*
X173733000Y-121169000D01*
X173733000Y-111495000D02*
X173733000Y-115091000D01*
X173693000Y-117573000D02*
X173693000Y-121182000D01*
X173693000Y-111482000D02*
X173693000Y-115091000D01*
X173653000Y-117573000D02*
X173653000Y-121194000D01*
X173653000Y-111470000D02*
X173653000Y-115091000D01*
X173613000Y-117573000D02*
X173613000Y-121206000D01*
X173613000Y-111458000D02*
X173613000Y-115091000D01*
X173573000Y-117573000D02*
X173573000Y-121217000D01*
X173573000Y-111447000D02*
X173573000Y-115091000D01*
X173533000Y-117573000D02*
X173533000Y-121229000D01*
X173533000Y-111435000D02*
X173533000Y-115091000D01*
X173493000Y-117573000D02*
X173493000Y-121239000D01*
X173493000Y-111425000D02*
X173493000Y-115091000D01*
X173453000Y-117573000D02*
X173453000Y-121250000D01*
X173453000Y-111414000D02*
X173453000Y-115091000D01*
X173413000Y-111404000D02*
X173413000Y-121260000D01*
X173373000Y-111394000D02*
X173373000Y-121270000D01*
X173333000Y-111385000D02*
X173333000Y-121279000D01*
X173293000Y-111376000D02*
X173293000Y-121288000D01*
X173253000Y-111367000D02*
X173253000Y-121297000D01*
X173213000Y-111358000D02*
X173213000Y-121306000D01*
X173173000Y-111350000D02*
X173173000Y-121314000D01*
X173133000Y-111342000D02*
X173133000Y-121322000D01*
X173093000Y-111335000D02*
X173093000Y-121329000D01*
X173053000Y-111328000D02*
X173053000Y-121336000D01*
X173013000Y-111321000D02*
X173013000Y-121343000D01*
X172973000Y-111314000D02*
X172973000Y-121350000D01*
X172933000Y-111308000D02*
X172933000Y-121356000D01*
X172893000Y-111302000D02*
X172893000Y-121362000D01*
X172852000Y-111297000D02*
X172852000Y-121367000D01*
X172812000Y-111292000D02*
X172812000Y-121372000D01*
X172772000Y-111287000D02*
X172772000Y-121377000D01*
X172732000Y-111282000D02*
X172732000Y-121382000D01*
X172692000Y-111278000D02*
X172692000Y-121386000D01*
X172652000Y-111274000D02*
X172652000Y-121390000D01*
X172612000Y-111270000D02*
X172612000Y-121394000D01*
X172572000Y-111267000D02*
X172572000Y-121397000D01*
X172532000Y-111264000D02*
X172532000Y-121400000D01*
X172492000Y-111262000D02*
X172492000Y-121402000D01*
X172452000Y-111259000D02*
X172452000Y-121405000D01*
X172412000Y-111257000D02*
X172412000Y-121407000D01*
X172372000Y-111255000D02*
X172372000Y-121409000D01*
X172332000Y-111254000D02*
X172332000Y-121410000D01*
X172292000Y-111253000D02*
X172292000Y-121411000D01*
X172252000Y-111252000D02*
X172252000Y-121412000D01*
X172212000Y-111252000D02*
X172212000Y-121412000D01*
X172172000Y-111252000D02*
X172172000Y-121412000D01*
X177292000Y-116332000D02*
G75*
G03*
X177292000Y-116332000I-5120000J0D01*
G01*
%TO.C,C3*%
X90070000Y-102970000D02*
X90070000Y-97730000D01*
X92810000Y-102970000D02*
X92810000Y-97730000D01*
X90070000Y-102970000D02*
X92810000Y-102970000D01*
X90070000Y-97730000D02*
X92810000Y-97730000D01*
%TO.C,C4*%
X138330000Y-102970000D02*
X138330000Y-97730000D01*
X141070000Y-102970000D02*
X141070000Y-97730000D01*
X138330000Y-102970000D02*
X141070000Y-102970000D01*
X138330000Y-97730000D02*
X141070000Y-97730000D01*
%TO.C,C5*%
X90070000Y-137260000D02*
X90070000Y-132020000D01*
X92810000Y-137260000D02*
X92810000Y-132020000D01*
X90070000Y-137260000D02*
X92810000Y-137260000D01*
X90070000Y-132020000D02*
X92810000Y-132020000D01*
%TO.C,C6*%
X138330000Y-132020000D02*
X141070000Y-132020000D01*
X138330000Y-137260000D02*
X141070000Y-137260000D01*
X141070000Y-137260000D02*
X141070000Y-132020000D01*
X138330000Y-137260000D02*
X138330000Y-132020000D01*
%TO.C,C7*%
X90070000Y-114400000D02*
X90070000Y-109160000D01*
X92810000Y-114400000D02*
X92810000Y-109160000D01*
X90070000Y-114400000D02*
X92810000Y-114400000D01*
X90070000Y-109160000D02*
X92810000Y-109160000D01*
%TO.C,C8*%
X138330000Y-109160000D02*
X141070000Y-109160000D01*
X138330000Y-114400000D02*
X141070000Y-114400000D01*
X141070000Y-114400000D02*
X141070000Y-109160000D01*
X138330000Y-114400000D02*
X138330000Y-109160000D01*
%TO.C,C9*%
X90070000Y-125830000D02*
X90070000Y-120590000D01*
X92810000Y-125830000D02*
X92810000Y-120590000D01*
X90070000Y-125830000D02*
X92810000Y-125830000D01*
X90070000Y-120590000D02*
X92810000Y-120590000D01*
%TO.C,C10*%
X138330000Y-120590000D02*
X141070000Y-120590000D01*
X138330000Y-125830000D02*
X141070000Y-125830000D01*
X141070000Y-125830000D02*
X141070000Y-120590000D01*
X138330000Y-125830000D02*
X138330000Y-120590000D01*
%TO.C,C11*%
X111860000Y-43842000D02*
X111860000Y-49082000D01*
X109120000Y-43842000D02*
X109120000Y-49082000D01*
X111860000Y-43842000D02*
X109120000Y-43842000D01*
X111860000Y-49082000D02*
X109120000Y-49082000D01*
%TO.C,C12*%
X160120000Y-48955000D02*
X157380000Y-48955000D01*
X160120000Y-43715000D02*
X157380000Y-43715000D01*
X157380000Y-43715000D02*
X157380000Y-48955000D01*
X160120000Y-43715000D02*
X160120000Y-48955000D01*
%TO.C,C13*%
X135990000Y-48955000D02*
X133250000Y-48955000D01*
X135990000Y-43715000D02*
X133250000Y-43715000D01*
X133250000Y-43715000D02*
X133250000Y-48955000D01*
X135990000Y-43715000D02*
X135990000Y-48955000D01*
%TO.C,C14*%
X184250000Y-48955000D02*
X181510000Y-48955000D01*
X184250000Y-43715000D02*
X181510000Y-43715000D01*
X181510000Y-43715000D02*
X181510000Y-48955000D01*
X184250000Y-43715000D02*
X184250000Y-48955000D01*
%TO.C,D1*%
X171740000Y-133540000D02*
X171740000Y-133384000D01*
X171740000Y-135856000D02*
X171740000Y-135700000D01*
X168507665Y-135698608D02*
G75*
G03*
X171740000Y-135855516I1672335J1078608D01*
G01*
X168507665Y-133541392D02*
G75*
G02*
X171740000Y-133384484I1672335J-1078608D01*
G01*
X169138870Y-135699837D02*
G75*
G03*
X171220961Y-135700000I1041130J1079837D01*
G01*
X169138870Y-133540163D02*
G75*
G02*
X171220961Y-133540000I1041130J-1079837D01*
G01*
%TO.C,J1*%
X182880000Y-121345000D02*
X181550000Y-121345000D01*
X181550000Y-121345000D02*
X181550000Y-120015000D01*
X181550000Y-118745000D02*
X181550000Y-111065000D01*
X184210000Y-111065000D02*
X181550000Y-111065000D01*
X184210000Y-118745000D02*
X184210000Y-111065000D01*
X184210000Y-118745000D02*
X181550000Y-118745000D01*
%TO.C,J2*%
X95190000Y-99060000D02*
X95190000Y-97730000D01*
X95190000Y-97730000D02*
X96520000Y-97730000D01*
X95190000Y-100330000D02*
X97790000Y-100330000D01*
X97790000Y-100330000D02*
X97790000Y-97730000D01*
X97790000Y-97730000D02*
X135950000Y-97730000D01*
X135950000Y-102930000D02*
X135950000Y-97730000D01*
X95190000Y-102930000D02*
X135950000Y-102930000D01*
X95190000Y-102930000D02*
X95190000Y-100330000D01*
%TO.C,J3*%
X95190000Y-121920000D02*
X95190000Y-120590000D01*
X95190000Y-120590000D02*
X96520000Y-120590000D01*
X95190000Y-123190000D02*
X97790000Y-123190000D01*
X97790000Y-123190000D02*
X97790000Y-120590000D01*
X97790000Y-120590000D02*
X135950000Y-120590000D01*
X135950000Y-125790000D02*
X135950000Y-120590000D01*
X95190000Y-125790000D02*
X135950000Y-125790000D01*
X95190000Y-125790000D02*
X95190000Y-123190000D01*
%TO.C,J4*%
X95190000Y-114360000D02*
X95190000Y-111760000D01*
X95190000Y-114360000D02*
X135950000Y-114360000D01*
X135950000Y-114360000D02*
X135950000Y-109160000D01*
X97790000Y-109160000D02*
X135950000Y-109160000D01*
X97790000Y-111760000D02*
X97790000Y-109160000D01*
X95190000Y-111760000D02*
X97790000Y-111760000D01*
X95190000Y-109160000D02*
X96520000Y-109160000D01*
X95190000Y-110490000D02*
X95190000Y-109160000D01*
%TO.C,J5*%
X95190000Y-137220000D02*
X95190000Y-134620000D01*
X95190000Y-137220000D02*
X135950000Y-137220000D01*
X135950000Y-137220000D02*
X135950000Y-132020000D01*
X97790000Y-132020000D02*
X135950000Y-132020000D01*
X97790000Y-134620000D02*
X97790000Y-132020000D01*
X95190000Y-134620000D02*
X97790000Y-134620000D01*
X95190000Y-132020000D02*
X96520000Y-132020000D01*
X95190000Y-133350000D02*
X95190000Y-132020000D01*
%TO.C,R1*%
X182975000Y-127100000D02*
X182975000Y-126770000D01*
X176435000Y-127100000D02*
X182975000Y-127100000D01*
X176435000Y-126770000D02*
X176435000Y-127100000D01*
X182975000Y-124360000D02*
X182975000Y-124690000D01*
X176435000Y-124360000D02*
X182975000Y-124360000D01*
X176435000Y-124690000D02*
X176435000Y-124360000D01*
%TO.C,R2*%
X109120000Y-59150000D02*
X109450000Y-59150000D01*
X109120000Y-52610000D02*
X109120000Y-59150000D01*
X109450000Y-52610000D02*
X109120000Y-52610000D01*
X111860000Y-59150000D02*
X111530000Y-59150000D01*
X111860000Y-52610000D02*
X111860000Y-59150000D01*
X111530000Y-52610000D02*
X111860000Y-52610000D01*
%TO.C,R3*%
X111530000Y-64548000D02*
X111860000Y-64548000D01*
X111860000Y-64548000D02*
X111860000Y-71088000D01*
X111860000Y-71088000D02*
X111530000Y-71088000D01*
X109450000Y-64548000D02*
X109120000Y-64548000D01*
X109120000Y-64548000D02*
X109120000Y-71088000D01*
X109120000Y-71088000D02*
X109450000Y-71088000D01*
%TO.C,RN1*%
X162563000Y-116840000D02*
X159763000Y-116840000D01*
X162563000Y-137330000D02*
X162563000Y-114130000D01*
X159763000Y-137330000D02*
X162563000Y-137330000D01*
X159763000Y-114130000D02*
X159763000Y-137330000D01*
X162563000Y-114130000D02*
X159763000Y-114130000D01*
%TO.C,U7*%
X168253000Y-129104000D02*
X171853000Y-129104000D01*
X168214522Y-129092478D02*
G75*
G02*
X170053000Y-124654000I1838478J1838478D01*
G01*
X171891478Y-129092478D02*
G75*
G03*
X170053000Y-124654000I-1838478J1838478D01*
G01*
%TO.C,U6*%
X149105000Y-83760000D02*
X149105000Y-94040000D01*
X179825000Y-83760000D02*
X149105000Y-83760000D01*
X179825000Y-94040000D02*
X179825000Y-83760000D01*
X149105000Y-94040000D02*
X179825000Y-94040000D01*
X149165000Y-86250000D02*
X149165000Y-87900000D01*
X179765000Y-86250000D02*
X149165000Y-86250000D01*
X179765000Y-91550000D02*
X179765000Y-86250000D01*
X149165000Y-91550000D02*
X179765000Y-91550000D01*
X149165000Y-89900000D02*
X149165000Y-91550000D01*
X149165000Y-87900000D02*
G75*
G02*
X149165000Y-89900000I0J-1000000D01*
G01*
%TO.C,X1*%
X149062000Y-109320000D02*
X169212000Y-109320000D01*
X169962000Y-108570000D02*
X169962000Y-97170000D01*
X169212000Y-96420000D02*
X149812000Y-96420000D01*
X149062000Y-97170000D02*
X149062000Y-109320000D01*
X169212000Y-109320000D02*
G75*
G03*
X169962000Y-108570000I0J750000D01*
G01*
X169962000Y-97170000D02*
G75*
G03*
X169212000Y-96420000I-750000J0D01*
G01*
X149812000Y-96420000D02*
G75*
G03*
X149062000Y-97170000I0J-750000D01*
G01*
%TO.C,C15*%
X144045000Y-83760000D02*
X146785000Y-83760000D01*
X144045000Y-89000000D02*
X146785000Y-89000000D01*
X146785000Y-89000000D02*
X146785000Y-83760000D01*
X144045000Y-89000000D02*
X144045000Y-83760000D01*
%TO.C,J6*%
X152213000Y-116780000D02*
X153543000Y-116780000D01*
X152213000Y-118110000D02*
X152213000Y-116780000D01*
X154813000Y-116780000D02*
X157413000Y-116780000D01*
X154813000Y-119380000D02*
X154813000Y-116780000D01*
X152213000Y-119380000D02*
X154813000Y-119380000D01*
X157413000Y-116780000D02*
X157413000Y-137220000D01*
X152213000Y-119380000D02*
X152213000Y-137220000D01*
X152213000Y-137220000D02*
X157413000Y-137220000D01*
%TO.C,SW1*%
X183280000Y-134445000D02*
X183280000Y-132945000D01*
X182030000Y-130445000D02*
X177530000Y-130445000D01*
X176280000Y-132945000D02*
X176280000Y-134445000D01*
X177530000Y-136945000D02*
X182030000Y-136945000D01*
%TO.C,U1*%
X97425000Y-43755000D02*
X91965000Y-43755000D01*
X91965000Y-43755000D02*
X91965000Y-94675000D01*
X91965000Y-94675000D02*
X104885000Y-94675000D01*
X104885000Y-94675000D02*
X104885000Y-43755000D01*
X104885000Y-43755000D02*
X99425000Y-43755000D01*
X89475000Y-43695000D02*
X89475000Y-94735000D01*
X89475000Y-94735000D02*
X107375000Y-94735000D01*
X107375000Y-94735000D02*
X107375000Y-43695000D01*
X107375000Y-43695000D02*
X89475000Y-43695000D01*
X99425000Y-43755000D02*
G75*
G02*
X97425000Y-43755000I-1000000J0D01*
G01*
%TO.C,U2*%
X121555000Y-43755000D02*
X116095000Y-43755000D01*
X116095000Y-43755000D02*
X116095000Y-79435000D01*
X116095000Y-79435000D02*
X129015000Y-79435000D01*
X129015000Y-79435000D02*
X129015000Y-43755000D01*
X129015000Y-43755000D02*
X123555000Y-43755000D01*
X113605000Y-43695000D02*
X113605000Y-79495000D01*
X113605000Y-79495000D02*
X131505000Y-79495000D01*
X131505000Y-79495000D02*
X131505000Y-43695000D01*
X131505000Y-43695000D02*
X113605000Y-43695000D01*
X123555000Y-43755000D02*
G75*
G02*
X121555000Y-43755000I-1000000J0D01*
G01*
%TO.C,U3*%
X145685000Y-43755000D02*
X140225000Y-43755000D01*
X140225000Y-43755000D02*
X140225000Y-79435000D01*
X140225000Y-79435000D02*
X153145000Y-79435000D01*
X153145000Y-79435000D02*
X153145000Y-43755000D01*
X153145000Y-43755000D02*
X147685000Y-43755000D01*
X137735000Y-43695000D02*
X137735000Y-79495000D01*
X137735000Y-79495000D02*
X155635000Y-79495000D01*
X155635000Y-79495000D02*
X155635000Y-43695000D01*
X155635000Y-43695000D02*
X137735000Y-43695000D01*
X147685000Y-43755000D02*
G75*
G02*
X145685000Y-43755000I-1000000J0D01*
G01*
%TO.C,U4*%
X179765000Y-43695000D02*
X161865000Y-43695000D01*
X179765000Y-79495000D02*
X179765000Y-43695000D01*
X161865000Y-79495000D02*
X179765000Y-79495000D01*
X161865000Y-43695000D02*
X161865000Y-79495000D01*
X177275000Y-43755000D02*
X171815000Y-43755000D01*
X177275000Y-79435000D02*
X177275000Y-43755000D01*
X164355000Y-79435000D02*
X177275000Y-79435000D01*
X164355000Y-43755000D02*
X164355000Y-79435000D01*
X169815000Y-43755000D02*
X164355000Y-43755000D01*
X171815000Y-43755000D02*
G75*
G02*
X169815000Y-43755000I-1000000J0D01*
G01*
%TO.C,U5*%
X123765000Y-89900000D02*
X123765000Y-91550000D01*
X123765000Y-91550000D02*
X141665000Y-91550000D01*
X141665000Y-91550000D02*
X141665000Y-86250000D01*
X141665000Y-86250000D02*
X123765000Y-86250000D01*
X123765000Y-86250000D02*
X123765000Y-87900000D01*
X123705000Y-94040000D02*
X141725000Y-94040000D01*
X141725000Y-94040000D02*
X141725000Y-83760000D01*
X141725000Y-83760000D02*
X123705000Y-83760000D01*
X123705000Y-83760000D02*
X123705000Y-94040000D01*
X123765000Y-87900000D02*
G75*
G02*
X123765000Y-89900000I0J-1000000D01*
G01*
%TO.C,C1*%
D11*
X117872142Y-86546666D02*
X117919761Y-86594285D01*
X117967380Y-86737142D01*
X117967380Y-86832380D01*
X117919761Y-86975238D01*
X117824523Y-87070476D01*
X117729285Y-87118095D01*
X117538809Y-87165714D01*
X117395952Y-87165714D01*
X117205476Y-87118095D01*
X117110238Y-87070476D01*
X117015000Y-86975238D01*
X116967380Y-86832380D01*
X116967380Y-86737142D01*
X117015000Y-86594285D01*
X117062619Y-86546666D01*
X117967380Y-85594285D02*
X117967380Y-86165714D01*
X117967380Y-85880000D02*
X116967380Y-85880000D01*
X117110238Y-85975238D01*
X117205476Y-86070476D01*
X117253095Y-86165714D01*
%TO.C,C2*%
X172045333Y-110339142D02*
X171997714Y-110386761D01*
X171854857Y-110434380D01*
X171759619Y-110434380D01*
X171616761Y-110386761D01*
X171521523Y-110291523D01*
X171473904Y-110196285D01*
X171426285Y-110005809D01*
X171426285Y-109862952D01*
X171473904Y-109672476D01*
X171521523Y-109577238D01*
X171616761Y-109482000D01*
X171759619Y-109434380D01*
X171854857Y-109434380D01*
X171997714Y-109482000D01*
X172045333Y-109529619D01*
X172426285Y-109529619D02*
X172473904Y-109482000D01*
X172569142Y-109434380D01*
X172807238Y-109434380D01*
X172902476Y-109482000D01*
X172950095Y-109529619D01*
X172997714Y-109624857D01*
X172997714Y-109720095D01*
X172950095Y-109862952D01*
X172378666Y-110434380D01*
X172997714Y-110434380D01*
%TO.C,C3*%
X89297142Y-100516666D02*
X89344761Y-100564285D01*
X89392380Y-100707142D01*
X89392380Y-100802380D01*
X89344761Y-100945238D01*
X89249523Y-101040476D01*
X89154285Y-101088095D01*
X88963809Y-101135714D01*
X88820952Y-101135714D01*
X88630476Y-101088095D01*
X88535238Y-101040476D01*
X88440000Y-100945238D01*
X88392380Y-100802380D01*
X88392380Y-100707142D01*
X88440000Y-100564285D01*
X88487619Y-100516666D01*
X88392380Y-100183333D02*
X88392380Y-99564285D01*
X88773333Y-99897619D01*
X88773333Y-99754761D01*
X88820952Y-99659523D01*
X88868571Y-99611904D01*
X88963809Y-99564285D01*
X89201904Y-99564285D01*
X89297142Y-99611904D01*
X89344761Y-99659523D01*
X89392380Y-99754761D01*
X89392380Y-100040476D01*
X89344761Y-100135714D01*
X89297142Y-100183333D01*
%TO.C,C4*%
X142597142Y-100242666D02*
X142644761Y-100290285D01*
X142692380Y-100433142D01*
X142692380Y-100528380D01*
X142644761Y-100671238D01*
X142549523Y-100766476D01*
X142454285Y-100814095D01*
X142263809Y-100861714D01*
X142120952Y-100861714D01*
X141930476Y-100814095D01*
X141835238Y-100766476D01*
X141740000Y-100671238D01*
X141692380Y-100528380D01*
X141692380Y-100433142D01*
X141740000Y-100290285D01*
X141787619Y-100242666D01*
X142025714Y-99385523D02*
X142692380Y-99385523D01*
X141644761Y-99623619D02*
X142359047Y-99861714D01*
X142359047Y-99242666D01*
%TO.C,C5*%
X89297142Y-134806666D02*
X89344761Y-134854285D01*
X89392380Y-134997142D01*
X89392380Y-135092380D01*
X89344761Y-135235238D01*
X89249523Y-135330476D01*
X89154285Y-135378095D01*
X88963809Y-135425714D01*
X88820952Y-135425714D01*
X88630476Y-135378095D01*
X88535238Y-135330476D01*
X88440000Y-135235238D01*
X88392380Y-135092380D01*
X88392380Y-134997142D01*
X88440000Y-134854285D01*
X88487619Y-134806666D01*
X88392380Y-133901904D02*
X88392380Y-134378095D01*
X88868571Y-134425714D01*
X88820952Y-134378095D01*
X88773333Y-134282857D01*
X88773333Y-134044761D01*
X88820952Y-133949523D01*
X88868571Y-133901904D01*
X88963809Y-133854285D01*
X89201904Y-133854285D01*
X89297142Y-133901904D01*
X89344761Y-133949523D01*
X89392380Y-134044761D01*
X89392380Y-134282857D01*
X89344761Y-134378095D01*
X89297142Y-134425714D01*
%TO.C,C6*%
X142597142Y-134786666D02*
X142644761Y-134834285D01*
X142692380Y-134977142D01*
X142692380Y-135072380D01*
X142644761Y-135215238D01*
X142549523Y-135310476D01*
X142454285Y-135358095D01*
X142263809Y-135405714D01*
X142120952Y-135405714D01*
X141930476Y-135358095D01*
X141835238Y-135310476D01*
X141740000Y-135215238D01*
X141692380Y-135072380D01*
X141692380Y-134977142D01*
X141740000Y-134834285D01*
X141787619Y-134786666D01*
X141692380Y-133929523D02*
X141692380Y-134120000D01*
X141740000Y-134215238D01*
X141787619Y-134262857D01*
X141930476Y-134358095D01*
X142120952Y-134405714D01*
X142501904Y-134405714D01*
X142597142Y-134358095D01*
X142644761Y-134310476D01*
X142692380Y-134215238D01*
X142692380Y-134024761D01*
X142644761Y-133929523D01*
X142597142Y-133881904D01*
X142501904Y-133834285D01*
X142263809Y-133834285D01*
X142168571Y-133881904D01*
X142120952Y-133929523D01*
X142073333Y-134024761D01*
X142073333Y-134215238D01*
X142120952Y-134310476D01*
X142168571Y-134358095D01*
X142263809Y-134405714D01*
%TO.C,C7*%
X89297142Y-111946666D02*
X89344761Y-111994285D01*
X89392380Y-112137142D01*
X89392380Y-112232380D01*
X89344761Y-112375238D01*
X89249523Y-112470476D01*
X89154285Y-112518095D01*
X88963809Y-112565714D01*
X88820952Y-112565714D01*
X88630476Y-112518095D01*
X88535238Y-112470476D01*
X88440000Y-112375238D01*
X88392380Y-112232380D01*
X88392380Y-112137142D01*
X88440000Y-111994285D01*
X88487619Y-111946666D01*
X88392380Y-111613333D02*
X88392380Y-110946666D01*
X89392380Y-111375238D01*
%TO.C,C8*%
X142597142Y-111926666D02*
X142644761Y-111974285D01*
X142692380Y-112117142D01*
X142692380Y-112212380D01*
X142644761Y-112355238D01*
X142549523Y-112450476D01*
X142454285Y-112498095D01*
X142263809Y-112545714D01*
X142120952Y-112545714D01*
X141930476Y-112498095D01*
X141835238Y-112450476D01*
X141740000Y-112355238D01*
X141692380Y-112212380D01*
X141692380Y-112117142D01*
X141740000Y-111974285D01*
X141787619Y-111926666D01*
X142120952Y-111355238D02*
X142073333Y-111450476D01*
X142025714Y-111498095D01*
X141930476Y-111545714D01*
X141882857Y-111545714D01*
X141787619Y-111498095D01*
X141740000Y-111450476D01*
X141692380Y-111355238D01*
X141692380Y-111164761D01*
X141740000Y-111069523D01*
X141787619Y-111021904D01*
X141882857Y-110974285D01*
X141930476Y-110974285D01*
X142025714Y-111021904D01*
X142073333Y-111069523D01*
X142120952Y-111164761D01*
X142120952Y-111355238D01*
X142168571Y-111450476D01*
X142216190Y-111498095D01*
X142311428Y-111545714D01*
X142501904Y-111545714D01*
X142597142Y-111498095D01*
X142644761Y-111450476D01*
X142692380Y-111355238D01*
X142692380Y-111164761D01*
X142644761Y-111069523D01*
X142597142Y-111021904D01*
X142501904Y-110974285D01*
X142311428Y-110974285D01*
X142216190Y-111021904D01*
X142168571Y-111069523D01*
X142120952Y-111164761D01*
%TO.C,C9*%
X89297142Y-123376666D02*
X89344761Y-123424285D01*
X89392380Y-123567142D01*
X89392380Y-123662380D01*
X89344761Y-123805238D01*
X89249523Y-123900476D01*
X89154285Y-123948095D01*
X88963809Y-123995714D01*
X88820952Y-123995714D01*
X88630476Y-123948095D01*
X88535238Y-123900476D01*
X88440000Y-123805238D01*
X88392380Y-123662380D01*
X88392380Y-123567142D01*
X88440000Y-123424285D01*
X88487619Y-123376666D01*
X89392380Y-122900476D02*
X89392380Y-122710000D01*
X89344761Y-122614761D01*
X89297142Y-122567142D01*
X89154285Y-122471904D01*
X88963809Y-122424285D01*
X88582857Y-122424285D01*
X88487619Y-122471904D01*
X88440000Y-122519523D01*
X88392380Y-122614761D01*
X88392380Y-122805238D01*
X88440000Y-122900476D01*
X88487619Y-122948095D01*
X88582857Y-122995714D01*
X88820952Y-122995714D01*
X88916190Y-122948095D01*
X88963809Y-122900476D01*
X89011428Y-122805238D01*
X89011428Y-122614761D01*
X88963809Y-122519523D01*
X88916190Y-122471904D01*
X88820952Y-122424285D01*
%TO.C,C10*%
X142597142Y-123852857D02*
X142644761Y-123900476D01*
X142692380Y-124043333D01*
X142692380Y-124138571D01*
X142644761Y-124281428D01*
X142549523Y-124376666D01*
X142454285Y-124424285D01*
X142263809Y-124471904D01*
X142120952Y-124471904D01*
X141930476Y-124424285D01*
X141835238Y-124376666D01*
X141740000Y-124281428D01*
X141692380Y-124138571D01*
X141692380Y-124043333D01*
X141740000Y-123900476D01*
X141787619Y-123852857D01*
X142692380Y-122900476D02*
X142692380Y-123471904D01*
X142692380Y-123186190D02*
X141692380Y-123186190D01*
X141835238Y-123281428D01*
X141930476Y-123376666D01*
X141978095Y-123471904D01*
X141692380Y-122281428D02*
X141692380Y-122186190D01*
X141740000Y-122090952D01*
X141787619Y-122043333D01*
X141882857Y-121995714D01*
X142073333Y-121948095D01*
X142311428Y-121948095D01*
X142501904Y-121995714D01*
X142597142Y-122043333D01*
X142644761Y-122090952D01*
X142692380Y-122186190D01*
X142692380Y-122281428D01*
X142644761Y-122376666D01*
X142597142Y-122424285D01*
X142501904Y-122471904D01*
X142311428Y-122519523D01*
X142073333Y-122519523D01*
X141882857Y-122471904D01*
X141787619Y-122424285D01*
X141740000Y-122376666D01*
X141692380Y-122281428D01*
%TO.C,C11*%
X108561142Y-47104857D02*
X108608761Y-47152476D01*
X108656380Y-47295333D01*
X108656380Y-47390571D01*
X108608761Y-47533428D01*
X108513523Y-47628666D01*
X108418285Y-47676285D01*
X108227809Y-47723904D01*
X108084952Y-47723904D01*
X107894476Y-47676285D01*
X107799238Y-47628666D01*
X107704000Y-47533428D01*
X107656380Y-47390571D01*
X107656380Y-47295333D01*
X107704000Y-47152476D01*
X107751619Y-47104857D01*
X108656380Y-46152476D02*
X108656380Y-46723904D01*
X108656380Y-46438190D02*
X107656380Y-46438190D01*
X107799238Y-46533428D01*
X107894476Y-46628666D01*
X107942095Y-46723904D01*
X108656380Y-45200095D02*
X108656380Y-45771523D01*
X108656380Y-45485809D02*
X107656380Y-45485809D01*
X107799238Y-45581047D01*
X107894476Y-45676285D01*
X107942095Y-45771523D01*
%TO.C,C12*%
X156821142Y-46977857D02*
X156868761Y-47025476D01*
X156916380Y-47168333D01*
X156916380Y-47263571D01*
X156868761Y-47406428D01*
X156773523Y-47501666D01*
X156678285Y-47549285D01*
X156487809Y-47596904D01*
X156344952Y-47596904D01*
X156154476Y-47549285D01*
X156059238Y-47501666D01*
X155964000Y-47406428D01*
X155916380Y-47263571D01*
X155916380Y-47168333D01*
X155964000Y-47025476D01*
X156011619Y-46977857D01*
X156916380Y-46025476D02*
X156916380Y-46596904D01*
X156916380Y-46311190D02*
X155916380Y-46311190D01*
X156059238Y-46406428D01*
X156154476Y-46501666D01*
X156202095Y-46596904D01*
X156011619Y-45644523D02*
X155964000Y-45596904D01*
X155916380Y-45501666D01*
X155916380Y-45263571D01*
X155964000Y-45168333D01*
X156011619Y-45120714D01*
X156106857Y-45073095D01*
X156202095Y-45073095D01*
X156344952Y-45120714D01*
X156916380Y-45692142D01*
X156916380Y-45073095D01*
%TO.C,C13*%
X132691142Y-46977857D02*
X132738761Y-47025476D01*
X132786380Y-47168333D01*
X132786380Y-47263571D01*
X132738761Y-47406428D01*
X132643523Y-47501666D01*
X132548285Y-47549285D01*
X132357809Y-47596904D01*
X132214952Y-47596904D01*
X132024476Y-47549285D01*
X131929238Y-47501666D01*
X131834000Y-47406428D01*
X131786380Y-47263571D01*
X131786380Y-47168333D01*
X131834000Y-47025476D01*
X131881619Y-46977857D01*
X132786380Y-46025476D02*
X132786380Y-46596904D01*
X132786380Y-46311190D02*
X131786380Y-46311190D01*
X131929238Y-46406428D01*
X132024476Y-46501666D01*
X132072095Y-46596904D01*
X131786380Y-45692142D02*
X131786380Y-45073095D01*
X132167333Y-45406428D01*
X132167333Y-45263571D01*
X132214952Y-45168333D01*
X132262571Y-45120714D01*
X132357809Y-45073095D01*
X132595904Y-45073095D01*
X132691142Y-45120714D01*
X132738761Y-45168333D01*
X132786380Y-45263571D01*
X132786380Y-45549285D01*
X132738761Y-45644523D01*
X132691142Y-45692142D01*
%TO.C,C14*%
X180951142Y-46977857D02*
X180998761Y-47025476D01*
X181046380Y-47168333D01*
X181046380Y-47263571D01*
X180998761Y-47406428D01*
X180903523Y-47501666D01*
X180808285Y-47549285D01*
X180617809Y-47596904D01*
X180474952Y-47596904D01*
X180284476Y-47549285D01*
X180189238Y-47501666D01*
X180094000Y-47406428D01*
X180046380Y-47263571D01*
X180046380Y-47168333D01*
X180094000Y-47025476D01*
X180141619Y-46977857D01*
X181046380Y-46025476D02*
X181046380Y-46596904D01*
X181046380Y-46311190D02*
X180046380Y-46311190D01*
X180189238Y-46406428D01*
X180284476Y-46501666D01*
X180332095Y-46596904D01*
X180379714Y-45168333D02*
X181046380Y-45168333D01*
X179998761Y-45406428D02*
X180713047Y-45644523D01*
X180713047Y-45025476D01*
%TO.C,D1*%
X169441904Y-131897380D02*
X169441904Y-130897380D01*
X169680000Y-130897380D01*
X169822857Y-130945000D01*
X169918095Y-131040238D01*
X169965714Y-131135476D01*
X170013333Y-131325952D01*
X170013333Y-131468809D01*
X169965714Y-131659285D01*
X169918095Y-131754523D01*
X169822857Y-131849761D01*
X169680000Y-131897380D01*
X169441904Y-131897380D01*
X170965714Y-131897380D02*
X170394285Y-131897380D01*
X170680000Y-131897380D02*
X170680000Y-130897380D01*
X170584761Y-131040238D01*
X170489523Y-131135476D01*
X170394285Y-131183095D01*
%TO.C,J1*%
X182546666Y-109307380D02*
X182546666Y-110021666D01*
X182499047Y-110164523D01*
X182403809Y-110259761D01*
X182260952Y-110307380D01*
X182165714Y-110307380D01*
X183546666Y-110307380D02*
X182975238Y-110307380D01*
X183260952Y-110307380D02*
X183260952Y-109307380D01*
X183165714Y-109450238D01*
X183070476Y-109545476D01*
X182975238Y-109593095D01*
%TO.C,J2*%
X93432380Y-100663333D02*
X94146666Y-100663333D01*
X94289523Y-100710952D01*
X94384761Y-100806190D01*
X94432380Y-100949047D01*
X94432380Y-101044285D01*
X93527619Y-100234761D02*
X93480000Y-100187142D01*
X93432380Y-100091904D01*
X93432380Y-99853809D01*
X93480000Y-99758571D01*
X93527619Y-99710952D01*
X93622857Y-99663333D01*
X93718095Y-99663333D01*
X93860952Y-99710952D01*
X94432380Y-100282380D01*
X94432380Y-99663333D01*
%TO.C,J3*%
X93432380Y-123523333D02*
X94146666Y-123523333D01*
X94289523Y-123570952D01*
X94384761Y-123666190D01*
X94432380Y-123809047D01*
X94432380Y-123904285D01*
X93432380Y-123142380D02*
X93432380Y-122523333D01*
X93813333Y-122856666D01*
X93813333Y-122713809D01*
X93860952Y-122618571D01*
X93908571Y-122570952D01*
X94003809Y-122523333D01*
X94241904Y-122523333D01*
X94337142Y-122570952D01*
X94384761Y-122618571D01*
X94432380Y-122713809D01*
X94432380Y-122999523D01*
X94384761Y-123094761D01*
X94337142Y-123142380D01*
%TO.C,J4*%
X93432380Y-112093333D02*
X94146666Y-112093333D01*
X94289523Y-112140952D01*
X94384761Y-112236190D01*
X94432380Y-112379047D01*
X94432380Y-112474285D01*
X93765714Y-111188571D02*
X94432380Y-111188571D01*
X93384761Y-111426666D02*
X94099047Y-111664761D01*
X94099047Y-111045714D01*
%TO.C,J5*%
X93432380Y-134953333D02*
X94146666Y-134953333D01*
X94289523Y-135000952D01*
X94384761Y-135096190D01*
X94432380Y-135239047D01*
X94432380Y-135334285D01*
X93432380Y-134000952D02*
X93432380Y-134477142D01*
X93908571Y-134524761D01*
X93860952Y-134477142D01*
X93813333Y-134381904D01*
X93813333Y-134143809D01*
X93860952Y-134048571D01*
X93908571Y-134000952D01*
X94003809Y-133953333D01*
X94241904Y-133953333D01*
X94337142Y-134000952D01*
X94384761Y-134048571D01*
X94432380Y-134143809D01*
X94432380Y-134381904D01*
X94384761Y-134477142D01*
X94337142Y-134524761D01*
%TO.C,R1*%
X179538333Y-123642380D02*
X179205000Y-123166190D01*
X178966904Y-123642380D02*
X178966904Y-122642380D01*
X179347857Y-122642380D01*
X179443095Y-122690000D01*
X179490714Y-122737619D01*
X179538333Y-122832857D01*
X179538333Y-122975714D01*
X179490714Y-123070952D01*
X179443095Y-123118571D01*
X179347857Y-123166190D01*
X178966904Y-123166190D01*
X180490714Y-123642380D02*
X179919285Y-123642380D01*
X180205000Y-123642380D02*
X180205000Y-122642380D01*
X180109761Y-122785238D01*
X180014523Y-122880476D01*
X179919285Y-122928095D01*
%TO.C,R2*%
X108656380Y-56046666D02*
X108180190Y-56380000D01*
X108656380Y-56618095D02*
X107656380Y-56618095D01*
X107656380Y-56237142D01*
X107704000Y-56141904D01*
X107751619Y-56094285D01*
X107846857Y-56046666D01*
X107989714Y-56046666D01*
X108084952Y-56094285D01*
X108132571Y-56141904D01*
X108180190Y-56237142D01*
X108180190Y-56618095D01*
X107751619Y-55665714D02*
X107704000Y-55618095D01*
X107656380Y-55522857D01*
X107656380Y-55284761D01*
X107704000Y-55189523D01*
X107751619Y-55141904D01*
X107846857Y-55094285D01*
X107942095Y-55094285D01*
X108084952Y-55141904D01*
X108656380Y-55713333D01*
X108656380Y-55094285D01*
%TO.C,R3*%
X108656380Y-68238666D02*
X108180190Y-68572000D01*
X108656380Y-68810095D02*
X107656380Y-68810095D01*
X107656380Y-68429142D01*
X107704000Y-68333904D01*
X107751619Y-68286285D01*
X107846857Y-68238666D01*
X107989714Y-68238666D01*
X108084952Y-68286285D01*
X108132571Y-68333904D01*
X108180190Y-68429142D01*
X108180190Y-68810095D01*
X107656380Y-67905333D02*
X107656380Y-67286285D01*
X108037333Y-67619619D01*
X108037333Y-67476761D01*
X108084952Y-67381523D01*
X108132571Y-67333904D01*
X108227809Y-67286285D01*
X108465904Y-67286285D01*
X108561142Y-67333904D01*
X108608761Y-67381523D01*
X108656380Y-67476761D01*
X108656380Y-67762476D01*
X108608761Y-67857714D01*
X108561142Y-67905333D01*
%TO.C,RN1*%
X160599523Y-138882380D02*
X160266190Y-138406190D01*
X160028095Y-138882380D02*
X160028095Y-137882380D01*
X160409047Y-137882380D01*
X160504285Y-137930000D01*
X160551904Y-137977619D01*
X160599523Y-138072857D01*
X160599523Y-138215714D01*
X160551904Y-138310952D01*
X160504285Y-138358571D01*
X160409047Y-138406190D01*
X160028095Y-138406190D01*
X161028095Y-138882380D02*
X161028095Y-137882380D01*
X161599523Y-138882380D01*
X161599523Y-137882380D01*
X162599523Y-138882380D02*
X162028095Y-138882380D01*
X162313809Y-138882380D02*
X162313809Y-137882380D01*
X162218571Y-138025238D01*
X162123333Y-138120476D01*
X162028095Y-138168095D01*
%TO.C,U7*%
X169291095Y-123146380D02*
X169291095Y-123955904D01*
X169338714Y-124051142D01*
X169386333Y-124098761D01*
X169481571Y-124146380D01*
X169672047Y-124146380D01*
X169767285Y-124098761D01*
X169814904Y-124051142D01*
X169862523Y-123955904D01*
X169862523Y-123146380D01*
X170243476Y-123146380D02*
X170910142Y-123146380D01*
X170481571Y-124146380D01*
%TO.C,U6*%
X147617380Y-89661904D02*
X148426904Y-89661904D01*
X148522142Y-89614285D01*
X148569761Y-89566666D01*
X148617380Y-89471428D01*
X148617380Y-89280952D01*
X148569761Y-89185714D01*
X148522142Y-89138095D01*
X148426904Y-89090476D01*
X147617380Y-89090476D01*
X147617380Y-88185714D02*
X147617380Y-88376190D01*
X147665000Y-88471428D01*
X147712619Y-88519047D01*
X147855476Y-88614285D01*
X148045952Y-88661904D01*
X148426904Y-88661904D01*
X148522142Y-88614285D01*
X148569761Y-88566666D01*
X148617380Y-88471428D01*
X148617380Y-88280952D01*
X148569761Y-88185714D01*
X148522142Y-88138095D01*
X148426904Y-88090476D01*
X148188809Y-88090476D01*
X148093571Y-88138095D01*
X148045952Y-88185714D01*
X147998333Y-88280952D01*
X147998333Y-88471428D01*
X148045952Y-88566666D01*
X148093571Y-88614285D01*
X148188809Y-88661904D01*
%TO.C,X1*%
X158702476Y-94872380D02*
X159369142Y-95872380D01*
X159369142Y-94872380D02*
X158702476Y-95872380D01*
X160273904Y-95872380D02*
X159702476Y-95872380D01*
X159988190Y-95872380D02*
X159988190Y-94872380D01*
X159892952Y-95015238D01*
X159797714Y-95110476D01*
X159702476Y-95158095D01*
%TO.C,C15*%
X143272142Y-87022857D02*
X143319761Y-87070476D01*
X143367380Y-87213333D01*
X143367380Y-87308571D01*
X143319761Y-87451428D01*
X143224523Y-87546666D01*
X143129285Y-87594285D01*
X142938809Y-87641904D01*
X142795952Y-87641904D01*
X142605476Y-87594285D01*
X142510238Y-87546666D01*
X142415000Y-87451428D01*
X142367380Y-87308571D01*
X142367380Y-87213333D01*
X142415000Y-87070476D01*
X142462619Y-87022857D01*
X143367380Y-86070476D02*
X143367380Y-86641904D01*
X143367380Y-86356190D02*
X142367380Y-86356190D01*
X142510238Y-86451428D01*
X142605476Y-86546666D01*
X142653095Y-86641904D01*
X142367380Y-85165714D02*
X142367380Y-85641904D01*
X142843571Y-85689523D01*
X142795952Y-85641904D01*
X142748333Y-85546666D01*
X142748333Y-85308571D01*
X142795952Y-85213333D01*
X142843571Y-85165714D01*
X142938809Y-85118095D01*
X143176904Y-85118095D01*
X143272142Y-85165714D01*
X143319761Y-85213333D01*
X143367380Y-85308571D01*
X143367380Y-85546666D01*
X143319761Y-85641904D01*
X143272142Y-85689523D01*
%TO.C,J6*%
X154479666Y-137882380D02*
X154479666Y-138596666D01*
X154432047Y-138739523D01*
X154336809Y-138834761D01*
X154193952Y-138882380D01*
X154098714Y-138882380D01*
X155384428Y-137882380D02*
X155193952Y-137882380D01*
X155098714Y-137930000D01*
X155051095Y-137977619D01*
X154955857Y-138120476D01*
X154908238Y-138310952D01*
X154908238Y-138691904D01*
X154955857Y-138787142D01*
X155003476Y-138834761D01*
X155098714Y-138882380D01*
X155289190Y-138882380D01*
X155384428Y-138834761D01*
X155432047Y-138787142D01*
X155479666Y-138691904D01*
X155479666Y-138453809D01*
X155432047Y-138358571D01*
X155384428Y-138310952D01*
X155289190Y-138263333D01*
X155098714Y-138263333D01*
X155003476Y-138310952D01*
X154955857Y-138358571D01*
X154908238Y-138453809D01*
%TO.C,SW1*%
X178446666Y-129849761D02*
X178589523Y-129897380D01*
X178827619Y-129897380D01*
X178922857Y-129849761D01*
X178970476Y-129802142D01*
X179018095Y-129706904D01*
X179018095Y-129611666D01*
X178970476Y-129516428D01*
X178922857Y-129468809D01*
X178827619Y-129421190D01*
X178637142Y-129373571D01*
X178541904Y-129325952D01*
X178494285Y-129278333D01*
X178446666Y-129183095D01*
X178446666Y-129087857D01*
X178494285Y-128992619D01*
X178541904Y-128945000D01*
X178637142Y-128897380D01*
X178875238Y-128897380D01*
X179018095Y-128945000D01*
X179351428Y-128897380D02*
X179589523Y-129897380D01*
X179780000Y-129183095D01*
X179970476Y-129897380D01*
X180208571Y-128897380D01*
X181113333Y-129897380D02*
X180541904Y-129897380D01*
X180827619Y-129897380D02*
X180827619Y-128897380D01*
X180732380Y-129040238D01*
X180637142Y-129135476D01*
X180541904Y-129183095D01*
%TO.C,U1*%
X97663095Y-42207380D02*
X97663095Y-43016904D01*
X97710714Y-43112142D01*
X97758333Y-43159761D01*
X97853571Y-43207380D01*
X98044047Y-43207380D01*
X98139285Y-43159761D01*
X98186904Y-43112142D01*
X98234523Y-43016904D01*
X98234523Y-42207380D01*
X99234523Y-43207380D02*
X98663095Y-43207380D01*
X98948809Y-43207380D02*
X98948809Y-42207380D01*
X98853571Y-42350238D01*
X98758333Y-42445476D01*
X98663095Y-42493095D01*
%TO.C,U2*%
X121793095Y-42207380D02*
X121793095Y-43016904D01*
X121840714Y-43112142D01*
X121888333Y-43159761D01*
X121983571Y-43207380D01*
X122174047Y-43207380D01*
X122269285Y-43159761D01*
X122316904Y-43112142D01*
X122364523Y-43016904D01*
X122364523Y-42207380D01*
X122793095Y-42302619D02*
X122840714Y-42255000D01*
X122935952Y-42207380D01*
X123174047Y-42207380D01*
X123269285Y-42255000D01*
X123316904Y-42302619D01*
X123364523Y-42397857D01*
X123364523Y-42493095D01*
X123316904Y-42635952D01*
X122745476Y-43207380D01*
X123364523Y-43207380D01*
%TO.C,U3*%
X145923095Y-42207380D02*
X145923095Y-43016904D01*
X145970714Y-43112142D01*
X146018333Y-43159761D01*
X146113571Y-43207380D01*
X146304047Y-43207380D01*
X146399285Y-43159761D01*
X146446904Y-43112142D01*
X146494523Y-43016904D01*
X146494523Y-42207380D01*
X146875476Y-42207380D02*
X147494523Y-42207380D01*
X147161190Y-42588333D01*
X147304047Y-42588333D01*
X147399285Y-42635952D01*
X147446904Y-42683571D01*
X147494523Y-42778809D01*
X147494523Y-43016904D01*
X147446904Y-43112142D01*
X147399285Y-43159761D01*
X147304047Y-43207380D01*
X147018333Y-43207380D01*
X146923095Y-43159761D01*
X146875476Y-43112142D01*
%TO.C,U4*%
X170053095Y-42207380D02*
X170053095Y-43016904D01*
X170100714Y-43112142D01*
X170148333Y-43159761D01*
X170243571Y-43207380D01*
X170434047Y-43207380D01*
X170529285Y-43159761D01*
X170576904Y-43112142D01*
X170624523Y-43016904D01*
X170624523Y-42207380D01*
X171529285Y-42540714D02*
X171529285Y-43207380D01*
X171291190Y-42159761D02*
X171053095Y-42874047D01*
X171672142Y-42874047D01*
%TO.C,U5*%
X122217380Y-89661904D02*
X123026904Y-89661904D01*
X123122142Y-89614285D01*
X123169761Y-89566666D01*
X123217380Y-89471428D01*
X123217380Y-89280952D01*
X123169761Y-89185714D01*
X123122142Y-89138095D01*
X123026904Y-89090476D01*
X122217380Y-89090476D01*
X122217380Y-88138095D02*
X122217380Y-88614285D01*
X122693571Y-88661904D01*
X122645952Y-88614285D01*
X122598333Y-88519047D01*
X122598333Y-88280952D01*
X122645952Y-88185714D01*
X122693571Y-88138095D01*
X122788809Y-88090476D01*
X123026904Y-88090476D01*
X123122142Y-88138095D01*
X123169761Y-88185714D01*
X123217380Y-88280952D01*
X123217380Y-88519047D01*
X123169761Y-88614285D01*
X123122142Y-88661904D01*
%TD*%
M02*
