%TF.GenerationSoftware,KiCad,Pcbnew,(5.1.9-0-10_14)*%
%TF.CreationDate,2021-03-14T15:18:17+01:00*%
%TF.ProjectId,n8 bit special,6e382062-6974-4207-9370-656369616c2e,2*%
%TF.SameCoordinates,Original*%
%TF.FileFunction,Soldermask,Top*%
%TF.FilePolarity,Negative*%
%FSLAX46Y46*%
G04 Gerber Fmt 4.6, Leading zero omitted, Abs format (unit mm)*
G04 Created by KiCad (PCBNEW (5.1.9-0-10_14)) date 2021-03-14 15:18:17*
%MOMM*%
%LPD*%
G01*
G04 APERTURE LIST*
%ADD10C,5.600000*%
%ADD11C,1.600000*%
%ADD12R,1.600000X1.600000*%
%ADD13O,1.550000X0.890000*%
%ADD14R,1.550000X1.200000*%
%ADD15R,1.550000X1.500000*%
%ADD16O,0.950000X1.250000*%
%ADD17R,1.350000X0.400000*%
%ADD18R,1.800000X1.800000*%
%ADD19C,1.800000*%
%ADD20R,1.700000X1.700000*%
%ADD21O,1.700000X1.700000*%
%ADD22O,1.600000X1.600000*%
%ADD23C,1.300000*%
%ADD24C,2.000000*%
G04 APERTURE END LIST*
D10*
%TO.C,REF2*%
X137795000Y-51816000D03*
%TD*%
%TO.C,REF3*%
X181991000Y-125857000D03*
%TD*%
%TO.C,REF1*%
X91440000Y-128270000D03*
%TD*%
D11*
%TO.C,X1*%
X180086000Y-100076000D03*
X172466000Y-100076000D03*
X172466000Y-107696000D03*
D12*
X180086000Y-107696000D03*
%TD*%
D13*
%TO.C,J1*%
X185513500Y-113086000D03*
X185513500Y-120086000D03*
D14*
X185513500Y-113686000D03*
X185513500Y-119486000D03*
D15*
X185513500Y-115586000D03*
X185513500Y-117586000D03*
D16*
X182813500Y-114086000D03*
X182813500Y-119086000D03*
D17*
X182813500Y-115286000D03*
X182813500Y-115936000D03*
X182813500Y-116586000D03*
X182813500Y-117236000D03*
X182813500Y-117886000D03*
%TD*%
D11*
%TO.C,C2*%
X172593000Y-117231000D03*
D12*
X172593000Y-121031000D03*
%TD*%
D11*
%TO.C,C1*%
X138303000Y-81280000D03*
X138303000Y-83780000D03*
%TD*%
%TO.C,C3*%
X91440000Y-94655000D03*
X91440000Y-97155000D03*
%TD*%
%TO.C,C4*%
X139700000Y-94655000D03*
X139700000Y-97155000D03*
%TD*%
%TO.C,C5*%
X91440000Y-133517000D03*
X91440000Y-136017000D03*
%TD*%
%TO.C,C6*%
X139700000Y-136017000D03*
X139700000Y-133517000D03*
%TD*%
%TO.C,C7*%
X91440000Y-107609000D03*
X91440000Y-110109000D03*
%TD*%
%TO.C,C8*%
X139700000Y-110109000D03*
X139700000Y-107609000D03*
%TD*%
%TO.C,C9*%
X91440000Y-120563000D03*
X91440000Y-123063000D03*
%TD*%
%TO.C,C10*%
X139700000Y-123063000D03*
X139700000Y-120563000D03*
%TD*%
%TO.C,C11*%
X163449000Y-91908000D03*
X163449000Y-89408000D03*
%TD*%
%TO.C,C12*%
X163322000Y-43434000D03*
X163322000Y-45934000D03*
%TD*%
%TO.C,C13*%
X137795000Y-43434000D03*
X137795000Y-45934000D03*
%TD*%
%TO.C,C14*%
X112014000Y-43434000D03*
X112014000Y-45934000D03*
%TD*%
D18*
%TO.C,D1*%
X167386000Y-135636000D03*
D19*
X164846000Y-135636000D03*
%TD*%
D20*
%TO.C,J2*%
X96520000Y-94615000D03*
D21*
X96520000Y-97155000D03*
X99060000Y-94615000D03*
X99060000Y-97155000D03*
X101600000Y-94615000D03*
X101600000Y-97155000D03*
X104140000Y-94615000D03*
X104140000Y-97155000D03*
X106680000Y-94615000D03*
X106680000Y-97155000D03*
X109220000Y-94615000D03*
X109220000Y-97155000D03*
X111760000Y-94615000D03*
X111760000Y-97155000D03*
X114300000Y-94615000D03*
X114300000Y-97155000D03*
X116840000Y-94615000D03*
X116840000Y-97155000D03*
X119380000Y-94615000D03*
X119380000Y-97155000D03*
X121920000Y-94615000D03*
X121920000Y-97155000D03*
X124460000Y-94615000D03*
X124460000Y-97155000D03*
X127000000Y-94615000D03*
X127000000Y-97155000D03*
X129540000Y-94615000D03*
X129540000Y-97155000D03*
X132080000Y-94615000D03*
X132080000Y-97155000D03*
X134620000Y-94615000D03*
X134620000Y-97155000D03*
%TD*%
D20*
%TO.C,J3*%
X96520000Y-120523000D03*
D21*
X96520000Y-123063000D03*
X99060000Y-120523000D03*
X99060000Y-123063000D03*
X101600000Y-120523000D03*
X101600000Y-123063000D03*
X104140000Y-120523000D03*
X104140000Y-123063000D03*
X106680000Y-120523000D03*
X106680000Y-123063000D03*
X109220000Y-120523000D03*
X109220000Y-123063000D03*
X111760000Y-120523000D03*
X111760000Y-123063000D03*
X114300000Y-120523000D03*
X114300000Y-123063000D03*
X116840000Y-120523000D03*
X116840000Y-123063000D03*
X119380000Y-120523000D03*
X119380000Y-123063000D03*
X121920000Y-120523000D03*
X121920000Y-123063000D03*
X124460000Y-120523000D03*
X124460000Y-123063000D03*
X127000000Y-120523000D03*
X127000000Y-123063000D03*
X129540000Y-120523000D03*
X129540000Y-123063000D03*
X132080000Y-120523000D03*
X132080000Y-123063000D03*
X134620000Y-120523000D03*
X134620000Y-123063000D03*
%TD*%
%TO.C,J4*%
X134620000Y-110109000D03*
X134620000Y-107569000D03*
X132080000Y-110109000D03*
X132080000Y-107569000D03*
X129540000Y-110109000D03*
X129540000Y-107569000D03*
X127000000Y-110109000D03*
X127000000Y-107569000D03*
X124460000Y-110109000D03*
X124460000Y-107569000D03*
X121920000Y-110109000D03*
X121920000Y-107569000D03*
X119380000Y-110109000D03*
X119380000Y-107569000D03*
X116840000Y-110109000D03*
X116840000Y-107569000D03*
X114300000Y-110109000D03*
X114300000Y-107569000D03*
X111760000Y-110109000D03*
X111760000Y-107569000D03*
X109220000Y-110109000D03*
X109220000Y-107569000D03*
X106680000Y-110109000D03*
X106680000Y-107569000D03*
X104140000Y-110109000D03*
X104140000Y-107569000D03*
X101600000Y-110109000D03*
X101600000Y-107569000D03*
X99060000Y-110109000D03*
X99060000Y-107569000D03*
X96520000Y-110109000D03*
D20*
X96520000Y-107569000D03*
%TD*%
D21*
%TO.C,J5*%
X134620000Y-136017000D03*
X134620000Y-133477000D03*
X132080000Y-136017000D03*
X132080000Y-133477000D03*
X129540000Y-136017000D03*
X129540000Y-133477000D03*
X127000000Y-136017000D03*
X127000000Y-133477000D03*
X124460000Y-136017000D03*
X124460000Y-133477000D03*
X121920000Y-136017000D03*
X121920000Y-133477000D03*
X119380000Y-136017000D03*
X119380000Y-133477000D03*
X116840000Y-136017000D03*
X116840000Y-133477000D03*
X114300000Y-136017000D03*
X114300000Y-133477000D03*
X111760000Y-136017000D03*
X111760000Y-133477000D03*
X109220000Y-136017000D03*
X109220000Y-133477000D03*
X106680000Y-136017000D03*
X106680000Y-133477000D03*
X104140000Y-136017000D03*
X104140000Y-133477000D03*
X101600000Y-136017000D03*
X101600000Y-133477000D03*
X99060000Y-136017000D03*
X99060000Y-133477000D03*
X96520000Y-136017000D03*
D20*
X96520000Y-133477000D03*
%TD*%
D11*
%TO.C,R1*%
X172466000Y-137414000D03*
D22*
X172466000Y-129794000D03*
%TD*%
D11*
%TO.C,R2*%
X163449000Y-76835000D03*
D22*
X163449000Y-84455000D03*
%TD*%
%TO.C,R3*%
X163449000Y-64643000D03*
D11*
X163449000Y-72263000D03*
%TD*%
D12*
%TO.C,RN1*%
X160782000Y-115951000D03*
D22*
X160782000Y-118491000D03*
X160782000Y-121031000D03*
X160782000Y-123571000D03*
X160782000Y-126111000D03*
X160782000Y-128651000D03*
X160782000Y-131191000D03*
X160782000Y-133731000D03*
X160782000Y-136271000D03*
%TD*%
D23*
%TO.C,U7*%
X165989000Y-127889000D03*
X167259000Y-129159000D03*
X164719000Y-129159000D03*
%TD*%
D12*
%TO.C,U6*%
X96393000Y-88900000D03*
D22*
X124333000Y-81280000D03*
X98933000Y-88900000D03*
X121793000Y-81280000D03*
X101473000Y-88900000D03*
X119253000Y-81280000D03*
X104013000Y-88900000D03*
X116713000Y-81280000D03*
X106553000Y-88900000D03*
X114173000Y-81280000D03*
X109093000Y-88900000D03*
X111633000Y-81280000D03*
X111633000Y-88900000D03*
X109093000Y-81280000D03*
X114173000Y-88900000D03*
X106553000Y-81280000D03*
X116713000Y-88900000D03*
X104013000Y-81280000D03*
X119253000Y-88900000D03*
X101473000Y-81280000D03*
X121793000Y-88900000D03*
X98933000Y-81280000D03*
X124333000Y-88900000D03*
X96393000Y-81280000D03*
%TD*%
D11*
%TO.C,C15*%
X91440000Y-83820000D03*
X91440000Y-81320000D03*
%TD*%
D20*
%TO.C,J6*%
X153797000Y-118491000D03*
D21*
X156337000Y-118491000D03*
X153797000Y-121031000D03*
X156337000Y-121031000D03*
X153797000Y-123571000D03*
X156337000Y-123571000D03*
X153797000Y-126111000D03*
X156337000Y-126111000D03*
X153797000Y-128651000D03*
X156337000Y-128651000D03*
X153797000Y-131191000D03*
X156337000Y-131191000D03*
X153797000Y-133731000D03*
X156337000Y-133731000D03*
X153797000Y-136271000D03*
X156337000Y-136271000D03*
%TD*%
D24*
%TO.C,SW1*%
X177546000Y-136707000D03*
X177546000Y-132207000D03*
X184046000Y-136707000D03*
X184046000Y-132207000D03*
%TD*%
D12*
%TO.C,U1*%
X183769000Y-91821000D03*
D22*
X168529000Y-43561000D03*
X183769000Y-89281000D03*
X168529000Y-46101000D03*
X183769000Y-86741000D03*
X168529000Y-48641000D03*
X183769000Y-84201000D03*
X168529000Y-51181000D03*
X183769000Y-81661000D03*
X168529000Y-53721000D03*
X183769000Y-79121000D03*
X168529000Y-56261000D03*
X183769000Y-76581000D03*
X168529000Y-58801000D03*
X183769000Y-74041000D03*
X168529000Y-61341000D03*
X183769000Y-71501000D03*
X168529000Y-63881000D03*
X183769000Y-68961000D03*
X168529000Y-66421000D03*
X183769000Y-66421000D03*
X168529000Y-68961000D03*
X183769000Y-63881000D03*
X168529000Y-71501000D03*
X183769000Y-61341000D03*
X168529000Y-74041000D03*
X183769000Y-58801000D03*
X168529000Y-76581000D03*
X183769000Y-56261000D03*
X168529000Y-79121000D03*
X183769000Y-53721000D03*
X168529000Y-81661000D03*
X183769000Y-51181000D03*
X168529000Y-84201000D03*
X183769000Y-48641000D03*
X168529000Y-86741000D03*
X183769000Y-46101000D03*
X168529000Y-89281000D03*
X183769000Y-43561000D03*
X168529000Y-91821000D03*
%TD*%
D12*
%TO.C,U2*%
X143002000Y-43434000D03*
D22*
X158242000Y-76454000D03*
X143002000Y-45974000D03*
X158242000Y-73914000D03*
X143002000Y-48514000D03*
X158242000Y-71374000D03*
X143002000Y-51054000D03*
X158242000Y-68834000D03*
X143002000Y-53594000D03*
X158242000Y-66294000D03*
X143002000Y-56134000D03*
X158242000Y-63754000D03*
X143002000Y-58674000D03*
X158242000Y-61214000D03*
X143002000Y-61214000D03*
X158242000Y-58674000D03*
X143002000Y-63754000D03*
X158242000Y-56134000D03*
X143002000Y-66294000D03*
X158242000Y-53594000D03*
X143002000Y-68834000D03*
X158242000Y-51054000D03*
X143002000Y-71374000D03*
X158242000Y-48514000D03*
X143002000Y-73914000D03*
X158242000Y-45974000D03*
X143002000Y-76454000D03*
X158242000Y-43434000D03*
%TD*%
D12*
%TO.C,U3*%
X117348000Y-43434000D03*
D22*
X132588000Y-76454000D03*
X117348000Y-45974000D03*
X132588000Y-73914000D03*
X117348000Y-48514000D03*
X132588000Y-71374000D03*
X117348000Y-51054000D03*
X132588000Y-68834000D03*
X117348000Y-53594000D03*
X132588000Y-66294000D03*
X117348000Y-56134000D03*
X132588000Y-63754000D03*
X117348000Y-58674000D03*
X132588000Y-61214000D03*
X117348000Y-61214000D03*
X132588000Y-58674000D03*
X117348000Y-63754000D03*
X132588000Y-56134000D03*
X117348000Y-66294000D03*
X132588000Y-53594000D03*
X117348000Y-68834000D03*
X132588000Y-51054000D03*
X117348000Y-71374000D03*
X132588000Y-48514000D03*
X117348000Y-73914000D03*
X132588000Y-45974000D03*
X117348000Y-76454000D03*
X132588000Y-43434000D03*
%TD*%
%TO.C,U4*%
X106934000Y-43434000D03*
X91694000Y-76454000D03*
X106934000Y-45974000D03*
X91694000Y-73914000D03*
X106934000Y-48514000D03*
X91694000Y-71374000D03*
X106934000Y-51054000D03*
X91694000Y-68834000D03*
X106934000Y-53594000D03*
X91694000Y-66294000D03*
X106934000Y-56134000D03*
X91694000Y-63754000D03*
X106934000Y-58674000D03*
X91694000Y-61214000D03*
X106934000Y-61214000D03*
X91694000Y-58674000D03*
X106934000Y-63754000D03*
X91694000Y-56134000D03*
X106934000Y-66294000D03*
X91694000Y-53594000D03*
X106934000Y-68834000D03*
X91694000Y-51054000D03*
X106934000Y-71374000D03*
X91694000Y-48514000D03*
X106934000Y-73914000D03*
X91694000Y-45974000D03*
X106934000Y-76454000D03*
D12*
X91694000Y-43434000D03*
%TD*%
%TO.C,U5*%
X142875000Y-88900000D03*
D22*
X158115000Y-81280000D03*
X145415000Y-88900000D03*
X155575000Y-81280000D03*
X147955000Y-88900000D03*
X153035000Y-81280000D03*
X150495000Y-88900000D03*
X150495000Y-81280000D03*
X153035000Y-88900000D03*
X147955000Y-81280000D03*
X155575000Y-88900000D03*
X145415000Y-81280000D03*
X158115000Y-88900000D03*
X142875000Y-81280000D03*
%TD*%
M02*
