M48
; DRILL file {KiCad (5.1.9-0-10_14)} date Wednesday, March 24, 2021 at 09:17:26 PM
; FORMAT={-:-/ absolute / metric / decimal}
; #@! TF.CreationDate,2021-03-24T21:17:26+01:00
; #@! TF.GenerationSoftware,Kicad,Pcbnew,(5.1.9-0-10_14)
; #@! TF.FileFunction,Plated,1,2,PTH
FMAT,2
METRIC
T1C0.400
T2C0.500
T3C0.550
T4C0.750
T5C0.800
T6C0.900
T7C1.000
T8C1.100
T9C3.200
%
G90
G05
T1
X102.547Y-66.002
X102.868Y-83.019
X105.778Y-75.449
X118.719Y-47.334
X119.396Y-69.974
X125.01Y-78.956
X129.485Y-91.189
X130.888Y-97.489
X138.539Y-75.329
X138.699Y-77.581
X139.725Y-127.889
X145.614Y-111.887
X160.782Y-112.903
X161.663Y-48.227
T4
X164.719Y-129.159
X165.989Y-127.889
X167.259Y-129.159
T5
X91.44Y-81.32
X91.44Y-83.82
X91.44Y-94.655
X91.44Y-97.155
X91.44Y-107.038
X91.44Y-109.538
X91.44Y-120.309
X91.44Y-122.809
X91.44Y-133.555
X91.44Y-136.055
X91.694Y-43.434
X91.694Y-45.974
X91.694Y-48.514
X91.694Y-51.054
X91.694Y-53.594
X91.694Y-56.134
X91.694Y-58.674
X91.694Y-61.214
X91.694Y-63.754
X91.694Y-66.294
X91.694Y-68.834
X91.694Y-71.374
X91.694Y-73.914
X91.694Y-76.454
X96.393Y-81.28
X96.393Y-88.9
X98.933Y-81.28
X98.933Y-88.9
X101.473Y-81.28
X101.473Y-88.9
X104.013Y-81.28
X104.013Y-88.9
X106.553Y-81.28
X106.553Y-88.9
X106.934Y-43.434
X106.934Y-45.974
X106.934Y-48.514
X106.934Y-51.054
X106.934Y-53.594
X106.934Y-56.134
X106.934Y-58.674
X106.934Y-61.214
X106.934Y-63.754
X106.934Y-66.294
X106.934Y-68.834
X106.934Y-71.374
X106.934Y-73.914
X106.934Y-76.454
X109.093Y-81.28
X109.093Y-88.9
X111.633Y-81.28
X111.633Y-88.9
X112.014Y-43.434
X112.014Y-45.934
X114.173Y-81.28
X114.173Y-88.9
X116.713Y-81.28
X116.713Y-88.9
X117.348Y-43.434
X117.348Y-45.974
X117.348Y-48.514
X117.348Y-51.054
X117.348Y-53.594
X117.348Y-56.134
X117.348Y-58.674
X117.348Y-61.214
X117.348Y-63.754
X117.348Y-66.294
X117.348Y-68.834
X117.348Y-71.374
X117.348Y-73.914
X117.348Y-76.454
X119.253Y-81.28
X119.253Y-88.9
X121.793Y-81.28
X121.793Y-88.9
X124.333Y-81.28
X124.333Y-88.9
X132.588Y-43.434
X132.588Y-45.974
X132.588Y-48.514
X132.588Y-51.054
X132.588Y-53.594
X132.588Y-56.134
X132.588Y-58.674
X132.588Y-61.214
X132.588Y-63.754
X132.588Y-66.294
X132.588Y-68.834
X132.588Y-71.374
X132.588Y-73.914
X132.588Y-76.454
X137.795Y-43.434
X137.795Y-45.934
X138.303Y-81.28
X138.303Y-83.78
X139.7Y-93.703
X139.7Y-96.203
X139.7Y-107.038
X139.7Y-109.538
X139.7Y-120.309
X139.7Y-122.809
X139.7Y-133.579
X139.7Y-136.079
X142.875Y-81.28
X142.875Y-88.9
X143.002Y-43.434
X143.002Y-45.974
X143.002Y-48.514
X143.002Y-51.054
X143.002Y-53.594
X143.002Y-56.134
X143.002Y-58.674
X143.002Y-61.214
X143.002Y-63.754
X143.002Y-66.294
X143.002Y-68.834
X143.002Y-71.374
X143.002Y-73.914
X143.002Y-76.454
X145.415Y-81.28
X145.415Y-88.9
X147.955Y-81.28
X147.955Y-88.9
X150.495Y-81.28
X150.495Y-88.9
X153.035Y-81.28
X153.035Y-88.9
X155.575Y-81.28
X155.575Y-88.9
X158.115Y-81.28
X158.115Y-88.9
X158.242Y-43.434
X158.242Y-45.974
X158.242Y-48.514
X158.242Y-51.054
X158.242Y-53.594
X158.242Y-56.134
X158.242Y-58.674
X158.242Y-61.214
X158.242Y-63.754
X158.242Y-66.294
X158.242Y-68.834
X158.242Y-71.374
X158.242Y-73.914
X158.242Y-76.454
X160.782Y-115.951
X160.782Y-118.491
X160.782Y-121.031
X160.782Y-123.571
X160.782Y-126.111
X160.782Y-128.651
X160.782Y-131.191
X160.782Y-133.731
X160.782Y-136.271
X163.322Y-43.434
X163.322Y-45.934
X163.449Y-64.643
X163.449Y-72.263
X163.449Y-76.835
X163.449Y-84.455
X163.449Y-89.408
X163.449Y-91.908
X168.529Y-43.561
X168.529Y-46.101
X168.529Y-48.641
X168.529Y-51.181
X168.529Y-53.721
X168.529Y-56.261
X168.529Y-58.801
X168.529Y-61.341
X168.529Y-63.881
X168.529Y-66.421
X168.529Y-68.961
X168.529Y-71.501
X168.529Y-74.041
X168.529Y-76.581
X168.529Y-79.121
X168.529Y-81.661
X168.529Y-84.201
X168.529Y-86.741
X168.529Y-89.281
X168.529Y-91.821
X170.952Y-122.428
X172.466Y-129.794
X172.466Y-137.414
X173.418Y-113.919
X174.498Y-99.123
X174.498Y-106.743
X174.752Y-122.428
X175.918Y-113.919
X182.118Y-99.123
X182.118Y-106.743
X183.769Y-43.561
X183.769Y-46.101
X183.769Y-48.641
X183.769Y-51.181
X183.769Y-53.721
X183.769Y-56.261
X183.769Y-58.801
X183.769Y-61.341
X183.769Y-63.881
X183.769Y-66.421
X183.769Y-68.961
X183.769Y-71.501
X183.769Y-74.041
X183.769Y-76.581
X183.769Y-79.121
X183.769Y-81.661
X183.769Y-84.201
X183.769Y-86.741
X183.769Y-89.281
X183.769Y-91.821
T6
X164.846Y-135.636
X167.386Y-135.636
T7
X96.507Y-133.54
X96.507Y-136.08
X96.52Y-93.726
X96.52Y-96.266
X96.52Y-106.998
X96.52Y-109.538
X96.52Y-120.269
X96.52Y-122.809
X99.047Y-133.54
X99.047Y-136.08
X99.06Y-93.726
X99.06Y-96.266
X99.06Y-106.998
X99.06Y-109.538
X99.06Y-120.269
X99.06Y-122.809
X101.587Y-133.54
X101.587Y-136.08
X101.6Y-93.726
X101.6Y-96.266
X101.6Y-106.998
X101.6Y-109.538
X101.6Y-120.269
X101.6Y-122.809
X104.127Y-133.54
X104.127Y-136.08
X104.14Y-93.726
X104.14Y-96.266
X104.14Y-106.998
X104.14Y-109.538
X104.14Y-120.269
X104.14Y-122.809
X106.667Y-133.54
X106.667Y-136.08
X106.68Y-93.726
X106.68Y-96.266
X106.68Y-106.998
X106.68Y-109.538
X106.68Y-120.269
X106.68Y-122.809
X109.207Y-133.54
X109.207Y-136.08
X109.22Y-93.726
X109.22Y-96.266
X109.22Y-106.998
X109.22Y-109.538
X109.22Y-120.269
X109.22Y-122.809
X111.747Y-133.54
X111.747Y-136.08
X111.76Y-93.726
X111.76Y-96.266
X111.76Y-106.998
X111.76Y-109.538
X111.76Y-120.269
X111.76Y-122.809
X114.287Y-133.54
X114.287Y-136.08
X114.3Y-93.726
X114.3Y-96.266
X114.3Y-106.998
X114.3Y-109.538
X114.3Y-120.269
X114.3Y-122.809
X116.827Y-133.54
X116.827Y-136.08
X116.84Y-93.726
X116.84Y-96.266
X116.84Y-106.998
X116.84Y-109.538
X116.84Y-120.269
X116.84Y-122.809
X119.367Y-133.54
X119.367Y-136.08
X119.38Y-93.726
X119.38Y-96.266
X119.38Y-106.998
X119.38Y-109.538
X119.38Y-120.269
X119.38Y-122.809
X121.907Y-133.54
X121.907Y-136.08
X121.92Y-93.726
X121.92Y-96.266
X121.92Y-106.998
X121.92Y-109.538
X121.92Y-120.269
X121.92Y-122.809
X124.447Y-133.54
X124.447Y-136.08
X124.46Y-93.726
X124.46Y-96.266
X124.46Y-106.998
X124.46Y-109.538
X124.46Y-120.269
X124.46Y-122.809
X126.987Y-133.54
X126.987Y-136.08
X127.0Y-93.726
X127.0Y-96.266
X127.0Y-106.998
X127.0Y-109.538
X127.0Y-120.269
X127.0Y-122.809
X129.527Y-133.54
X129.527Y-136.08
X129.54Y-93.726
X129.54Y-96.266
X129.54Y-106.998
X129.54Y-109.538
X129.54Y-120.269
X129.54Y-122.809
X132.067Y-133.54
X132.067Y-136.08
X132.08Y-93.726
X132.08Y-96.266
X132.08Y-106.998
X132.08Y-109.538
X132.08Y-120.269
X132.08Y-122.809
X134.607Y-133.54
X134.607Y-136.08
X134.62Y-93.726
X134.62Y-96.266
X134.62Y-106.998
X134.62Y-109.538
X134.62Y-120.269
X134.62Y-122.809
X153.797Y-118.491
X153.797Y-121.031
X153.797Y-123.571
X153.797Y-126.111
X153.797Y-128.651
X153.797Y-131.191
X153.797Y-133.731
X153.797Y-136.271
X156.337Y-118.491
X156.337Y-121.031
X156.337Y-123.571
X156.337Y-126.111
X156.337Y-128.651
X156.337Y-131.191
X156.337Y-133.731
X156.337Y-136.271
T8
X177.546Y-132.207
X177.546Y-136.707
X184.046Y-132.207
X184.046Y-136.707
T9
X91.44Y-128.27
X137.795Y-51.816
X181.991Y-125.857
T2
G00X184.998Y-113.086
M15
G01X185.648Y-113.086
M16
G05
G00X184.998Y-120.086
M15
G01X185.648Y-120.086
M16
G05
T3
G00X182.623Y-114.236
M15
G01X182.623Y-113.936
M16
G05
G00X182.623Y-119.236
M15
G01X182.623Y-118.936
M16
G05
T0
M30
