M48
; DRILL file {KiCad (5.1.9-0-10_14)} date Sunday, March 14, 2021 at 03:18:20 PM
; FORMAT={-:-/ absolute / metric / decimal}
; #@! TF.CreationDate,2021-03-14T15:18:20+01:00
; #@! TF.GenerationSoftware,Kicad,Pcbnew,(5.1.9-0-10_14)
; #@! TF.FileFunction,Plated,1,2,PTH
FMAT,2
METRIC
T1C0.400
T2C0.500
T3C0.550
T4C0.750
T5C0.800
T6C0.900
T7C1.000
T8C1.100
T9C3.200
%
G90
G05
T1
X99.181Y-64.345
X102.571Y-58.419
X103.144Y-56.569
X104.262Y-83.678
X107.63Y-85.287
X108.061Y-79.802
X108.144Y-134.941
X124.755Y-78.738
X136.501Y-115.006
X138.829Y-77.697
X139.528Y-80.258
X139.7Y-128.143
X145.508Y-111.062
T4
X164.719Y-129.159
X165.989Y-127.889
X167.259Y-129.159
T5
X91.44Y-81.32
X91.44Y-83.82
X91.44Y-94.655
X91.44Y-97.155
X91.44Y-107.609
X91.44Y-110.109
X91.44Y-120.563
X91.44Y-123.063
X91.44Y-133.517
X91.44Y-136.017
X91.694Y-43.434
X91.694Y-45.974
X91.694Y-48.514
X91.694Y-51.054
X91.694Y-53.594
X91.694Y-56.134
X91.694Y-58.674
X91.694Y-61.214
X91.694Y-63.754
X91.694Y-66.294
X91.694Y-68.834
X91.694Y-71.374
X91.694Y-73.914
X91.694Y-76.454
X96.393Y-81.28
X96.393Y-88.9
X98.933Y-81.28
X98.933Y-88.9
X101.473Y-81.28
X101.473Y-88.9
X104.013Y-81.28
X104.013Y-88.9
X106.553Y-81.28
X106.553Y-88.9
X106.934Y-43.434
X106.934Y-45.974
X106.934Y-48.514
X106.934Y-51.054
X106.934Y-53.594
X106.934Y-56.134
X106.934Y-58.674
X106.934Y-61.214
X106.934Y-63.754
X106.934Y-66.294
X106.934Y-68.834
X106.934Y-71.374
X106.934Y-73.914
X106.934Y-76.454
X109.093Y-81.28
X109.093Y-88.9
X111.633Y-81.28
X111.633Y-88.9
X112.014Y-43.434
X112.014Y-45.934
X114.173Y-81.28
X114.173Y-88.9
X116.713Y-81.28
X116.713Y-88.9
X117.348Y-43.434
X117.348Y-45.974
X117.348Y-48.514
X117.348Y-51.054
X117.348Y-53.594
X117.348Y-56.134
X117.348Y-58.674
X117.348Y-61.214
X117.348Y-63.754
X117.348Y-66.294
X117.348Y-68.834
X117.348Y-71.374
X117.348Y-73.914
X117.348Y-76.454
X119.253Y-81.28
X119.253Y-88.9
X121.793Y-81.28
X121.793Y-88.9
X124.333Y-81.28
X124.333Y-88.9
X132.588Y-43.434
X132.588Y-45.974
X132.588Y-48.514
X132.588Y-51.054
X132.588Y-53.594
X132.588Y-56.134
X132.588Y-58.674
X132.588Y-61.214
X132.588Y-63.754
X132.588Y-66.294
X132.588Y-68.834
X132.588Y-71.374
X132.588Y-73.914
X132.588Y-76.454
X137.795Y-43.434
X137.795Y-45.934
X138.303Y-81.28
X138.303Y-83.78
X139.7Y-94.655
X139.7Y-97.155
X139.7Y-107.609
X139.7Y-110.109
X139.7Y-120.563
X139.7Y-123.063
X139.7Y-133.517
X139.7Y-136.017
X142.875Y-81.28
X142.875Y-88.9
X143.002Y-43.434
X143.002Y-45.974
X143.002Y-48.514
X143.002Y-51.054
X143.002Y-53.594
X143.002Y-56.134
X143.002Y-58.674
X143.002Y-61.214
X143.002Y-63.754
X143.002Y-66.294
X143.002Y-68.834
X143.002Y-71.374
X143.002Y-73.914
X143.002Y-76.454
X145.415Y-81.28
X145.415Y-88.9
X147.955Y-81.28
X147.955Y-88.9
X150.495Y-81.28
X150.495Y-88.9
X153.035Y-81.28
X153.035Y-88.9
X155.575Y-81.28
X155.575Y-88.9
X158.115Y-81.28
X158.115Y-88.9
X158.242Y-43.434
X158.242Y-45.974
X158.242Y-48.514
X158.242Y-51.054
X158.242Y-53.594
X158.242Y-56.134
X158.242Y-58.674
X158.242Y-61.214
X158.242Y-63.754
X158.242Y-66.294
X158.242Y-68.834
X158.242Y-71.374
X158.242Y-73.914
X158.242Y-76.454
X160.782Y-115.951
X160.782Y-118.491
X160.782Y-121.031
X160.782Y-123.571
X160.782Y-126.111
X160.782Y-128.651
X160.782Y-131.191
X160.782Y-133.731
X160.782Y-136.271
X163.322Y-43.434
X163.322Y-45.934
X163.449Y-64.643
X163.449Y-72.263
X163.449Y-76.835
X163.449Y-84.455
X163.449Y-89.408
X163.449Y-91.908
X168.529Y-43.561
X168.529Y-46.101
X168.529Y-48.641
X168.529Y-51.181
X168.529Y-53.721
X168.529Y-56.261
X168.529Y-58.801
X168.529Y-61.341
X168.529Y-63.881
X168.529Y-66.421
X168.529Y-68.961
X168.529Y-71.501
X168.529Y-74.041
X168.529Y-76.581
X168.529Y-79.121
X168.529Y-81.661
X168.529Y-84.201
X168.529Y-86.741
X168.529Y-89.281
X168.529Y-91.821
X172.466Y-100.076
X172.466Y-107.696
X172.466Y-129.794
X172.466Y-137.414
X172.593Y-117.231
X172.593Y-121.031
X180.086Y-100.076
X180.086Y-107.696
X183.769Y-43.561
X183.769Y-46.101
X183.769Y-48.641
X183.769Y-51.181
X183.769Y-53.721
X183.769Y-56.261
X183.769Y-58.801
X183.769Y-61.341
X183.769Y-63.881
X183.769Y-66.421
X183.769Y-68.961
X183.769Y-71.501
X183.769Y-74.041
X183.769Y-76.581
X183.769Y-79.121
X183.769Y-81.661
X183.769Y-84.201
X183.769Y-86.741
X183.769Y-89.281
X183.769Y-91.821
T6
X164.846Y-135.636
X167.386Y-135.636
T7
X96.52Y-94.615
X96.52Y-97.155
X96.52Y-107.569
X96.52Y-110.109
X96.52Y-120.523
X96.52Y-123.063
X96.52Y-133.477
X96.52Y-136.017
X99.06Y-94.615
X99.06Y-97.155
X99.06Y-107.569
X99.06Y-110.109
X99.06Y-120.523
X99.06Y-123.063
X99.06Y-133.477
X99.06Y-136.017
X101.6Y-94.615
X101.6Y-97.155
X101.6Y-107.569
X101.6Y-110.109
X101.6Y-120.523
X101.6Y-123.063
X101.6Y-133.477
X101.6Y-136.017
X104.14Y-94.615
X104.14Y-97.155
X104.14Y-107.569
X104.14Y-110.109
X104.14Y-120.523
X104.14Y-123.063
X104.14Y-133.477
X104.14Y-136.017
X106.68Y-94.615
X106.68Y-97.155
X106.68Y-107.569
X106.68Y-110.109
X106.68Y-120.523
X106.68Y-123.063
X106.68Y-133.477
X106.68Y-136.017
X109.22Y-94.615
X109.22Y-97.155
X109.22Y-107.569
X109.22Y-110.109
X109.22Y-120.523
X109.22Y-123.063
X109.22Y-133.477
X109.22Y-136.017
X111.76Y-94.615
X111.76Y-97.155
X111.76Y-107.569
X111.76Y-110.109
X111.76Y-120.523
X111.76Y-123.063
X111.76Y-133.477
X111.76Y-136.017
X114.3Y-94.615
X114.3Y-97.155
X114.3Y-107.569
X114.3Y-110.109
X114.3Y-120.523
X114.3Y-123.063
X114.3Y-133.477
X114.3Y-136.017
X116.84Y-94.615
X116.84Y-97.155
X116.84Y-107.569
X116.84Y-110.109
X116.84Y-120.523
X116.84Y-123.063
X116.84Y-133.477
X116.84Y-136.017
X119.38Y-94.615
X119.38Y-97.155
X119.38Y-107.569
X119.38Y-110.109
X119.38Y-120.523
X119.38Y-123.063
X119.38Y-133.477
X119.38Y-136.017
X121.92Y-94.615
X121.92Y-97.155
X121.92Y-107.569
X121.92Y-110.109
X121.92Y-120.523
X121.92Y-123.063
X121.92Y-133.477
X121.92Y-136.017
X124.46Y-94.615
X124.46Y-97.155
X124.46Y-107.569
X124.46Y-110.109
X124.46Y-120.523
X124.46Y-123.063
X124.46Y-133.477
X124.46Y-136.017
X127.0Y-94.615
X127.0Y-97.155
X127.0Y-107.569
X127.0Y-110.109
X127.0Y-120.523
X127.0Y-123.063
X127.0Y-133.477
X127.0Y-136.017
X129.54Y-94.615
X129.54Y-97.155
X129.54Y-107.569
X129.54Y-110.109
X129.54Y-120.523
X129.54Y-123.063
X129.54Y-133.477
X129.54Y-136.017
X132.08Y-94.615
X132.08Y-97.155
X132.08Y-107.569
X132.08Y-110.109
X132.08Y-120.523
X132.08Y-123.063
X132.08Y-133.477
X132.08Y-136.017
X134.62Y-94.615
X134.62Y-97.155
X134.62Y-107.569
X134.62Y-110.109
X134.62Y-120.523
X134.62Y-123.063
X134.62Y-133.477
X134.62Y-136.017
X153.797Y-118.491
X153.797Y-121.031
X153.797Y-123.571
X153.797Y-126.111
X153.797Y-128.651
X153.797Y-131.191
X153.797Y-133.731
X153.797Y-136.271
X156.337Y-118.491
X156.337Y-121.031
X156.337Y-123.571
X156.337Y-126.111
X156.337Y-128.651
X156.337Y-131.191
X156.337Y-133.731
X156.337Y-136.271
T8
X177.546Y-132.207
X177.546Y-136.707
X184.046Y-132.207
X184.046Y-136.707
T9
X91.44Y-128.27
X137.795Y-51.816
X181.991Y-125.857
T2
G00X185.189Y-113.086
M15
G01X185.838Y-113.086
M16
G05
G00X185.189Y-120.086
M15
G01X185.838Y-120.086
M16
G05
T3
G00X182.814Y-114.236
M15
G01X182.814Y-113.936
M16
G05
G00X182.814Y-119.236
M15
G01X182.814Y-118.936
M16
G05
T0
M30
